<?xml version="1.0" standalone="no"?>
<!DOCTYPE svg PUBLIC "-//W3C//DTD SVG 1.1//EN" "http://www.w3.org/Graphics/SVG/1.1/DTD/svg11.dtd" >
<svg xmlns="http://www.w3.org/2000/svg" xmlns:xlink="http://www.w3.org/1999/xlink" version="1.1">
<metadata>
Created by FontForge 20170731 at Thu May 23 12:41:02 2019
 By Aleksey,,,
Copyright (c) 2019 by Mans Greback. All rights reserved.
</metadata>
<defs>
<font id="AngarsRunes" horiz-adv-x="267" >
  <font-face 
    font-family="Angars Runes"
    font-weight="400"
    font-stretch="normal"
    units-per-em="1000"
    panose-1="0 0 0 0 0 0 0 0 0 0"
    ascent="750"
    descent="-250"
    x-height="669"
    cap-height="669"
    bbox="-70 -168 898 771"
    underline-thickness="50"
    underline-position="-150"
    unicode-range="U+000D-FB02"
  />
<missing-glyph horiz-adv-x="287" 
 />
    <glyph glyph-name=".notdef" horiz-adv-x="287" 
 />
    <glyph glyph-name=".null" horiz-adv-x="0" 
 />
    <glyph glyph-name="nonmarkingreturn" unicode="&#xd;" horiz-adv-x="287" 
 />
    <glyph glyph-name="NULL" horiz-adv-x="0" 
 />
    <glyph glyph-name="NULL" horiz-adv-x="0" 
 />
    <glyph glyph-name="space" unicode=" " horiz-adv-x="167" 
d="M237 0v-21h-307v21h307zM-70 648v21h307v-21h-307z" />
    <glyph glyph-name="exclam" unicode="!" horiz-adv-x="180" 
d="M-70 669h320v-21h-132q-3 -9 -4.5 -28.5t-2 -46t-1.5 -57t-3 -60.5v-93q2 -34 3.5 -69.5t2.5 -65t2 -48.5t3 -20h-55q0 3 2 20t4.5 45t4 63.5t1.5 74.5v93q0 57 -3.5 106t-5.5 75l-2 11h-134v21zM126 36q0 -11 -7.5 -20t-15.5 -16h147v-21h-320v21h147q-8 7 -14.5 16
t-6.5 20q0 8 5.5 16.5t12.5 15.5q8 8 18 15q9 -7 17 -15q6 -7 11.5 -15.5t5.5 -16.5z" />
    <glyph glyph-name="quotedbl" unicode="&#x22;" horiz-adv-x="147" 
d="M97 515q5 39 1 74t-15 59h-14q-5 -16 -9.5 -29.5t-7 -28.5t-2.5 -33t3 -42h-36q5 39 1 74t-15 59h-73v21h287v-21h-68q-5 -16 -9.5 -29.5t-7 -28.5t-2.5 -33t3 -42h-36zM217 0v-21h-287v21h287z" />
    <glyph glyph-name="numbersign" unicode="#" horiz-adv-x="367" 
d="M33 236q11 -5 31.5 -7.5t45.5 -4.5q2 40 1.5 84t-2.5 84q-27 -2 -47 -5t-29 -7v56q11 -4 31 -7t44 -5q-2 29 -4.5 52t-6.5 34h56q-5 -9 -8.5 -32.5t-5.5 -55.5q44 -2 89 0q-2 30 -4.5 53.5t-6.5 34.5h56q-5 -9 -8.5 -31.5t-5.5 -54.5q25 2 45 4.5t33 7.5v-56q-10 6 -31 9
t-48 5q-2 -40 -1.5 -84.5t2.5 -85.5q25 2 45 4.5t33 7.5v-56q-10 5 -30 8.5t-46 5.5q2 -32 5 -56t7 -32h-56q4 11 6.5 34.5t4.5 55.5h-44t-43 -1q2 -33 5 -57t7 -32h-56q4 11 6.5 33.5t4.5 52.5q-26 -2 -46 -5t-29 -7v56zM229 396q-23 1 -46 0.5t-45 -2.5q-2 -41 -1.5 -86
t2.5 -86q46 -2 90 0q2 42 2 87t-2 87zM-70 648v21h507v-21h-507zM437 0v-21h-507v21h507z" />
    <glyph glyph-name="dollar" unicode="$" horiz-adv-x="205" 
d="M77 -88l9 67h-156v21h115l-8 5q-3 -1 10 12.5t30 39t32.5 61t16.5 79.5q0 35 -13.5 67t-30 63.5t-30 64.5t-13.5 70q0 26 7 52.5t17 51t20.5 46t18.5 36.5h-172v21h155l-8 64h56l-9 -64h151v-21h-134l18 -13q1 -1 -11 -13t-28 -37q-5 -7 -13 -20t-15.5 -30t-12.5 -36.5
t-5 -38.5q0 -38 13 -70.5t28.5 -63t29 -62t15.5 -67.5q0 -34 -7 -64t-17 -55t-20.5 -45t-17.5 -33h177v-21h-151l9 -67h-56z" />
    <glyph glyph-name="percent" unicode="%" horiz-adv-x="250" 
d="M-70 669h390v-21h-77l-4 -22q-5 -30 -20.5 -79t-34.5 -107l-20 -60l-40 -123q-12 -35 -22.5 -71t-18.5 -68.5t-12.5 -59t-5.5 -43.5v-15h255v-21h-390v21h81q0 2 0.5 4.5t0.5 4.5l3 14q7 31 23 79t35 106l20 59l40 123q26 78 40 143.5t16 98.5v16h-259v21zM20 505
q0 23 16.5 39.5t39.5 16.5t39.5 -16.5t16.5 -39.5t-16.5 -39.5t-39.5 -16.5t-39.5 16.5t-16.5 39.5zM130 165q0 23 16.5 39.5t39.5 16.5t39.5 -16.5t16.5 -39.5t-16.5 -39.5t-39.5 -16.5t-39.5 16.5t-16.5 39.5z" />
    <glyph glyph-name="ampersand" unicode="&#x26;" horiz-adv-x="279" 
d="M349 669v-21h-152l14 -24q-11 -3 -27.5 -12t-32.5 -24.5t-27.5 -37.5t-11.5 -51q3 -25 10.5 -43.5t18 -32.5t23 -24t23.5 -16q0 38 -5 61.5t-3 24.5h56q-1 0 -3 -21l-5 -54l-3 -77q-1 -11 -1 -21.5v-21.5v-90q0 -63 5 -112t5 -72h116v-21h-419v21h225q-15 8 -35.5 24
t-39.5 39.5t-32.5 52.5t-13.5 62q0 36 12.5 65.5t30.5 51t38 36t35 22.5l-14 16q-20 23 -38 57.5t-18 82.5q0 23 8 45t20 40.5t24.5 32t21.5 21.5h-224v21h419zM186 315q-22 -6 -43.5 -17t-39 -28.5t-28 -40t-10.5 -50.5q2 -33 15.5 -57t32 -41t38 -27t33.5 -15q3 27 3.5 65
t3.5 80v90q-1 11 -1 21v20h-4z" />
    <glyph glyph-name="quotesingle" unicode="'" horiz-adv-x="67" 
d="M69 648q-5 -16 -9.5 -29.5t-7 -28.5t-2.5 -33t3 -42h-36q5 39 1 74t-15 59h-73v21h207v-21h-68zM137 0v-21h-207v21h207z" />
    <glyph glyph-name="parenleft" unicode="(" horiz-adv-x="229" 
d="M299 669v-21h-95q-75 -60 -105.5 -141.5t-30.5 -191.5q0 -41 6.5 -87.5t21 -90.5t38 -80.5t57.5 -56.5h108v-21h-369v21l199 1q-21 20 -38 52.5t-29 73.5t-18 89t-6 100q0 122 27.5 207t63.5 123l2 2h-201v21h369z" />
    <glyph glyph-name="parenright" unicode=")" horiz-adv-x="229" 
d="M299 669v-21h-201l2 -2q36 -38 63.5 -123t27.5 -207q0 -52 -6 -100t-18 -89t-29 -73.5t-38 -52.5l199 -1v-21h-369v21h108q34 20 57.5 56.5t38 80.5t21 90.5t6.5 87.5q0 110 -30.5 191.5t-105.5 141.5h-95v21h369z" />
    <glyph glyph-name="asterisk" unicode="*" 
d="M159 205q-1 13 -7.5 33t-16.5 43q-11 -23 -17 -43t-7 -33l-50 28q12 11 24.5 26.5t24.5 33.5q-21 -2 -40.5 -5t-36.5 -9v56q13 -8 35 -11.5t47 -4.5q-13 22 -26.5 39t-27.5 25l50 28q2 -17 8.5 -35.5t15.5 -37.5q18 37 24 73l50 -28q-14 -8 -27.5 -24.5t-25.5 -37.5
q25 2 46.5 6t34.5 10v-56q-16 5 -35.5 8.5t-42.5 4.5q12 -19 24.5 -34.5t25.5 -26.5zM-70 648v21h407v-21h-407zM337 0v-21h-407v21h407z" />
    <glyph glyph-name="plus" unicode="+" 
d="M107 106q3 9 5.5 28t4.5 44.5t3 55.5t1 61q-27 -2 -51 -6t-37 -9v56q36 -12 88 -14q0 31 -1 60.5t-2.5 54.5t-4.5 44t-6 29h56q-5 -8 -8 -26.5t-5 -44t-3 -56t-1 -62.5q25 1 48.5 4.5t42.5 10.5v-56q-14 8 -38.5 12t-51.5 4q0 -33 1.5 -64t4 -56.5t5 -44t5.5 -25.5h-56z
M-70 648v21h407v-21h-407zM337 0v-21h-407v21h407z" />
    <glyph glyph-name="comma" unicode="," horiz-adv-x="167" 
d="M113 133q-13 -38 -14.5 -66.5t10.5 -66.5h128v-21h-307v21h133q14 32 9.5 69t-15.5 64h56zM-70 648v21h307v-21h-307z" />
    <glyph glyph-name="hyphen" unicode="-" 
d="M337 0v-21h-407v21h407zM-70 648v21h407v-21h-407zM33 336q20 -7 46.5 -10.5t54 -3.5t55 3t48.5 11v-56q-16 10 -44.5 13.5t-59 2.5t-58 -5.5t-42.5 -10.5v56z" />
    <glyph glyph-name="period" unicode="." horiz-adv-x="207" 
d="M277 0v-21h-347v21h347zM-70 648v21h347v-21h-347zM36 298l62 78l67 -66l-65 -78z" />
    <glyph glyph-name="slash" unicode="/" horiz-adv-x="250" 
d="M-70 669h390v-21h-77l-4 -22q-5 -30 -20.5 -79t-34.5 -107l-20 -60l-40 -123q-12 -35 -22.5 -71t-18.5 -68.5t-12.5 -59t-5.5 -43.5v-15h255v-21h-390v21h81q0 2 0.5 4.5t0.5 4.5l3 14q7 31 23 79t35 106l20 59l40 123q26 78 40 143.5t16 98.5v16h-259v21z" />
    <glyph glyph-name="zero" unicode="0" horiz-adv-x="321" 
d="M-70 669h461v-21h-206l6 -8q19 -24 37 -57.5t31.5 -74.5t21.5 -87.5t8 -95.5q0 -64 -12.5 -117t-30 -94t-35.5 -70t-28 -44h208v-21h-461v21h213l-8 11q-16 21 -33.5 54.5t-32 74.5t-24.5 88.5t-10 96.5q0 57 10 106t25 88.5t32.5 69.5t32.5 51l6 8h-211v21zM199 548
q-9 15 -18.5 27t-17.5 21q-19 -20 -36 -48.5t-30.5 -63t-21.5 -74.5t-8 -84q0 -47 9 -88t23.5 -75.5t31.5 -61.5t32 -45q17 18 34 46t30.5 63.5t22 76t8.5 84.5q0 69 -17 126.5t-42 95.5z" />
    <glyph glyph-name="one" unicode="1" horiz-adv-x="202" 
d="M-70 669h342v-21h-144q-2 -8 -4 -33t-3.5 -61t-2.5 -79.5t-1 -88.5v-125q0 -43 1 -86t2.5 -79t3.5 -62t4 -34h144v-21h-342v21h144q0 11 1 37t2.5 61t3.5 77t4 86v125q0 45 -1.5 87.5t-4 77.5t-4 60.5t-1.5 36.5h-144v21z" />
    <glyph glyph-name="two" unicode="2" horiz-adv-x="286" 
d="M356 669v-21h-231l1 -1q16 -18 35.5 -43.5t36 -57t27.5 -68t11 -76.5q0 -42 -8.5 -83.5t-22 -80.5t-30.5 -74.5t-33 -65.5l-39 -71l41 -2q29 0 50.5 2.5t46.5 10.5v-38h115v-21h-426v21h117v26l-6 5q31 37 60 81.5t52 92.5t37 98t14 98q-2 31 -10 59.5t-20 53.5
q-16 31 -35 52t-35 33.5t-26.5 19t-9.5 8.5l17 21h-155v21h426z" />
    <glyph glyph-name="three" unicode="3" horiz-adv-x="254" 
d="M324 669v-21h-210q9 -5 26 -17t34 -31t29.5 -43.5t12.5 -53.5v-12q0 -28 -10.5 -51t-26 -41t-32.5 -31.5t-29 -20.5q44 -26 74.5 -69t30.5 -100q0 -35 -13.5 -64t-32.5 -52t-40 -38.5t-35 -23.5h222v-21h-394v21h133l-13 33q14 3 37 12.5t45.5 27t40 43.5t19.5 63
q0 21 -6 39q-12 35 -34.5 55t-44.5 29.5t-38 12t-16 3.5l7 28l-8 28q9 -1 31 6t44.5 22.5t40 39t17.5 55.5q0 18 -7 34t-18 30q-18 22 -37.5 34t-35.5 18t-26.5 7t-10.5 2l10 26h-130v21h394z" />
    <glyph glyph-name="four" unicode="4" horiz-adv-x="324" 
d="M-70 669h464v-21h-114q-1 -3 -1 -7.5t-1 -10.5l-5 -76l-3 -107q-1 -29 -2 -60t0 -63q0 -61 1.5 -121.5t3.5 -108.5l5 -76q1 -6 1 -10.5t1 -7.5h114v-21h-464v21h296q0 17 4.5 69t4.5 121l-12 4q-28 11 -56 26.5t-51 38t-39.5 53.5t-20.5 74q-1 25 -1.5 42t-0.5 28v18v13
l-3 87l-5 61q-1 5 -1 8v5h-115v21zM88 388q3 -44 21.5 -71.5t42.5 -43t47.5 -22t36.5 -8.5v9t1 9v125l-2 61q0 36 -1.5 68.5t-3 59t-3 45.5t-1.5 28h-128q0 -2 -0.5 -5t-0.5 -8q-5 -29 -5.5 -83t-4.5 -114z" />
    <glyph glyph-name="five" unicode="5" horiz-adv-x="303" 
d="M373 669v-21h-117v-31q-29 11 -62.5 11h-69.5l-25 -3q-3 -32 -4 -62t-1 -60t0.5 -61t2.5 -66q2 -5 1 -8t7 -5q26 -14 50.5 -32t43 -40.5t30 -50.5t11.5 -62q-2 -36 -15.5 -65t-32 -51t-38.5 -37.5t-35 -24.5h254v-21h-443v21h149l-12 33q17 4 41 14.5t46.5 29t38 45.5
t15.5 64q0 15 -5 32q-16 37 -38.5 57t-45.5 30t-42 13t-28 6q5 17 8 43.5t5 58t1.5 64.5t-1.5 63.5t-4 55.5t-7 39h-121v21h443z" />
    <glyph glyph-name="six" unicode="6" horiz-adv-x="285" 
d="M355 669v-21h-119l14 -19q-9 -7 -25.5 -19t-36 -30.5t-39.5 -45t-37 -63.5l8 -7q56 -51 88 -115t37 -149q0 -65 -15.5 -114.5t-34.5 -78.5l-5 -7h165v-21h-425v21h216q-21 16 -40.5 47t-34 70.5t-23 83.5t-8.5 87q0 66 15.5 123t38.5 103.5t48.5 80.5t46.5 53h-259v21
h425zM134 391q-11 11 -22 18t-19 12l-6 -18q-8 -25 -11 -53t-4 -54q0 -47 9 -85.5t22.5 -69.5t30.5 -53.5t32 -36.5q17 19 31.5 59t14.5 90q0 58 -21.5 108.5t-56.5 82.5z" />
    <glyph glyph-name="seven" unicode="7" horiz-adv-x="317" 
d="M-70 669h457v-21h-127v-5l26 -24l-19 -19q-7 -9 -19.5 -24.5t-27 -38t-29 -53t-24.5 -68.5l-25 -90l-11 -62l-8 -61q-2 -29 -4 -56.5t-2 -51.5q0 -33 2 -57.5t2 -37.5h266v-21h-457v21h137q0 4 0.5 8.5t1.5 10.5l7 78q6 65 16 133.5t26.5 136t41.5 132.5t61 122
q-14 3 -32.5 4t-38.5 1q-18 0 -39 -1.5t-37 -3.5l-25 -5q-2 -1 -3.5 -1t-3.5 -1t-3 -1v35h-109v21z" />
    <glyph glyph-name="eight" unicode="8" horiz-adv-x="317" 
d="M387 669v-21h-191l11 -9q20 -17 37.5 -48t18.5 -65q0 -39 -17.5 -67.5t-37.5 -46.5l-10 -8l26 -30q26 -35 42 -82t16 -98q0 -38 -10 -68.5t-24.5 -54.5t-31.5 -42t-30 -29h201v-21h-457v21h199q-12 10 -28.5 27t-32 41t-26 55.5t-10.5 70.5q0 33 7.5 65t20 60t28 49.5
t30.5 35.5q-11 6 -22.5 18.5t-21 29t-15.5 35.5t-6 39q0 19 5.5 36t13.5 31.5t17.5 25.5t18.5 20l12 9h-190v21h457zM232 287q-14 34 -35.5 55.5t-38.5 31.5q-16 -10 -32 -25.5t-29 -37t-22 -48t-11 -57.5q0 -38 10 -66t24.5 -48t30.5 -32.5t29 -18.5q41 20 67 63.5
t26 101.5q0 20 -5.5 42t-13.5 39zM216 574q-14 18 -29.5 28.5t-28.5 14.5q-31 -9 -50.5 -34.5t-23.5 -56.5q0 -21 8 -37.5t20 -27.5t24.5 -17.5t21.5 -9.5q12 3 24.5 10.5t23.5 19t18 27t7 35.5q0 12 -4 24t-11 24z" />
    <glyph glyph-name="nine" unicode="9" horiz-adv-x="291" 
d="M-70 669h431v-21h-116q-1 -3 -1 -7.5t-1 -10.5l-5 -76q-2 -48 -3.5 -107t-1.5 -123q0 -31 0.5 -62.5t1.5 -60.5l3 -107l5 -76q1 -6 1 -10.5t1 -7.5h116v-21h-431v21h261q0 9 1 31t2.5 51.5t3 65t3.5 72.5l-12 5q-16 8 -42.5 25t-52 43.5t-44 63t-18.5 83.5q0 45 16.5 79
t39 59.5t46.5 42.5t38 27h-242v21zM194 602q-25 -11 -47.5 -26t-40.5 -35t-29.5 -45t-13.5 -56q0 -40 16 -69t37.5 -48.5t43 -29.5t33.5 -13l9 -3v109l-2 61q-1 29 -1 56.5t-2 50.5z" />
    <glyph glyph-name="colon" unicode=":" horiz-adv-x="207" 
d="M277 0v-21h-347v21h347zM-70 648v21h347v-21h-347zM36 196l62 78l67 -66l-65 -78zM36 436l62 78l67 -66l-65 -78z" />
    <glyph glyph-name="semicolon" unicode=";" horiz-adv-x="207" 
d="M130 223q-6 -19 -10 -47.5t-4.5 -60t2 -62.5t8.5 -53h151v-21h-347v21h149q7 20 9.5 52t1.5 65.5t-5.5 62.5t-10.5 43h56zM36 436l62 78l67 -66l-65 -78zM-70 648v21h347v-21h-347z" />
    <glyph glyph-name="less" unicode="&#x3c;" horiz-adv-x="249" 
d="M319 669v-21h-119l18 -11l-157 -317l156 -308l-16 -12h118v-21h-389v21l239 1l-141 315l143 332h-241v21h389z" />
    <glyph glyph-name="equal" unicode="=" 
d="M337 0v-21h-407v21h407zM-70 648v21h407v-21h-407zM33 276q20 -7 46.5 -10.5t54 -3.5t55 3t48.5 11v-56q-16 10 -44.5 13.5t-59 2.5t-58 -5.5t-42.5 -10.5v56zM33 396q20 -7 46.5 -10.5t54 -3.5t55 3t48.5 11v-56q-16 10 -44.5 13.5t-59 2.5t-58 -5.5t-42.5 -10.5v56z
" />
    <glyph glyph-name="greater" unicode="&#x3e;" horiz-adv-x="249" 
d="M319 669v-21h-241l143 -332l-141 -315l239 -1v-21h-389v21h118l-16 12l156 308l-157 317l18 11h-119v21h389z" />
    <glyph glyph-name="question" unicode="?" horiz-adv-x="226" 
d="M296 669v-21h-180q30 -23 53 -67t23 -99q0 -26 -5 -57t-13.5 -63.5t-20 -65t-23.5 -60.5l-25 -57q-2 -5 -4 -9t-3 -7q-2 -4 -2 -6l-49 28q1 1 10 13t22 33t27 48.5t26 59t20 65t8 66.5q0 49 -15.5 78.5t-34.5 45.5q-22 18 -50 26l13 28h-143v21h366zM119 36
q0 -11 -7.5 -20t-15.5 -16h200v-21h-366v21h140q-8 7 -14.5 16t-6.5 20q0 8 5.5 16.5t12.5 15.5q8 8 18 15q9 -7 17 -15q6 -7 11.5 -15.5t5.5 -16.5z" />
    <glyph glyph-name="at" unicode="@" horiz-adv-x="346" 
d="M416 669v-21h-209l2 -3q15 -37 33 -103t23 -146l2 -33v-16t1 -16v-64l2 -101q22 3 33 5t12 2v-56q-1 0 -12 2.5t-31 4.5q0 -43 3.5 -76t3.5 -48h137v-21h-486v21h134q2 10 5 46t3 79l-30 -5q-3 -1 -5.5 -1t-4.5 -1t-3 -1v56q4 -1 11 -2q5 -1 13.5 -2t19.5 -3q3 44 3.5 95
t0.5 102l2 33q3 42 9 80t14.5 69.5t17 56.5t15.5 43l2 3h-207v21h486zM225 453q-8 51 -23.5 90t-29.5 64q-10 -17 -21 -43t-20.5 -57.5t-15.5 -68.5t-6 -76l-2 -32l2 -125v-21t1 -21l35 -2h53l36 2q2 32 2.5 66.5t0.5 68.5q0 16 -0.5 32t-1.5 32l-2 31q-1 16 -3.5 31
t-4.5 29zM232 96q0 8 0.5 16t0.5 16h-9q-12 2 -25 2h-27h-26t-26 -2h-9q0 -44 3.5 -78.5t3.5 -49.5h107q3 11 4 37t3 59z" />
    <glyph glyph-name="A" unicode="A" horiz-adv-x="306" 
d="M8 276q13 -5 49 -8v95l2 33q3 42 9 80t14.5 69.5t17 56.5t15.5 43l2 3h-187v21h446v-21h-189l2 -3q15 -37 33 -103t23 -146l2 -33v-16t1 -16v-63q15 2 26.5 3.5t18.5 4.5v-56q-12 6 -45 9l2 -63q22 3 33 5t12 2v-56q-1 0 -12 2.5t-31 4.5q0 -43 3.5 -76t3.5 -48h117v-21
h-446v21h114q2 10 5 46t3 79l-30 -5q-3 -1 -5.5 -1t-4.5 -1t-3 -1v56q4 -1 11 -2q5 -1 13.5 -2t19.5 -3l3 62q-36 -3 -48 -8v56zM205 453q-8 51 -23.5 90t-29.5 64q-10 -17 -21 -43t-20.5 -57.5t-15.5 -68.5t-6 -76l-2 -32l1 -64q30 -2 64.5 -2t64.5 2v32q0 16 -0.5 32
t-1.5 32l-2 31q-1 16 -3.5 31t-4.5 29zM212 96q0 8 0.5 16t0.5 16h-9q-12 2 -25 2h-27h-26t-26 -2h-9q0 -44 3.5 -78.5t3.5 -49.5h107q3 11 4 37t3 59zM217 232q-30 2 -64 1t-65 -3l1 -25v-21t1 -21l35 -2h53l36 2z" />
    <glyph glyph-name="B" unicode="B" horiz-adv-x="272" 
d="M342 669v-21h-220l17 -11q13 -8 27.5 -21t27.5 -30.5t21.5 -38t8.5 -43.5q0 -26 -8.5 -46.5t-21.5 -37t-27.5 -29t-27.5 -21.5l-3 -3l14 -10q32 -23 55.5 -65.5t24.5 -90.5q0 -41 -12.5 -73.5t-30.5 -57t-39 -42t-38 -28.5h232v-21h-412v21h110q1 3 1 7.5t1 10.5l5 76
l3 107q0 30 1 61t1 62q0 32 -0.5 63t-1.5 60l-3 107l-5 76q-1 6 -1 10.5t-1 7.5h-110v21h412zM177 272q-19 31 -44.5 47t-45.5 21q-2 0 -4 -2v-77l2 -60q1 -29 1 -56.5t2 -50.5l3 -50q42 17 73 56t35 92q0 44 -22 80zM88 554q-2 -23 -3 -50.5t-1 -56.5v-51l4 -2q12 3 30 11
t34.5 22t28.5 33.5t12 43.5q-2 21 -10 36.5t-19.5 27.5t-24 20t-22.5 14l-23 10q-1 0 -1.5 0.5t-1.5 0.5z" />
    <glyph glyph-name="C" unicode="C" horiz-adv-x="249" 
d="M319 669v-21h-119l18 -21q-25 -17 -52.5 -46t-51 -68t-38.5 -87.5t-15 -105.5q0 -43 10.5 -88.5t31 -86.5t49.5 -73.5t65 -49.5l-16 -22h118v-21h-389v21l229 1q-21 20 -44.5 52.5t-42.5 73.5t-31.5 89t-12.5 100q0 61 13.5 113t34 94t43 73t40.5 50l2 2h-231v21h389z
" />
    <glyph glyph-name="D" unicode="D" horiz-adv-x="277" 
d="M-70 669h417v-21h-247l7 -6q21 -20 45.5 -50.5t44.5 -69.5t33.5 -86t13.5 -99q0 -59 -14 -110.5t-35 -93.5t-45 -74t-43 -51l-8 -8h248v-21h-417v21h108q1 3 1 7.5t1 10.5l5 76l3 107q1 23 1.5 48.5t0.5 50.5q0 49 -1 105t-2.5 106t-3.5 87.5t-5 49.5h-108v21zM81 261
l2 -60q0 -61 3 -107l2 -36q22 19 44.5 46.5t40.5 62t29 75t11 84.5q0 52 -12 94.5t-30.5 75.5t-40.5 57t-42 40l-2 -39q-3 -47 -3 -107l-2 -61v-125z" />
    <glyph glyph-name="E" unicode="E" horiz-adv-x="259" 
d="M329 669v-21h-106l16 -17q-18 -13 -42 -38.5t-46 -62t-38.5 -84.5t-19.5 -106h40q25 0 46 3.5t32 5.5l9 3v-56q-11 5 -36 6t-51 6h-40q3 -63 19 -114q14 -46 35.5 -79t41.5 -55t34.5 -32.5l14.5 -10.5l-15 -17h106v-21h-399v21h248q-17 19 -37 50t-37.5 70.5t-29.5 86.5
t-12 99l-23 -3q-14 -2 -23.5 -5t-10.5 -2v56q1 -1 3 -1q2 -1 3.5 -1t3.5 -1l24 -5l23 -2q4 66 21.5 126.5t45.5 106.5q5 8 12 20t14.5 23.5t14 20t9.5 9.5h-249v21h399z" />
    <glyph glyph-name="F" unicode="F" horiz-adv-x="287" 
d="M-70 669h427v-21h-127l18 -12q-12 -15 -30 -40t-34.5 -59.5t-28.5 -78t-12 -95.5v-23h21q32 0 59 5.5t29 6.5v-56q-14 5 -37.5 6.5t-50.5 5.5h-21v-41q2 -44 4 -86t3.5 -78t2.5 -63t1 -40h203v-21h-427v21h170q1 3 1 8t1 10l5 78l3 109v31t1 31v40h-6q-26 -2 -47 -6
t-21 -5v56l34 -8l40 -3v22q0 49 8 91.5t20 77.5t25 62.5t23 46.5l4 7h-261v21z" />
    <glyph glyph-name="G" unicode="G" horiz-adv-x="287" 
d="M357 669v-21h-161l15 -18q-24 -17 -50.5 -45.5t-49 -67.5t-37 -88.5t-14.5 -109.5q2 -34 8 -67.5t18 -62.5q16 -36 33 -60.5t32.5 -40.5t29 -25t22.5 -14l2 14q2 25 3.5 57t1.5 65q0 37 -2 69t-4 56t-4 38.5t-3 14.5h56q0 2 -2 -12.5t-4.5 -39t-4 -57.5t-1.5 -69
q0 -52 1 -98t13 -87h102v-21h-427v21h257l-3 2q-32 22 -60.5 56t-49.5 76.5t-33 92.5t-12 104q0 56 12.5 105.5t31 90t39.5 71.5t39 50h-221v21h427z" />
    <glyph glyph-name="H" unicode="H" horiz-adv-x="369" 
d="M28 403q13 -5 49 -8q0 31 -3 70q-20 -3 -33.5 -5t-15.5 -3v56q-2 0 12 -2t36 -5v12t-1 22t-2 36t-3 54q-1 6 -1 10.5t-1 7.5h-135v21h509v-21h-140q-2 -10 -3 -41t-5 -101h1q20 3 34 4.5t15 2.5v-56q-1 2 -15 3.5t-34 4.5h-2q0 -12 -0.5 -19.5t-0.5 -15t-0.5 -15.5
t-0.5 -20l31.5 3.5t21.5 4.5v-56q-14 7 -53 10v-96q0 -45 1.5 -87.5t4 -78t4 -60.5t1.5 -35h140v-21h-509v21h135q1 3 1 7.5t1 10.5l5 76l3 107q0 30 1 64.5t1 65.5v24q-38 -3 -49 -8v56zM245 0q0 11 1.5 36.5t4 60.5t4 77t1.5 87v98q-35 2 -74.5 1t-73.5 -3v-96l2 -60
q0 -36 1.5 -68.5t3 -59t3 -45.5t1.5 -28h126zM119 648q0 -32 -3.5 -66t-3.5 -79q24 -2 40.5 -2h30.5h31.5t38.5 2l-8 145h-126zM110 468v-21.5v-16t-0.5 -15.5t-1.5 -21q34 -2 73.5 -2.5t74.5 1.5q0 13 -0.5 21.5t-0.5 16t-0.5 16t-0.5 21.5q-23 2 -39 2h-32h-30.5t-42.5 -2
z" />
    <glyph glyph-name="I" unicode="I" 
d="M-70 669h407v-21h-93v-38q-1 0 -24.5 5.5t-57.5 5.5q0 -10 -1.5 -28.5t-3 -42.5t-3 -53.5t-1.5 -60.5l-2 -55v-114l2 -56q0 -33 1.5 -62.5t3 -54t3 -42t1.5 -25.5h14q26 2 47 6t21 5v-38h93v-21h-407v21h99v38q5 -2 25 -5.5t43 -5.5h11q1 3 1 7.5t1 9.5l5 69l3 98
q1 27 2 55.5t0 57.5q0 55 -1.5 110.5t-3.5 100.5l-5 69q-1 5 -1 9.5t-1 7.5q-12 0 -25.5 -1.5t-25 -3.5t-19.5 -4t-9 -2v38h-99v21z" />
    <glyph glyph-name="J" unicode="J" horiz-adv-x="306" 
d="M-70 669h446v-21h-110v-39q0 -1 -8 2t-23 5l-13 2v-3.5t-0.5 -11.5t-2 -26t-3.5 -48l-3 -111q-1 -15 -1 -30.5v-31.5q0 -41 -3 -72t-9 -60q-9 -44 -24.5 -79t-33.5 -63t-36 -48.5t-31 -33.5h301v-21h-446v21h103l-16 23l24 14q10 7 24.5 19.5t29.5 29.5t29.5 39t25.5 49
q9 24 15 45t9.5 42t4.5 44t1 51q-2 42 -2.5 83.5t-1.5 77.5t-2.5 63.5t-4.5 40.5h-18q-3 0 -15 -1.5t-25.5 -3.5t-25.5 -4t-13 -3v39h-142v21z" />
    <glyph glyph-name="K" unicode="K" horiz-adv-x="327" 
d="M397 669v-21h-103l9 -7q1 -1 -7 -5.5t-22 -16.5q-12 -11 -20.5 -18.5t-20.5 -18t-30 -27.5t-49 -45q20 -20 38 -47.5t33 -59.5q16 -36 30.5 -89.5t26 -109.5t20 -106.5t13.5 -80.5l3 -17h79v-21h-467v21h122q1 3 1 7.5t1 10.5l5 76l3 107q0 30 1 61t1 62q0 32 -0.5 63
t-1.5 60l-3 107l-5 76q-1 6 -1 10.5t-1 7.5h-122v21h467zM194 388q-21 43 -48 69t-48 37l-2 -47q-1 -15 0 -30t-1 -31l2 -185q0 -36 1.5 -68.5t3 -59t3 -45.5t1.5 -28h158v13v50t-5.5 92.5t-20 115t-44.5 117.5zM163 566q30 17 48.5 40.5t33.5 41.5h-139q0 -11 -2.5 -35.5
t-3.5 -58.5l18 -14z" />
    <glyph glyph-name="L" unicode="L" horiz-adv-x="246" 
d="M-70 669h386v-21h-217q0 -9 -1.5 -28t-3 -45.5t-3 -59t-1.5 -68.5v-246q0 -53 2.5 -97t4.5 -73q10 7 24 15l67 51q11 8 20.5 17t16.5 17q8 9 15 18l34 -45q2 1 -18 -7t-47 -28q-25 -18 -40 -28.5t-28 -21.5l-21 -19h196v-21h-386v21h115q1 3 1 7.5t1 10.5l5 76l3 107
q1 29 2 60.5t0 62.5q0 61 -1.5 121.5t-3.5 108.5l-5 76q-1 6 -1 10.5t-1 7.5h-115v21z" />
    <glyph glyph-name="M" unicode="M" horiz-adv-x="395" 
d="M465 669v-21h-114q0 -10 -1.5 -35.5t-4 -61t-4 -78t-1.5 -87.5v-125q0 -45 1.5 -87.5t4 -78t4 -60.5t1.5 -35h114v-21h-535v21h110q1 3 1 7.5t1 10.5l5 76l3 107q0 30 1 61t1 62q0 32 -0.5 63t-1.5 60l-3 107l-5 76q-1 6 -1 10.5t-1 7.5h-110v21h535zM126 564
q-8 13 -17.5 22.5t-17.5 16.5l-3 -49q-2 -35 -2.5 -79t-2.5 -89l2 -185q0 -36 1.5 -68.5t3 -59t3 -45.5t1.5 -28h83l2 19q2 24 3 64.5t2 91.5q0 49 -1 98t-6 99l-8 63q-3 34 -15.5 70.5t-27.5 58.5zM298 575q-3 -5 -6.5 -9.5t-6.5 -9.5l-24 -40q-20 -32 -33 -65.5t-21 -52.5
l2 -23q5 -53 9 -112t7 -112.5t4.5 -94t1.5 -56.5h66q0 11 1.5 36.5t4 60.5t4 77t1.5 87v125q0 54 -3 106t-3 89zM113 648q26 -25 49 -67.5t34 -101.5q16 11 30.5 32.5t27.5 46t23 48.5t17 42h-181z" />
    <glyph glyph-name="N" unicode="N" horiz-adv-x="355" 
d="M-70 669h495v-21h-111q0 -11 -1 -36.5t-2.5 -61t-3.5 -78t-4 -86.5q0 -56 1.5 -118t4 -117t4 -96t1.5 -55h111v-21h-495v21h116q0 11 1 37t2.5 61t3.5 77t4 86q0 57 -1.5 119t-4 116.5t-4 95.5t-1.5 56h-116v21zM104 648q5 -14 15.5 -31t24.5 -37q4 -7 18 -25.5t32.5 -39
t38.5 -38t37 -21.5q-1 34 -2 65.5t-2 57t-2.5 43.5t-3.5 26h-156zM89 386q0 -15 -0.5 -30.5t-0.5 -31.5q0 -49 1 -102t2.5 -98.5t3.5 -79.5t5 -44h160q3 10 5 43t3.5 78t2.5 98t1 105v23v25t-1 21t-4 12q-21 9 -43 29.5t-44 46.5t-44 53.5t-41 50.5q-4 -36 -5 -89.5
t-1 -109.5z" />
    <glyph glyph-name="O" unicode="O" horiz-adv-x="318" 
d="M388 669v-21h-197q23 -23 40 -61t28.5 -83.5t17 -96.5t5.5 -100q0 -107 -20.5 -183.5t-52.5 -117.5q-4 -4 -5 -6h184v-21h-458v21h197q-24 23 -41.5 62t-29 87t-17 101t-5.5 104q0 46 6 92t16.5 85t24.5 69.5t31 47.5h-182v21h458zM199 556q-13 24 -25.5 37t-21.5 22
q-24 -24 -40.5 -57.5t-26.5 -71.5t-14.5 -80.5t-4.5 -84.5q4 -83 17 -135t28.5 -83t30.5 -46t23 -22q2 1 6 5q21 20 36.5 51.5t25 70t14 81.5t4.5 85q-2 28 -5.5 59t-9.5 61t-15 57.5t-22 50.5zM114 318l45 79l48 -67l-47 -79z" />
    <glyph glyph-name="P" unicode="P" horiz-adv-x="274" 
d="M-70 669h414v-21h-233q27 -14 50.5 -40t41.5 -60.5t28.5 -76t10.5 -84.5q0 -21 -1.5 -40t-3.5 -35q-9 -59 -30.5 -99t-45.5 -66.5t-45.5 -40t-29.5 -17.5q1 -32 3.5 -55t2.5 -34h252v-21h-414v21h108q2 8 4 33t3.5 61t2.5 79t1 88q0 58 -1.5 120.5t-4 117t-4 95
t-1.5 54.5h-108v21zM81 386v-122t3 -119q21 7 43.5 27t41 50t30.5 69t12 85q0 57 -13.5 98t-33 68t-40.5 42t-35 20q-2 -38 -5 -96.5t-3 -121.5z" />
    <glyph glyph-name="Q" unicode="Q" horiz-adv-x="302" 
d="M372 669v-21h-188q24 -24 41 -62.5t28.5 -85t16.5 -97t5 -99.5q0 -59 -9 -112.5t-24 -95.5q-3 -9 -8.5 -21.5t-11.5 -24.5t-11.5 -20.5t-9.5 -9.5q12 0 23.5 1.5t21 3.5t15.5 3.5t7 1.5v-30h104v-21h-442v21h123v30q4 -2 21 -5t40 -5q-20 21 -35 54t-26 73.5t-17.5 87
t-8.5 93.5q0 51 5 100.5t14.5 92t24 75.5t33.5 52h-174v21h442zM192 558q-14 24 -26.5 36t-21.5 21q-37 -37 -61.5 -106t-24.5 -162q0 -70 11.5 -123t27.5 -90t33 -57.5t28 -26.5q16 16 31.5 41.5t27.5 59t19 75.5t7 91q0 30 -3.5 63t-10 65t-16 61t-21.5 52zM106 318l45 79
l48 -67l-47 -79z" />
    <glyph glyph-name="R" unicode="R" horiz-adv-x="268" 
d="M-70 669h408v-21h-239q30 -15 56.5 -41t46 -61t31 -77t11.5 -89v-21q0 -29 -5.5 -58.5t-15 -58t-23.5 -53.5t-31 -44q3 -11 10 -24t14 -29q2 -4 11.5 -19t20 -31.5t19 -29.5t10.5 -11l-2 -1h86v-21h-408v21h110q3 19 5.5 69t3.5 115.5t1 139t-1 139t-3.5 115.5t-5.5 70
h-110v21zM83 386v-126t3 -122q5 3 10.5 5.5t12.5 6.5q19 11 37.5 31t33.5 48t24 63t9 77q0 62 -14.5 103.5t-35 68t-41 39.5t-32.5 17q-3 -38 -3.5 -94.5t-3.5 -116.5zM174 61q-6 11 -16.5 26t-20.5 26q-14 -13 -26 -19.5t-23 -11.5q2 -29 4 -51t2 -31h106q-2 2 -5 9
t-6.5 16.5l-7 19t-7.5 16.5z" />
    <glyph glyph-name="S" unicode="S" horiz-adv-x="205" 
d="M-70 669h345v-21h-134l18 -13q1 -1 -11 -13t-28 -37q-5 -7 -13 -20t-15.5 -30t-12.5 -36.5t-5 -38.5q0 -38 13 -70.5t28.5 -63t29 -62t15.5 -67.5q0 -34 -7 -64t-17 -55t-20.5 -45t-17.5 -33h177v-21h-345v21h115l-8 5q-3 -1 10 12.5t30 39t32.5 61t16.5 79.5
q0 35 -13.5 67t-30 63.5t-30 64.5t-13.5 70q0 26 7 52.5t17 51t20.5 46t18.5 36.5h-172v21z" />
    <glyph glyph-name="T" unicode="T" horiz-adv-x="322" 
d="M-70 669h462v-21h-90l-36 -48q-12 12 -30 20.5t-49 13.5q0 -15 -1.5 -40.5t-3.5 -58.5t-3.5 -72t-1.5 -81q0 -50 1.5 -110t4 -115t4 -98t1.5 -59h204v-21h-462v21h204q3 11 5 36.5t3.5 61t2 77t0.5 84.5q0 57 -1.5 115.5t-3.5 110t-3.5 91t-1.5 59.5q-19 -3 -42.5 -9.5
t-33.5 -25.5l-41 48h-88v21z" />
    <glyph glyph-name="U" unicode="U" horiz-adv-x="308" 
d="M-70 669h448v-21h-105q0 -18 -0.5 -28.5t-1.5 -23t-2 -31t-2 -52.5t-1.5 -88t-0.5 -137q0 -77 0.5 -123.5t1.5 -73t2 -38t2 -17.5t1.5 -12.5t0.5 -23.5h105v-21h-448v21h257q-17 8 -34.5 23t-33.5 34.5t-29.5 43.5t-21.5 50q-7 21 -11 61t-6.5 88.5t-4 101t-2.5 98t-2 80
t-3 47.5q0 7 -0.5 12t-0.5 9h-108v21zM92 648q-5 -63 -7.5 -124t-2.5 -134q0 -89 5.5 -142t13 -82t15 -40t10.5 -16q3 -4 4 -5.5t3.5 -4.5t8.5 -9.5t18 -18.5q17 -14 33 -22t29 -12q1 10 1.5 26.5t1.5 52.5t1.5 98t0.5 163v64.5v54.5t-0.5 39t-0.5 18q-2 35 -3.5 60t-3.5 34
h-127z" />
    <glyph glyph-name="V" unicode="V" horiz-adv-x="302" 
d="M-70 669h442v-21h-90q-5 -25 -9 -91.5t-11 -151.5q-2 -9 -4 -27.5t-5.5 -41t-9 -47t-14.5 -46.5q-12 -42 -28.5 -79t-34 -68t-34 -55t-27.5 -41h267v-21h-442v21h117q0 11 1 37t2.5 61t3.5 77t4 86q0 56 -1.5 118.5t-4 117t-4 96t-1.5 55.5h-117v21zM90 386
q0 -15 -0.5 -30.5t-0.5 -31.5v-62.5t0.5 -69.5t2 -67t4.5 -55q16 22 39 53t41 72q8 14 18 49t18.5 81.5t14.5 98.5t6 99q0 37 -2.5 72.5t-2.5 52.5h-127q-2 -8 -4 -33t-3.5 -61t-2.5 -79.5t-1 -88.5z" />
    <glyph glyph-name="W" unicode="W" horiz-adv-x="428" 
d="M-70 669h568v-21h-102q-3 -14 -5.5 -48t-5.5 -80.5t-6.5 -101t-8.5 -108.5l-5 -33q-2 -26 -8.5 -50.5t-11.5 -44.5q-10 -36 -24.5 -65t-29 -51.5t-27 -39t-17.5 -26.5h251v-21h-568v21h247q-16 15 -40.5 43t-44.5 74q-7 20 -12 30.5t-9 27t-8.5 46t-9.5 86.5
q-7 51 -10.5 104.5t-5 101t-2.5 83.5t-4 52h-101v21zM229 386v-77t0.5 -89t2 -86.5t4.5 -70.5q38 42 60.5 93.5t37.5 125.5l5 32q5 46 7 93.5t2 90.5q0 51 -3 92t-3 58h-102q0 -11 -1 -36.5t-2.5 -61t-3.5 -78t-4 -86.5zM79 549q0 -12 -0.5 -25.5t-0.5 -27.5
q0 -110 7 -184.5t21.5 -124t35.5 -80t49 -53.5q0 24 1 55t2.5 66t2.5 73t1 76q0 49 -1 102t-2.5 98.5t-3.5 79t-5 44.5h-101q0 -13 -2.5 -38.5t-3.5 -60.5z" />
    <glyph glyph-name="X" unicode="X" horiz-adv-x="292" 
d="M-70 0h104q3 9 9.5 29t16.5 47.5t24 60.5t33 67l12 23q-17 58 -31 119.5t-25 118.5t-19.5 105t-14.5 78h-109v21h432v-21h-110q-3 -17 -7 -61t-12 -102.5t-24 -126.5t-43 -132q21 -38 37.5 -75t28 -68t17.5 -53.5t8 -29.5h105v-21h-432v21zM180 381q11 62 15 121.5
t4 101.5q0 14 -0.5 25.5t-0.5 18.5h-105q0 -19 1.5 -58t7.5 -90.5t17 -110.5t30 -119q10 27 17.5 54.5t13.5 56.5zM202 0q0 9 -3.5 28.5t-10 44.5t-17 55t-24.5 60q-26 -52 -38.5 -99.5t-17.5 -76.5l-2 -12h113z" />
    <glyph glyph-name="Y" unicode="Y" horiz-adv-x="286" 
d="M-70 669h426v-21h-101q0 -17 -4.5 -54t-7.5 -82t-9.5 -84.5t-16.5 -77t-23.5 -73.5t-31.5 -74q1 -34 2.5 -65.5t3 -58.5t3 -47t1.5 -32h184v-21h-426v21h188q2 10 3.5 30.5t2.5 48t2 61t2 69.5q-24 45 -42 83t-29 85q-9 46 -13.5 89.5t-6.5 79.5t-3.5 62.5t-3.5 39.5
h-100v21zM79 552q0 -50 3 -91t10 -77t19 -68t30 -62q29 39 48.5 103.5t19.5 156.5q0 48 -3.5 84.5t-3.5 49.5h-118q0 -13 -2 -38t-3 -58z" />
    <glyph glyph-name="Z" unicode="Z" horiz-adv-x="302" 
d="M-70 669h442v-21h-112v-10l19 -21q0 -1 -6 -4.5t-15 -12.5q-47 -45 -79 -101.5t-52 -119.5t-29.5 -130.5t-10.5 -134.5q-2 -23 -1.5 -47t0.5 -39q17 -4 40.5 -5t47.5 0.5t46.5 5t39.5 9.5v-38h112v-21h-442v21h108l-3 10q2 27 7 65t12 83t15.5 94t17.5 96q5 16 6 21.5
t3 9.5q25 83 56.5 145.5t56.5 94.5q-24 3 -60 3q-10 0 -28 -1.5l-36 -3t-32 -4t-15 -3.5v38h-108v21z" />
    <glyph glyph-name="bracketleft" unicode="[" horiz-adv-x="229" 
d="M299 669v-21h-95q-46 -26 -73 -49.5t-41 -58t-18 -87.5t-4 -138q0 -81 8 -133t24.5 -85.5t41.5 -55t59 -41.5h98v-21h-369v21l199 1q-21 20 -38 41t-29 54.5t-18 85t-6 134.5q0 91 5.5 149t17 94t29 55.5t41.5 33.5h-201v21h369z" />
    <glyph glyph-name="backslash" unicode="\" horiz-adv-x="254" 
d="M-70 669h394v-21h-259v-16q2 -26 10.5 -74.5t26.5 -107.5l18 -60q2 -8 5 -16.5t7.5 -22t11.5 -33.5t17 -51l10 -30t10 -29l35 -107q11 -35 17 -64t10 -37h81v-21h-394v21h259v4q0 25 -10.5 77.5t-30.5 115.5l-38 122q-6 15 -10.5 30.5t-9.5 30.5l-55 167q-7 24 -12 44
t-8 35l-4 22h-81v21z" />
    <glyph glyph-name="bracketright" unicode="]" horiz-adv-x="229" 
d="M299 669v-21h-201q24 -14 41.5 -33.5t29 -55.5t17 -94t5.5 -149q0 -83 -6 -134.5t-18 -85t-29 -54.5t-38 -41l199 -1v-21h-369v21h98q34 20 59 41.5t41.5 55t24.5 85.5t8 133q0 85 -4 138t-18 87.5t-41 58t-73 49.5h-95v21h369z" />
    <glyph glyph-name="asciicircum" unicode="^" 
d="M160 648q7 -29 28.5 -45t54.5 -32l-66 -9q-3 14 -8 22.5t-10.5 14t-11 8.5t-8.5 6q-6 -5 -18.5 -14.5t-18.5 -36.5l-66 9q32 16 53.5 32t28.5 45h-188v21h407v-21h-177zM337 0v-21h-407v21h407z" />
    <glyph glyph-name="underscore" unicode="_" 
d="M337 0v-21h-407v21h407zM-70 648v21h407v-21h-407zM33 96q20 -7 46.5 -10.5t54 -3.5t55 3t48.5 11v-56q-16 10 -44.5 13.5t-59 2.5t-58 -5.5t-42.5 -10.5v56z" />
    <glyph glyph-name="grave" unicode="`" horiz-adv-x="244" 
d="M58 753q29 -12 48.5 -21.5t33 -20t24 -23t21.5 -30.5h-46l-8 30l-66 10z" />
    <glyph glyph-name="a" unicode="a" horiz-adv-x="306" 
d="M376 669v-21h-189l2 -3q15 -37 33 -103t23 -146l2 -33v-16t1 -16v-64l2 -101q22 3 33 5t12 2v-56q-1 0 -12 2.5t-31 4.5q0 -43 3.5 -76t3.5 -48h117v-21h-446v21h114q2 10 5 46t3 79l-30 -5q-3 -1 -5.5 -1t-4.5 -1t-3 -1v56q4 -1 11 -2q5 -1 13.5 -2t19.5 -3q3 44 3.5 95
t0.5 102l2 33q3 42 9 80t14.5 69.5t17 56.5t15.5 43l2 3h-187v21h446zM205 453q-8 51 -23.5 90t-29.5 64q-10 -17 -21 -43t-20.5 -57.5t-15.5 -68.5t-6 -76l-2 -32l2 -125v-21t1 -21l35 -2h53l36 2q2 32 2.5 66.5t0.5 68.5q0 16 -0.5 32t-1.5 32l-2 31q-1 16 -3.5 31
t-4.5 29zM212 96q0 8 0.5 16t0.5 16h-9q-12 2 -25 2h-27h-26t-26 -2h-9q0 -44 3.5 -78.5t3.5 -49.5h107q3 11 4 37t3 59z" />
    <glyph glyph-name="b" unicode="b" horiz-adv-x="272" 
d="M342 669v-21h-220l17 -11q13 -8 27.5 -21t27.5 -30.5t21.5 -38t8.5 -43.5q0 -26 -8.5 -46.5t-21.5 -37t-27.5 -29t-27.5 -21.5l-3 -3l14 -10q32 -23 55.5 -65.5t24.5 -90.5q0 -41 -12.5 -73.5t-30.5 -57t-39 -42t-38 -28.5h232v-21h-412v21h110q1 3 1 7.5t1 10.5l5 76
l3 107q0 30 1 61t1 62q0 32 -0.5 63t-1.5 60l-3 107l-5 76q-1 6 -1 10.5t-1 7.5h-110v21h412zM177 272q-19 31 -44.5 47t-45.5 21q-2 0 -4 -2v-77l2 -60q1 -29 1 -56.5t2 -50.5l3 -50q42 17 73 56t35 92q0 44 -22 80zM88 554q-2 -23 -3 -50.5t-1 -56.5v-51l4 -2q12 3 30 11
t34.5 22t28.5 33.5t12 43.5q-2 21 -10 36.5t-19.5 27.5t-24 20t-22.5 14l-23 10q-1 0 -1.5 0.5t-1.5 0.5z" />
    <glyph glyph-name="c" unicode="c" horiz-adv-x="249" 
d="M319 669v-21h-119l18 -21q-25 -17 -52.5 -46t-51 -68t-38.5 -87.5t-15 -105.5q0 -43 10.5 -88.5t31 -86.5t49.5 -73.5t65 -49.5l-16 -22h118v-21h-389v21l229 1q-21 20 -44.5 52.5t-42.5 73.5t-31.5 89t-12.5 100q0 61 13.5 113t34 94t43 73t40.5 50l2 2h-231v21h389z
" />
    <glyph glyph-name="d" unicode="d" horiz-adv-x="277" 
d="M-70 669h417v-21h-247l7 -6q21 -20 45.5 -50.5t44.5 -69.5t33.5 -86t13.5 -99q0 -59 -14 -110.5t-35 -93.5t-45 -74t-43 -51l-8 -8h248v-21h-417v21h108q1 3 1 7.5t1 10.5l5 76l3 107q1 23 1.5 48.5t0.5 50.5q0 49 -1 105t-2.5 106t-3.5 87.5t-5 49.5h-108v21zM81 261
l2 -60q0 -61 3 -107l2 -36q22 19 44.5 46.5t40.5 62t29 75t11 84.5q0 52 -12 94.5t-30.5 75.5t-40.5 57t-42 40l-2 -39q-3 -47 -3 -107l-2 -61v-125z" />
    <glyph glyph-name="e" unicode="e" horiz-adv-x="259" 
d="M329 669v-21h-106l16 -17q-18 -13 -42 -38.5t-46 -62t-38.5 -84.5t-19.5 -106h40q25 0 46 3.5t32 5.5l9 3v-56q-11 5 -36 6t-51 6h-40q3 -63 19 -114q14 -46 35.5 -79t41.5 -55t34.5 -32.5l14.5 -10.5l-15 -17h106v-21h-399v21h248q-17 19 -37 50t-37.5 70.5t-29.5 86.5
t-12 99l-23 -3q-14 -2 -23.5 -5t-10.5 -2v56q1 -1 3 -1q2 -1 3.5 -1t3.5 -1l24 -5l23 -2q4 66 21.5 126.5t45.5 106.5q5 8 12 20t14.5 23.5t14 20t9.5 9.5h-249v21h399z" />
    <glyph glyph-name="f" unicode="f" horiz-adv-x="287" 
d="M-70 669h427v-21h-127l18 -12q-12 -15 -30 -40t-34.5 -59.5t-28.5 -78t-12 -95.5v-23h21q32 0 59 5.5t29 6.5v-56q-14 5 -37.5 6.5t-50.5 5.5h-21v-41q2 -44 4 -86t3.5 -78t2.5 -63t1 -40h203v-21h-427v21h170q1 3 1 8t1 10l5 78l3 109v31t1 31v40h-6q-26 -2 -47 -6
t-21 -5v56l34 -8l40 -3v22q0 49 8 91.5t20 77.5t25 62.5t23 46.5l4 7h-261v21z" />
    <glyph glyph-name="g" unicode="g" horiz-adv-x="287" 
d="M357 669v-21h-161l15 -18q-24 -17 -50.5 -45.5t-49 -67.5t-37 -88.5t-14.5 -109.5q2 -34 8 -67.5t18 -62.5q16 -36 33 -60.5t32.5 -40.5t29 -25t22.5 -14l2 14q2 25 3.5 57t1.5 65q0 37 -2 69t-4 56t-4 38.5t-3 14.5h56q0 2 -2 -12.5t-4.5 -39t-4 -57.5t-1.5 -69
q0 -52 1 -98t13 -87h102v-21h-427v21h257l-3 2q-32 22 -60.5 56t-49.5 76.5t-33 92.5t-12 104q0 56 12.5 105.5t31 90t39.5 71.5t39 50h-221v21h427z" />
    <glyph glyph-name="h" unicode="h" horiz-adv-x="369" 
d="M-70 669h509v-21h-140q-2 -10 -3 -35t-3 -59l-2 -28h1q20 3 34 4.5t15 2.5v-56q-1 2 -15 3.5t-34 4.5h-2q0 -23 -1 -48t-1 -51v-125q0 -45 1.5 -87.5t4 -78t4 -60.5t1.5 -35h140v-21h-509v21h135q1 3 1 7.5t1 10.5l5 76l3 107q0 30 1 61t1 62v82.5t-3 78.5
q-20 -3 -33.5 -5t-15.5 -3v56q-2 0 12 -2t36 -5q0 8 -0.5 14.5t-0.5 13.5l-5 76q-1 6 -1 10.5t-1 7.5h-135v21zM108 261l2 -60q0 -36 1.5 -68.5t3 -59t3 -45.5t1.5 -28h126q0 11 1.5 36.5t4 60.5t4 77t1.5 87v125q0 26 -1 51t-1 51q-23 2 -39 2h-32h-30.5t-42.5 -2v-51
t-2 -51v-125zM113 554q-1 -8 -1 -15.5v-15.5q24 -2 40.5 -2h30.5h31.5t38.5 2l-2 31l-6 94h-126q0 -11 -2.5 -35.5t-3.5 -58.5z" />
    <glyph glyph-name="i" unicode="i" 
d="M-70 669h407v-21h-93v-38q-1 0 -24.5 5.5t-57.5 5.5q0 -10 -1.5 -28.5t-3 -42.5t-3 -53.5t-1.5 -60.5l-2 -55v-114l2 -56q0 -33 1.5 -62.5t3 -54t3 -42t1.5 -25.5h14q26 2 47 6t21 5v-38h93v-21h-407v21h99v38q5 -2 25 -5.5t43 -5.5h11q1 3 1 7.5t1 9.5l5 69l3 98
q1 27 2 55.5t0 57.5q0 55 -1.5 110.5t-3.5 100.5l-5 69q-1 5 -1 9.5t-1 7.5q-12 0 -25.5 -1.5t-25 -3.5t-19.5 -4t-9 -2v38h-99v21z" />
    <glyph glyph-name="j" unicode="j" horiz-adv-x="306" 
d="M-70 669h446v-21h-110v-39q0 -1 -8 2t-23 5l-13 2v-3.5t-0.5 -11.5t-2 -26t-3.5 -48l-3 -111q-1 -15 -1 -30.5v-31.5q0 -41 -3 -72t-9 -60q-9 -44 -24.5 -79t-33.5 -63t-36 -48.5t-31 -33.5h301v-21h-446v21h103l-16 23l24 14q10 7 24.5 19.5t29.5 29.5t29.5 39t25.5 49
q9 24 15 45t9.5 42t4.5 44t1 51q-2 42 -2.5 83.5t-1.5 77.5t-2.5 63.5t-4.5 40.5h-18q-3 0 -15 -1.5t-25.5 -3.5t-25.5 -4t-13 -3v39h-142v21z" />
    <glyph glyph-name="k" unicode="k" horiz-adv-x="327" 
d="M397 669v-21h-103l9 -7q1 -1 -7 -5.5t-22 -16.5q-12 -11 -20.5 -18.5t-20.5 -18t-30 -27.5t-49 -45q20 -20 38 -47.5t33 -59.5q16 -36 30.5 -89.5t26 -109.5t20 -106.5t13.5 -80.5l3 -17h79v-21h-467v21h122q1 3 1 7.5t1 10.5l5 76l3 107q0 30 1 61t1 62q0 32 -0.5 63
t-1.5 60l-3 107l-5 76q-1 6 -1 10.5t-1 7.5h-122v21h467zM194 388q-21 43 -48 69t-48 37l-2 -47q-1 -15 0 -30t-1 -31l2 -185q0 -36 1.5 -68.5t3 -59t3 -45.5t1.5 -28h158v13v50t-5.5 92.5t-20 115t-44.5 117.5zM163 566q30 17 48.5 40.5t33.5 41.5h-139q0 -11 -2.5 -35.5
t-3.5 -58.5l18 -14z" />
    <glyph glyph-name="l" unicode="l" horiz-adv-x="296" 
d="M-70 669h436v-21h-267q0 -9 -1.5 -28t-3 -45.5t-3 -59t-1.5 -68.5v-246q0 -53 2.5 -97t4.5 -73q10 7 24 15l67 51q11 8 20.5 17t16.5 17q8 9 15 18l34 -45q2 1 -18 -7t-47 -28q-25 -18 -40 -28.5t-28 -21.5l-21 -19h246v-21h-436v21h115q1 3 1 7.5t1 10.5l5 76l3 107
q1 29 2 60.5t0 62.5q0 61 -1.5 121.5t-3.5 108.5l-5 76q-1 6 -1 10.5t-1 7.5h-115v21z" />
    <glyph glyph-name="m" unicode="m" horiz-adv-x="428" 
d="M498 -21h-568v21h102q3 13 5.5 47.5t5.5 81t6.5 101t8.5 108.5l5 33q2 26 8.5 50.5t11.5 44.5q10 36 24.5 65t29 51.5t27 38.5t17.5 27h-251v21h568v-21h-247q16 -15 40.5 -43t44.5 -74q7 -20 12 -30.5t9 -27t8.5 -46t9.5 -86.5q7 -51 10.5 -104.5t5 -101t2.5 -83.5
t4 -52h101v-21zM199 262v77t-0.5 89t-2 86.5t-4.5 70.5q-38 -42 -60.5 -93.5t-37.5 -125.5l-5 -32q-5 -46 -7 -93.5t-2 -90.5q0 -51 3 -92t3 -58h102q0 11 1 36.5t2.5 61t3.5 78t4 86.5zM349 99q0 12 0.5 25.5t0.5 27.5q0 110 -7.5 184.5t-21.5 124t-35 80t-49 53.5
q0 -24 -1 -55t-2.5 -66t-2.5 -73.5t-1 -75.5q0 -49 1 -102t2.5 -98.5t3.5 -79.5t5 -44h101q0 13 2.5 38.5t3.5 60.5z" />
    <glyph glyph-name="n" unicode="n" horiz-adv-x="308" 
d="M378 -21h-448v21h115q0 18 0.5 28.5t1.5 23t2 31t2 52.5t1.5 88t0.5 137q0 77 -0.5 123.5t-1.5 73t-2 38t-2 17.5t-1.5 12.5t-0.5 23.5h-115v21h448v-21h-247q16 -8 34 -23t34 -34.5t29.5 -43.5t21.5 -50q7 -21 11 -61t6.5 -88.5t4 -101t2.5 -98t2 -80t3 -47.5
q0 -7 0.5 -12t0.5 -9h98v-21zM226 0q5 63 7.5 124t2.5 134q0 89 -5.5 142t-13 82t-15 40t-10.5 16q-3 4 -4 5.5t-3.5 4.5t-8.5 9.5t-18 18.5q-17 14 -33 22t-29 12q-1 -10 -2 -26.5t-1.5 -52.5t-1 -98t-0.5 -163v-64.5v-54.5t0.5 -39t0.5 -18q2 -35 3.5 -60t3.5 -34h127z
" />
    <glyph glyph-name="o" unicode="o" horiz-adv-x="318" 
d="M388 669v-21h-197q23 -23 40 -61t28.5 -83.5t17 -96.5t5.5 -100q0 -107 -20.5 -183.5t-52.5 -117.5q-4 -4 -5 -6h184v-21h-458v21h197q-24 23 -41.5 62t-29 87t-17 101t-5.5 104q0 46 6 92t16.5 85t24.5 69.5t31 47.5h-182v21h458zM199 556q-13 24 -25.5 37t-21.5 22
q-24 -24 -40.5 -57.5t-26.5 -71.5t-14.5 -80.5t-4.5 -84.5q4 -83 17 -135t28.5 -83t30.5 -46t23 -22q2 1 6 5q21 20 36.5 51.5t25 70t14 81.5t4.5 85q-2 28 -5.5 59t-9.5 61t-15 57.5t-22 50.5z" />
    <glyph glyph-name="p" unicode="p" horiz-adv-x="274" 
d="M-70 669h414v-21h-233q27 -14 50.5 -40t41.5 -60.5t28.5 -76t10.5 -84.5q0 -21 -1.5 -40t-3.5 -35q-9 -59 -30.5 -99t-45.5 -66.5t-45.5 -40t-29.5 -17.5q1 -32 3.5 -55t2.5 -34h252v-21h-414v21h108q2 8 4 33t3.5 61t2.5 79t1 88q0 58 -1.5 120.5t-4 117t-4 95
t-1.5 54.5h-108v21zM81 386v-122t3 -119q21 7 43.5 27t41 50t30.5 69t12 85q0 57 -13.5 98t-33 68t-40.5 42t-35 20q-2 -38 -5 -96.5t-3 -121.5z" />
    <glyph glyph-name="q" unicode="q" horiz-adv-x="302" 
d="M372 669v-21h-188q24 -24 41 -62.5t28.5 -85t16.5 -97t5 -99.5q0 -59 -9 -112.5t-24 -95.5q-3 -9 -8.5 -21.5t-11.5 -24.5t-11.5 -20.5t-9.5 -9.5q12 0 23.5 1.5t21 3.5t15.5 3.5t7 1.5v-30h104v-21h-442v21h123v30q4 -2 21 -5t40 -5q-20 21 -35 54t-26 73.5t-17.5 87
t-8.5 93.5q0 51 5 100.5t14.5 92t24 75.5t33.5 52h-174v21h442zM192 558q-14 24 -26.5 36t-21.5 21q-37 -37 -61.5 -106t-24.5 -162q0 -70 11.5 -123t27.5 -90t33 -57.5t28 -26.5q16 16 31.5 41.5t27.5 59t19 75.5t7 91q0 30 -3.5 63t-10 65t-16 61t-21.5 52z" />
    <glyph glyph-name="r" unicode="r" horiz-adv-x="268" 
d="M-70 669h408v-21h-239q30 -15 56.5 -41t46 -61t31 -77t11.5 -89v-21q0 -29 -5.5 -58.5t-15 -58t-23.5 -53.5t-31 -44q3 -11 10 -24t14 -29q2 -4 11.5 -19t20 -31.5t19 -29.5t10.5 -11l-2 -1h86v-21h-408v21h110q3 19 5.5 69t3.5 115.5t1 139t-1 139t-3.5 115.5t-5.5 70
h-110v21zM83 386v-126t3 -122q5 3 10.5 5.5t12.5 6.5q19 11 37.5 31t33.5 48t24 63t9 77q0 62 -14.5 103.5t-35 68t-41 39.5t-32.5 17q-3 -38 -3.5 -94.5t-3.5 -116.5zM174 61q-6 11 -16.5 26t-20.5 26q-14 -13 -26 -19.5t-23 -11.5q2 -29 4 -51t2 -31h106q-2 2 -5 9
t-6.5 16.5l-7 19t-7.5 16.5z" />
    <glyph glyph-name="s" unicode="s" horiz-adv-x="205" 
d="M-70 669h345v-21h-134l18 -13q1 -1 -11 -13t-28 -37q-5 -7 -13 -20t-15.5 -30t-12.5 -36.5t-5 -38.5q0 -38 13 -70.5t28.5 -63t29 -62t15.5 -67.5q0 -34 -7 -64t-17 -55t-20.5 -45t-17.5 -33h177v-21h-345v21h115l-8 5q-3 -1 10 12.5t30 39t32.5 61t16.5 79.5
q0 35 -13.5 67t-30 63.5t-30 64.5t-13.5 70q0 26 7 52.5t17 51t20.5 46t18.5 36.5h-172v21z" />
    <glyph glyph-name="t" unicode="t" horiz-adv-x="322" 
d="M-70 669h462v-21h-90l-36 -48q-12 12 -30 20.5t-49 13.5q0 -15 -1.5 -40.5t-3.5 -58.5t-3.5 -72t-1.5 -81q0 -50 1.5 -110t4 -115t4 -98t1.5 -59h204v-21h-462v21h204q3 11 5 36.5t3.5 61t2 77t0.5 84.5q0 57 -1.5 115.5t-3.5 110t-3.5 91t-1.5 59.5q-19 -3 -42.5 -9.5
t-33.5 -25.5l-41 48h-88v21z" />
    <glyph glyph-name="u" unicode="u" horiz-adv-x="308" 
d="M-70 669h448v-21h-105q0 -18 -0.5 -28.5t-1.5 -23t-2 -31t-2 -52.5t-1.5 -88t-0.5 -137q0 -77 0.5 -123.5t1.5 -73t2 -38t2 -17.5t1.5 -12.5t0.5 -23.5h105v-21h-448v21h257q-17 8 -34.5 23t-33.5 34.5t-29.5 43.5t-21.5 50q-7 21 -11 61t-6.5 88.5t-4 101t-2.5 98t-2 80
t-3 47.5q0 7 -0.5 12t-0.5 9h-108v21zM92 648q-5 -63 -7.5 -124t-2.5 -134q0 -89 5.5 -142t13 -82t15 -40t10.5 -16q3 -4 4 -5.5t3.5 -4.5t8.5 -9.5t18 -18.5q17 -14 33 -22t29 -12q1 10 1.5 26.5t1.5 52.5t1.5 98t0.5 163v64.5v54.5t-0.5 39t-0.5 18q-2 35 -3.5 60t-3.5 34
h-127z" />
    <glyph glyph-name="v" unicode="v" horiz-adv-x="302" 
d="M212 386q0 45 -1 88.5t-2.5 79.5t-3.5 61t-4 33h-127q0 -17 -2.5 -52.5t-2.5 -72.5q0 -47 6 -99t14.5 -98.5t18.5 -81.5t18 -49q18 -41 41 -72t39 -53q3 23 4.5 55t2 67t0.5 69.5v62.5q0 16 -0.5 31.5t-0.5 30.5zM372 648h-117q0 -14 -1.5 -55.5t-4 -96t-4 -117
t-1.5 -118.5q2 -44 4 -86t3.5 -77t2.5 -61t1 -37h117v-21h-442v21h267q-11 17 -27.5 41t-34 55t-34 68t-28.5 79q-9 22 -14.5 46.5t-9 47t-5.5 41t-4 27.5q-4 42 -6.5 81t-4.5 70.5t-4 55.5t-5 36h-90v21h442v-21z" />
    <glyph glyph-name="w" unicode="w" horiz-adv-x="428" 
d="M-70 669h568v-21h-102q-3 -14 -5.5 -48t-5.5 -80.5t-6.5 -101t-8.5 -108.5l-5 -33q-2 -26 -8.5 -50.5t-11.5 -44.5q-10 -36 -24.5 -65t-29 -51.5t-27 -39t-17.5 -26.5h251v-21h-568v21h247q-16 15 -40.5 43t-44.5 74q-7 20 -12 30.5t-9 27t-8.5 46t-9.5 86.5
q-7 51 -10.5 104.5t-5 101t-2.5 83.5t-4 52h-101v21zM229 386v-77t0.5 -89t2 -86.5t4.5 -70.5q38 42 60.5 93.5t37.5 125.5l5 32q5 46 7 93.5t2 90.5q0 51 -3 92t-3 58h-102q0 -11 -1 -36.5t-2.5 -61t-3.5 -78t-4 -86.5zM79 549q0 -12 -0.5 -25.5t-0.5 -27.5
q0 -110 7 -184.5t21.5 -124t35.5 -80t49 -53.5q0 24 1 55t2.5 66t2.5 73t1 76q0 49 -1 102t-2.5 98.5t-3.5 79t-5 44.5h-101q0 -13 -2.5 -38.5t-3.5 -60.5z" />
    <glyph glyph-name="x" unicode="x" horiz-adv-x="292" 
d="M-70 669h432v-21h-105q-2 -8 -8 -30t-17.5 -53t-28 -68.5t-37.5 -74.5q27 -65 43 -132.5t24 -126t12 -102.5t7 -61h110v-21h-432v21h109q6 30 14.5 78t19.5 105t25 118.5t31 119.5l-12 23q-19 34 -33 67t-24 60.5t-16.5 47.5t-9.5 29h-104v21zM180 267q-6 29 -13.5 56.5
t-17.5 54.5q-19 -60 -30 -119t-17 -110.5t-7.5 -90.5t-1.5 -58h105q0 7 0.5 18.5t0.5 25.5q0 42 -4 101.5t-15 121.5zM89 648l2 -12q5 -29 17.5 -76.5t38.5 -99.5q14 30 24.5 60t17 55t10 44.5t3.5 28.5h-113z" />
    <glyph glyph-name="y" unicode="y" horiz-adv-x="286" 
d="M-70 669h426v-21h-101q0 -17 -4.5 -54t-7.5 -82t-9.5 -84.5t-16.5 -77t-23.5 -73.5t-31.5 -74q1 -34 2.5 -65.5t3 -58.5t3 -47t1.5 -32h184v-21h-426v21h188q2 10 3.5 30.5t2.5 48t2 61t2 69.5q-24 45 -42 83t-29 85q-9 46 -13.5 89.5t-6.5 79.5t-3.5 62.5t-3.5 39.5
h-100v21zM79 552q0 -50 3 -91t10 -77t19 -68t30 -62q29 39 48.5 103.5t19.5 156.5q0 48 -3.5 84.5t-3.5 49.5h-118q0 -13 -2 -38t-3 -58z" />
    <glyph glyph-name="z" unicode="z" horiz-adv-x="302" 
d="M-70 669h442v-21h-112v-10l19 -21q0 -1 -6 -4.5t-15 -12.5q-47 -45 -79 -101.5t-52 -119.5t-29.5 -130.5t-10.5 -134.5q-2 -23 -1.5 -47t0.5 -39q17 -4 40.5 -5t47.5 0.5t46.5 5t39.5 9.5v-38h112v-21h-442v21h108l-3 10q2 27 7 65t12 83t15.5 94t17.5 96q5 16 6 21.5
t3 9.5q25 83 56.5 145.5t56.5 94.5q-24 3 -60 3q-10 0 -28 -1.5l-36 -3t-32 -4t-15 -3.5v38h-108v21z" />
    <glyph glyph-name="braceleft" unicode="{" horiz-adv-x="229" 
d="M299 669v-21h-95q-75 -60 -105.5 -141.5t-30.5 -191.5q0 -41 6.5 -87.5t21 -90.5t38 -80.5t57.5 -56.5h108v-21h-369v21l199 1q-37 35 -59.5 101.5t-29.5 151.5l-52 54l52 65q6 100 31.5 169.5t57.5 103.5l2 2h-201v21h369z" />
    <glyph glyph-name="bar" unicode="|" horiz-adv-x="166" 
d="M-70 669h306v-21h-120q0 -3 -0.5 -8t-0.5 -10l-12 -183l-4 -123q-1 -16 -1 -31.5v-31.5v-60q0 -9 -0.5 -17.5t-0.5 -16.5q0 -20 0.5 -38.5t1.5 -35.5l3 -75q1 -6 1 -10.5t1 -7.5h132v-21h-306v21h120q0 12 1.5 32t4 46.5t4.5 57.5t3 65l3 61q0 62 3 125v60q0 35 -0.5 68
t-1 59.5t-2 46t-3.5 27.5h-132v21z" />
    <glyph glyph-name="braceright" unicode="}" horiz-adv-x="229" 
d="M189 257q-6 -86 -29 -153.5t-60 -102.5l199 -1v-21h-369v21h108q34 20 57.5 56.5t38 80.5t21 90.5t6.5 87.5q0 110 -30.5 191.5t-105.5 141.5h-95v21h369v-21h-201l2 -2q32 -35 57.5 -105t31.5 -172l49 -61z" />
    <glyph glyph-name="asciitilde" unicode="~" 
d="M337 0v-21h-407v21h407zM-70 648v21h407v-21h-407zM58 272l-19 33q12 19 27.5 32t32.5 14.5t37 -9.5t41 -39l37 53l19 -33q-12 -20 -27.5 -32.5t-32.5 -14t-37 9.5t-41 39z" />
    <glyph glyph-name="uni00A0" unicode="&#xa0;" horiz-adv-x="167" 
d="M237 0v-21h-307v21h307zM-70 648v21h307v-21h-307z" />
    <glyph glyph-name="exclamdown" unicode="&#xa1;" horiz-adv-x="180" 
d="M250 -21h-320v21h132q3 9 4.5 28.5t2 46t1.5 57t3 60.5v93q-2 34 -3.5 69t-3 64.5t-2.5 48.5t-3 21h56q0 -3 -2 -20t-4.5 -45t-4 -63.5t-1.5 -74.5v-93q0 -57 3.5 -106t5.5 -75l2 -11h134v-21zM54 612q0 11 7.5 20t15.5 16h-147v21h320v-21h-147q8 -7 14.5 -16t6.5 -20
q-1 -9 -6 -17t-12 -15q-8 -8 -18 -15q-10 7 -17 15q-7 7 -12 15t-5 17z" />
    <glyph glyph-name="cent" unicode="&#xa2;" horiz-adv-x="249" 
d="M127 -88l9 67h-206v21l219 1q-21 20 -44.5 52.5t-42.5 73.5t-31.5 89t-12.5 100q0 61 13.5 113t34 94t43 73t40.5 50l2 2h-221v21h205l-8 64h56l-9 -64h145v-21h-129l18 -21q-25 -17 -52.5 -46t-51 -68t-38.5 -87.5t-15 -105.5q0 -43 10.5 -88.5t31 -86.5t49.5 -73.5
t65 -49.5l-16 -22h128v-21h-145l9 -67h-56z" />
    <glyph glyph-name="sterling" unicode="&#xa3;" horiz-adv-x="249" 
d="M-17 356q31 -11 74 -14q3 56 14.5 103.5t27.5 86t34.5 67.5t35.5 47l2 2h-241v21h389v-21h-109l18 -21q-24 -17 -47.5 -44t-42.5 -63t-32 -81.5t-16 -97.5q26 1 51.5 4t45.5 11v-56q-16 9 -42 13t-55 3v-115q0 -53 2.5 -97t4.5 -73q10 7 24 15l67 51q11 8 20.5 17
t16.5 17q8 9 15 18l34 -45q2 1 -18 -7t-47 -28q-25 -18 -40 -28.5t-28 -21.5l-21 -19h199v-21h-389v21h115q1 3 1 7.5t1 10.5l5 76l3 107q1 27 1.5 56t0.5 58q-23 -2 -43 -6t-31 -9v56z" />
    <glyph glyph-name="currency" unicode="&#xa4;" horiz-adv-x="347" 
d="M98 308q0 18 10 35q-14 11 -27.5 19.5t-27.5 14.5l53 53q3 -13 11.5 -27.5t19.5 -29.5q8 4 16.5 6.5t18.5 2.5q18 0 36 -10q11 14 20 29t16 29l53 -53q-14 -3 -29 -12t-31 -22q10 -17 10 -35q0 -19 -9 -34q34 -25 59 -35l-53 -53q-14 29 -37 57q-15 -9 -35 -9
q-17 0 -33 8q-12 -17 -20.5 -31t-12.5 -25l-53 53q12 6 26 14t28 19q-9 16 -9 36zM417 0v-21h-487v21h487zM-70 648v21h487v-21h-487zM126 308q0 -19 13.5 -32.5t32.5 -13.5t33 13.5t14 32.5t-14 32.5t-33 13.5t-32.5 -13.5t-13.5 -32.5z" />
    <glyph glyph-name="yen" unicode="&#xa5;" horiz-adv-x="286" 
d="M42 236q33 -11 79 -14q-22 41 -38 76t-26 79q-9 46 -13.5 89.5t-6.5 79.5t-3.5 62.5t-3.5 39.5h-100v21h426v-21h-101q0 -17 -4.5 -54t-7.5 -82q-7 -84 -24 -152t-48 -138q20 2 39.5 5t35.5 9v-56q-14 8 -36 12t-48 4q0 -17 0.5 -33t1.5 -31q46 2 82 14v-56
q-14 8 -35 11.5t-45 4.5q2 -36 4 -64t2 -42h184v-21h-426v21h188q2 12 3.5 39.5t3.5 65.5q-26 -2 -48.5 -6t-34.5 -9v56q34 -12 84 -14q0 15 0.5 30.5t1.5 32.5q-27 -2 -50 -6t-36 -9v56zM79 552q0 -50 3 -91t10 -77t19 -68t30 -62q29 39 48.5 103.5t19.5 156.5
q0 48 -3.5 84.5t-3.5 49.5h-118q0 -13 -2 -38t-3 -58z" />
    <glyph glyph-name="brokenbar" unicode="&#xa6;" horiz-adv-x="166" 
d="M67 360q0 14 0.5 28.5t1.5 28.5v60q0 140 -7 171h-132v21h306v-21h-120q0 -3 -0.5 -8t-0.5 -10l-12 -153l-4 -117h-32zM98 283v-102v-24.5v-28t1 -42.5t3 -68q1 -6 1 -10.5t1 -7.5h132v-21h-306v21h120q0 23 5.5 68t7.5 113l3 61v41h32z" />
    <glyph glyph-name="section" unicode="&#xa7;" horiz-adv-x="215" 
d="M39 382q0 50 22 81q-12 25 -12 59q0 26 7 46t17 35t20.5 26t18.5 19h-172v21h345v-21h-134l18 -13q-39 -22 -62 -54t-23 -61q0 -38 13 -62.5t28.5 -46t29 -45t15.5 -59.5q0 -32 -6 -51.5t-15 -37.5q5 -11 7.5 -23.5t3.5 -27.5q0 -34 -7 -59.5t-17 -45t-20.5 -34.5
t-17.5 -28h177v-21h-345v21h115l-8 5q-3 -1 10 8t30 28.5t32.5 50.5t16.5 75q0 35 -13.5 59t-30 46.5t-30 47.5t-13.5 62zM74 380q0 -42 15.5 -68t32.5 -50q6 10 9.5 18t4.5 27q0 19 -5 35t-12.5 29.5t-16.5 26t-18 25.5q-6 -8 -8 -17.5t-2 -25.5z" />
    <glyph glyph-name="dieresis" unicode="&#xa8;" horiz-adv-x="256" 
d="M206 763q-7 -20 -10.5 -30.5t-3.5 -20t3 -21t11 -32.5h-56q19 32 16 53.5t-16 50.5h56zM106 763q-7 -20 -10.5 -30.5t-3.5 -20t3 -21t11 -32.5h-56q19 32 16 53.5t-16 50.5h56z" />
    <glyph glyph-name="copyright" unicode="&#xa9;" horiz-adv-x="249" 
d="M319 669v-21h-119l18 -21q-25 -17 -52.5 -46t-51 -68t-38.5 -87.5t-15 -105.5q0 -43 10.5 -88.5t31 -86.5t49.5 -73.5t65 -49.5l-16 -22h118v-21h-389v21l229 1q-21 20 -44.5 52.5t-42.5 73.5t-31.5 89t-12.5 100q0 61 13.5 113t34 94t43 73t40.5 50l2 2h-231v21h389z
" />
    <glyph glyph-name="ordfeminine" unicode="&#xaa;" horiz-adv-x="306" 
d="M376 669v-21h-189l2 -3q15 -37 33 -103t23 -146l2 -33v-16t1 -16v-64l2 -101q22 3 33 5t12 2v-56q-1 0 -12 2.5t-31 4.5q0 -43 3.5 -76t3.5 -48h117v-21h-446v21h114q2 10 5 46t3 79l-30 -5q-3 -1 -5.5 -1t-4.5 -1t-3 -1v56q4 -1 11 -2q5 -1 13.5 -2t19.5 -3q3 44 3.5 95
t0.5 102l2 33q3 42 9 80t14.5 69.5t17 56.5t15.5 43l2 3h-187v21h446zM205 453q-8 51 -23.5 90t-29.5 64q-10 -17 -21 -43t-20.5 -57.5t-15.5 -68.5t-6 -76l-2 -32l2 -125v-21t1 -21l35 -2h53l36 2q2 32 2.5 66.5t0.5 68.5q0 16 -0.5 32t-1.5 32l-2 31q-1 16 -3.5 31
t-4.5 29zM212 96q0 8 0.5 16t0.5 16h-9q-12 2 -25 2h-27h-26t-26 -2h-9q0 -44 3.5 -78.5t3.5 -49.5h107q3 11 4 37t3 59z" />
    <glyph glyph-name="guillemotleft" unicode="&#xab;" horiz-adv-x="349" 
d="M419 669v-21h-119l18 -11l-157 -317l156 -308l-16 -12h118v-21h-489v21l239 1l-141 315l143 332h-241v21h489zM202 0l67 1l-141 315l143 332h-71l18 -11l-157 -317l156 -308z" />
    <glyph glyph-name="logicalnot" unicode="&#xac;" horiz-adv-x="317" 
d="M227 196q11 31 13.5 49t-3.5 43q-20 6 -46.5 7.5t-52.5 0t-49 -5.5t-36 -10v56q20 -7 46.5 -10.5t54 -3.5t55 3t48.5 11l26 -16q-20 -32 -16.5 -63.5t16.5 -60.5h-56zM-70 648v21h457v-21h-457zM387 0v-21h-457v21h457z" />
    <glyph glyph-name="uni00AD" unicode="&#xad;" 
d="M337 0v-21h-407v21h407zM-70 648v21h407v-21h-407zM33 336q20 -7 46.5 -10.5t54 -3.5t55 3t48.5 11v-56q-16 10 -44.5 13.5t-59 2.5t-58 -5.5t-42.5 -10.5v56z" />
    <glyph glyph-name="registered" unicode="&#xae;" horiz-adv-x="288" 
d="M-70 669h428v-21h-259q30 -15 56.5 -41t46 -61t31 -77t11.5 -89v-21q0 -29 -5.5 -58.5t-15 -58t-23.5 -53.5t-31 -44q3 -11 10 -24t14 -29q2 -4 11.5 -19t20 -31.5t19 -29.5t10.5 -11l-2 -1h106v-21h-151l-4 -2v2h-273v21h110q3 19 5.5 69t3.5 115.5t1 139t-1 139
t-3.5 115.5t-5.5 70h-110v21zM83 386v-126t3 -122q5 3 10.5 5.5t12.5 6.5q19 11 37.5 31t33.5 48t24 63t9 77q0 62 -14.5 103.5t-35 68t-41 39.5t-32.5 17q-3 -38 -3.5 -94.5t-3.5 -116.5zM174 61q-6 11 -16.5 26t-20.5 26q-14 -13 -26 -19.5t-23 -11.5q2 -29 4 -51t2 -31
h106q-2 2 -5 9t-6.5 16.5l-7 19t-7.5 16.5z" />
    <glyph glyph-name="macron" unicode="&#xaf;" 
d="M43 709q40 -19 90.5 -19.5t93.5 19.5v-59q-16 10 -41.5 13.5t-52 2.5t-51 -5.5t-39.5 -10.5v59z" />
    <glyph glyph-name="degree" unicode="&#xb0;" horiz-adv-x="321" 
d="M-70 669h461v-21h-206l6 -8q19 -24 37 -57.5t31.5 -74.5t21.5 -87.5t8 -95.5q0 -64 -12.5 -117t-30 -94t-35.5 -70t-28 -44h208v-21h-461v21h213l-8 11q-16 21 -33.5 54.5t-32 74.5t-24.5 88.5t-10 96.5q0 57 10 106t25 88.5t32.5 69.5t32.5 51l6 8h-211v21zM199 548
q-9 15 -18.5 27t-17.5 21q-19 -20 -36 -48.5t-30.5 -63t-21.5 -74.5t-8 -84q0 -47 9 -88t23.5 -75.5t31.5 -61.5t32 -45q17 18 34 46t30.5 63.5t22 76t8.5 84.5q0 69 -17 126.5t-42 95.5z" />
    <glyph glyph-name="plusminus" unicode="&#xb1;" 
d="M107 296q12 37 14 89q-27 -2 -51 -6t-37 -9v56q36 -12 88 -14q-2 49 -14 88h56q-9 -14 -13 -38t-4 -51q25 1 48.5 4.5t42.5 10.5v-56q-14 8 -38.5 12t-51.5 4q2 -28 6 -52t10 -38h-56zM-70 648v21h407v-21h-407zM337 0v-21h-407v21h407zM33 216q20 -7 46.5 -10.5t54 -3.5
t55 3t48.5 11v-56q-16 10 -44.5 13.5t-59 2.5t-58 -5.5t-42.5 -10.5v56z" />
    <glyph glyph-name="twosuperior" unicode="&#xb2;" horiz-adv-x="286" 
d="M356 669v-21h-231l1 -1q16 -18 35.5 -43.5t36 -57t27.5 -68t11 -76.5q0 -42 -8.5 -83.5t-22 -80.5t-30.5 -74.5t-33 -65.5l-39 -71l41 -2q29 0 50.5 2.5t46.5 10.5v-38h115v-21h-426v21h117v26l-6 5q31 37 60 81.5t52 92.5t37 98t14 98q-2 31 -10 59.5t-20 53.5
q-16 31 -35 52t-35 33.5t-26.5 19t-9.5 8.5l17 21h-155v21h426z" />
    <glyph glyph-name="threesuperior" unicode="&#xb3;" horiz-adv-x="254" 
d="M324 669v-21h-210q9 -5 26 -17t34 -31t29.5 -43.5t12.5 -53.5v-12q0 -28 -10.5 -51t-26 -41t-32.5 -31.5t-29 -20.5q44 -26 74.5 -69t30.5 -100q0 -35 -13.5 -64t-32.5 -52t-40 -38.5t-35 -23.5h222v-21h-394v21h133l-13 33q14 3 37 12.5t45.5 27t40 43.5t19.5 63
q0 21 -6 39q-12 35 -34.5 55t-44.5 29.5t-38 12t-16 3.5l7 28l-8 28q9 -1 31 6t44.5 22.5t40 39t17.5 55.5q0 18 -7 34t-18 30q-18 22 -37.5 34t-35.5 18t-26.5 7t-10.5 2l10 26h-130v21h394z" />
    <glyph glyph-name="acute" unicode="&#xb4;" horiz-adv-x="244" 
d="M178 698l-66 -10l-8 -30h-46q11 18 21.5 30.5t24 23t33 20t48.5 21.5z" />
    <glyph glyph-name="mu" unicode="&#xb5;" horiz-adv-x="308" 
d="M-70 669h448v-21h-105q0 -18 -0.5 -28.5t-1.5 -23t-2 -31t-2 -52.5t-1.5 -88t-0.5 -137q0 -77 0.5 -123.5t1.5 -73t2 -38t2 -17.5t1.5 -12.5t0.5 -23.5h105v-21h-448v21h257q-17 8 -34.5 23t-33.5 34.5t-29.5 43.5t-21.5 50q-7 21 -11 61t-6.5 88.5t-4 101t-2.5 98t-2 80
t-3 47.5q0 7 -0.5 12t-0.5 9h-108v21zM92 648q-5 -63 -7.5 -124t-2.5 -134q0 -89 5.5 -142t13 -82t15 -40t10.5 -16q3 -4 4 -5.5t3.5 -4.5t8.5 -9.5t18 -18.5q17 -14 33 -22t29 -12q1 10 1.5 26.5t1.5 52.5t1.5 98t0.5 163v64.5v54.5t-0.5 39t-0.5 18q-2 35 -3.5 60t-3.5 34
h-127z" />
    <glyph glyph-name="paragraph" unicode="&#xb6;" horiz-adv-x="276" 
d="M-70 669h416v-21h-120q0 -3 -0.5 -8t-0.5 -10l-12 -183l-4 -123q-1 -16 -1 -31.5v-31.5v-60q0 -9 -0.5 -17.5t-0.5 -16.5q0 -20 0.5 -38.5t1.5 -35.5l3 -75q1 -6 1 -10.5t1 -7.5h132v-21h-416v21h120q0 12 1.5 32t4 46.5t4.5 57.5t3 65l3 61q0 62 3 125v60v6q-6 -2 -9 -2
q-14 0 -25 22t-11 79q0 73 14 96h-108v21zM102 18q1 -6 1 -10.5t1 -7.5h56q0 12 1.5 32t4 46.5t4.5 57.5t3 65l3 61q0 62 3 125v60q0 35 -0.5 68t-1 59.5t-2 46t-3.5 27.5h-56q0 -3 -0.5 -8t-0.5 -10l-12 -183l-4 -123q-1 -16 -1 -31.5v-31.5v-60q0 -9 -0.5 -17.5
t-0.5 -16.5q0 -20 0.5 -38.5t1.5 -35.5z" />
    <glyph glyph-name="periodcentered" unicode="&#xb7;" horiz-adv-x="207" 
d="M277 0v-21h-347v21h347zM-70 648v21h347v-21h-347zM36 298l62 78l67 -66l-65 -78z" />
    <glyph glyph-name="cedilla" unicode="&#xb8;" horiz-adv-x="156" 
d="M106 -10q-6 -20 -9.5 -32.5t-4.5 -24t1.5 -24t8.5 -33.5h-47q14 39 9.5 63.5t-14.5 50.5h56z" />
    <glyph glyph-name="onesuperior" unicode="&#xb9;" horiz-adv-x="202" 
d="M-70 669h342v-21h-144q-2 -8 -4 -33t-3.5 -61t-2.5 -79.5t-1 -88.5v-125q0 -43 1 -86t2.5 -79t3.5 -62t4 -34h144v-21h-342v21h144q0 11 1 37t2.5 61t3.5 77t4 86v125q0 45 -1.5 87.5t-4 77.5t-4 60.5t-1.5 36.5h-144v21z" />
    <glyph glyph-name="ordmasculine" unicode="&#xba;" horiz-adv-x="321" 
d="M-70 669h461v-21h-206l6 -8q19 -24 37 -57.5t31.5 -74.5t21.5 -87.5t8 -95.5q0 -64 -12.5 -117t-30 -94t-35.5 -70t-28 -44h208v-21h-461v21h213l-8 11q-16 21 -33.5 54.5t-32 74.5t-24.5 88.5t-10 96.5q0 57 10 106t25 88.5t32.5 69.5t32.5 51l6 8h-211v21zM199 548
q-9 15 -18.5 27t-17.5 21q-19 -20 -36 -48.5t-30.5 -63t-21.5 -74.5t-8 -84q0 -47 9 -88t23.5 -75.5t31.5 -61.5t32 -45q17 18 34 46t30.5 63.5t22 76t8.5 84.5q0 69 -17 126.5t-42 95.5z" />
    <glyph glyph-name="guillemotright" unicode="&#xbb;" horiz-adv-x="349" 
d="M132 12l156 308l-157 317l18 11h-71l143 -332l-141 -315l67 -1zM419 669v-21h-241l143 -332l-141 -315l239 -1v-21h-489v21h118l-16 12l156 308l-157 317l18 11h-119v21h489z" />
    <glyph glyph-name="onequarter" unicode="&#xbc;" horiz-adv-x="776" 
d="M-70 669h916v-21h-114q-1 -3 -1 -7.5t-1 -10.5l-5 -76l-3 -107q-1 -29 -2 -60t0 -63q0 -61 1.5 -121.5t3.5 -108.5l5 -76q1 -6 1 -10.5t1 -7.5h114v-21h-916v21h144q0 11 1 37t2.5 61t3.5 77t4 86v125q0 45 -1.5 87.5t-4 77.5t-4 60.5t-1.5 36.5h-144v21zM678 0
q0 17 4.5 69t4.5 121l-12 4q-28 11 -56 26.5t-51 38t-39.5 53.5t-20.5 74q-1 25 -1.5 42t-0.5 28v18v13l-3 87l-5 61q-1 5 -1 8v5h-52l-4 -22q-5 -30 -20.5 -79t-34.5 -107l-20 -60l-40 -123q-12 -35 -22.5 -71t-18.5 -68.5t-12.5 -59t-5.5 -43.5v-15h411zM128 648
q-2 -8 -4 -33t-3.5 -61t-2.5 -79.5t-1 -88.5v-125q0 -43 1 -86t2.5 -79t3.5 -62t4 -34h85q0 2 0.5 4.5t0.5 4.5l3 14q7 31 23 79t35 106l20 59l40 123q26 78 40 143.5t16 98.5v16h-263zM540 388q3 -44 21.5 -71.5t42.5 -43t47.5 -22t36.5 -8.5v9t1 9v125l-2 61
q0 36 -1.5 68.5t-3 59t-3 45.5t-1.5 28h-128q0 -2 -0.5 -5t-0.5 -8q-5 -29 -5.5 -83t-4.5 -114z" />
    <glyph glyph-name="onehalf" unicode="&#xbd;" horiz-adv-x="738" 
d="M-70 669h878v-21h-231l1 -1q16 -18 35.5 -43.5t36 -57t27.5 -68t11 -76.5q0 -42 -8.5 -83.5t-22 -80.5t-30.5 -74.5t-33 -65.5l-39 -71l41 -2q29 0 50.5 2.5t46.5 10.5v-38h115v-21h-878v21h144q0 11 1 37t2.5 61t3.5 77t4 86v125q0 45 -1.5 87.5t-4 77.5t-4 60.5
t-1.5 36.5h-144v21zM499 0v26l-6 5q31 37 60 81.5t52 92.5t37 98t14 98q-2 31 -10 59.5t-20 53.5q-16 31 -35 52t-35 33.5t-26.5 19t-9.5 8.5l17 21h-92l-4 -22q-5 -30 -20.5 -79t-34.5 -107l-20 -60l-40 -123q-12 -35 -22.5 -71t-18.5 -68.5t-12.5 -59t-5.5 -43.5v-15h232z
M128 648q-2 -8 -4 -33t-3.5 -61t-2.5 -79.5t-1 -88.5v-125q0 -43 1 -86t2.5 -79t3.5 -62t4 -34h85q0 2 0.5 4.5t0.5 4.5l3 14q7 31 23 79t35 106l20 59l40 123q26 78 40 143.5t16 98.5v16h-263z" />
    <glyph glyph-name="threequarters" unicode="&#xbe;" horiz-adv-x="828" 
d="M898 669v-21h-114q-1 -3 -1 -7.5t-1 -10.5l-5 -76l-3 -107q-1 -29 -2 -60t0 -63q0 -61 1.5 -121.5t3.5 -108.5l5 -76q1 -6 1 -10.5t1 -7.5h114v-21h-968v21h133l-13 33q14 3 37 12.5t45.5 27t40 43.5t19.5 63q0 21 -6 39q-12 35 -34.5 55t-44.5 29.5t-38 12t-16 3.5l7 28
l-8 28q9 -1 31 6t44.5 22.5t40 39t17.5 55.5q0 18 -7 34t-18 30q-18 22 -37.5 34t-35.5 18t-26.5 7t-10.5 2l10 26h-130v21h968zM319 0h411q0 17 4.5 69t4.5 121l-12 4q-28 11 -56 26.5t-51 38t-39.5 53.5t-20.5 74q-1 25 -1.5 42t-0.5 28v18v13l-3 87l-5 61q-1 5 -1 8v5
h-52l-4 -22q-5 -30 -20.5 -79t-34.5 -107l-20 -60l-40 -123q-12 -35 -22.5 -71t-18.5 -68.5t-12.5 -59t-5.5 -43.5v-15zM114 648q9 -5 26 -17t34 -31t29.5 -43.5t12.5 -53.5v-12q0 -28 -10.5 -51t-26 -41t-32.5 -31.5t-29 -20.5q44 -26 74.5 -69t30.5 -100q0 -35 -13.5 -64
t-32.5 -52t-40 -38.5t-35 -23.5h163q0 2 0.5 4.5t0.5 4.5l3 14q7 31 23 79t35 106l20 59l40 123q26 78 40 143.5t16 98.5v16h-329zM592 388q3 -44 21.5 -71.5t42.5 -43t47.5 -22t36.5 -8.5v9t1 9v125l-2 61q0 36 -1.5 68.5t-3 59t-3 45.5t-1.5 28h-128q0 -2 -0.5 -5t-0.5 -8
q-5 -29 -5.5 -83t-4.5 -114z" />
    <glyph glyph-name="questiondown" unicode="&#xbf;" horiz-adv-x="226" 
d="M-70 -21v21h180q-30 23 -53 67t-23 99q0 25 5 56.5t13.5 64t20 65t23.5 60.5l25 57q2 5 3.5 9t3.5 7q1 4 2 6l49 -28q-2 -1 -10.5 -13t-21.5 -33t-27 -48.5t-26 -59t-20 -65t-8 -66.5q0 -49 15.5 -78.5t34.5 -45.5q22 -18 50 -26l-13 -28h143v-21h-366zM107 612
q0 11 7.5 20t15.5 16h-200v21h366v-21h-140q8 -7 14.5 -16t6.5 -20q-1 -9 -6 -17t-12 -15q-8 -8 -18 -15q-10 7 -17 15q-7 7 -12 15t-5 17z" />
    <glyph glyph-name="Agrave" unicode="&#xc0;" horiz-adv-x="306" 
d="M8 276q13 -5 49 -8v95l2 33q3 42 9 80t14.5 69.5t17 56.5t15.5 43l2 3h-187v21h204l-5 19l-66 10l-7 55q26 -11 44.5 -20.5t32 -18.5t23.5 -20t20 -25h200v-21h-189l2 -3q15 -37 33 -103t23 -146l2 -33v-16t1 -16v-63q15 2 26.5 3.5t18.5 4.5v-56q-12 6 -45 9l2 -63
q22 3 33 5t12 2v-56q-1 0 -12 2.5t-31 4.5q0 -43 3.5 -76t3.5 -48h117v-21h-446v21h114q2 10 5 46t3 79l-30 -5q-3 -1 -5.5 -1t-4.5 -1t-3 -1v56q4 -1 11 -2q5 -1 13.5 -2t19.5 -3l3 62q-36 -3 -48 -8v56zM205 453q-8 51 -23.5 90t-29.5 64q-10 -17 -21 -43t-20.5 -57.5
t-15.5 -68.5t-6 -76l-2 -32l1 -64q30 -2 64.5 -2t64.5 2v32q0 16 -0.5 32t-1.5 32l-2 31q-1 16 -3.5 31t-4.5 29zM212 96q0 8 0.5 16t0.5 16h-9q-12 2 -25 2h-27h-26t-26 -2h-9q0 -44 3.5 -78.5t3.5 -49.5h107q3 11 4 37t3 59zM217 232q-30 2 -64 1t-65 -3l1 -25v-21t1 -21
l35 -2h53l36 2z" />
    <glyph glyph-name="Aacute" unicode="&#xc1;" horiz-adv-x="306" 
d="M8 276q13 -5 49 -8v95l2 33q3 42 9 80t14.5 69.5t17 56.5t15.5 43l2 3h-187v21h197q10 14 20 25t23.5 20t31.5 18.5t45 20.5l-7 -55l-66 -10l-5 -19h207v-21h-189l2 -3q15 -37 33 -103t23 -146l2 -33v-16t1 -16v-63q15 2 26.5 3.5t18.5 4.5v-56q-12 6 -45 9l2 -63
q22 3 33 5t12 2v-56q-1 0 -12 2.5t-31 4.5q0 -43 3.5 -76t3.5 -48h117v-21h-446v21h114q2 10 5 46t3 79l-30 -5q-3 -1 -5.5 -1t-4.5 -1t-3 -1v56q4 -1 11 -2q5 -1 13.5 -2t19.5 -3l3 62q-36 -3 -48 -8v56zM205 453q-8 51 -23.5 90t-29.5 64q-10 -17 -21 -43t-20.5 -57.5
t-15.5 -68.5t-6 -76l-2 -32l1 -64q30 -2 64.5 -2t64.5 2v32q0 16 -0.5 32t-1.5 32l-2 31q-1 16 -3.5 31t-4.5 29zM212 96q0 8 0.5 16t0.5 16h-9q-12 2 -25 2h-27h-26t-26 -2h-9q0 -44 3.5 -78.5t3.5 -49.5h107q3 11 4 37t3 59zM217 232q-30 2 -64 1t-65 -3l1 -25v-21t1 -21
l35 -2h53l36 2z" />
    <glyph glyph-name="Acircumflex" unicode="&#xc2;" horiz-adv-x="306" 
d="M8 276q13 -5 49 -8v95l2 33q3 42 9 80t14.5 69.5t17 56.5t15.5 43l2 3h-187v21h135q27 14 44.5 29.5t22.5 43.5h41q5 -28 22.5 -43.5t44.5 -29.5h136v-21h-189l2 -3q15 -37 33 -103t23 -146l2 -33v-16t1 -16v-63q15 2 26.5 3.5t18.5 4.5v-56q-12 6 -45 9l2 -63q22 3 33 5
t12 2v-56q-1 0 -12 2.5t-31 4.5q0 -43 3.5 -76t3.5 -48h117v-21h-446v21h114q2 10 5 46t3 79l-30 -5q-3 -1 -5.5 -1t-4.5 -1t-3 -1v56q4 -1 11 -2q5 -1 13.5 -2t19.5 -3l3 62q-36 -3 -48 -8v56zM205 453q-8 51 -23.5 90t-29.5 64q-10 -17 -21 -43t-20.5 -57.5t-15.5 -68.5
t-6 -76l-2 -32l1 -64q30 -2 64.5 -2t64.5 2v32q0 16 -0.5 32t-1.5 32l-2 31q-1 16 -3.5 31t-4.5 29zM212 96q0 8 0.5 16t0.5 16h-9q-12 2 -25 2h-27h-26t-26 -2h-9q0 -44 3.5 -78.5t3.5 -49.5h107q3 11 4 37t3 59zM217 232q-30 2 -64 1t-65 -3l1 -25v-21t1 -21l35 -2h53
l36 2zM152 703q-5 -4 -14.5 -10.5t-17.5 -23.5h65q-8 17 -18 23t-15 11z" />
    <glyph glyph-name="Atilde" unicode="&#xc3;" horiz-adv-x="306" 
d="M8 276q13 -5 49 -8v95l2 33q3 42 9 80t14.5 69.5t17 56.5t15.5 43l2 3h-187v21h135l-9 16q12 19 27.5 32t32.5 14.5t37 -9.5t41 -39l37 53l19 -33q-15 -23 -30 -34h156v-21h-189l2 -3q15 -37 33 -103t23 -146l2 -33v-16t1 -16v-63q15 2 26.5 3.5t18.5 4.5v-56
q-12 6 -45 9l2 -63q22 3 33 5t12 2v-56q-1 0 -12 2.5t-31 4.5q0 -43 3.5 -76t3.5 -48h117v-21h-446v21h114q2 10 5 46t3 79l-30 -5q-3 -1 -5.5 -1t-4.5 -1t-3 -1v56q4 -1 11 -2q5 -1 13.5 -2t19.5 -3l3 62q-36 -3 -48 -8v56zM205 453q-8 51 -23.5 90t-29.5 64
q-10 -17 -21 -43t-20.5 -57.5t-15.5 -68.5t-6 -76l-2 -32l1 -64q30 -2 64.5 -2t64.5 2v32q0 16 -0.5 32t-1.5 32l-2 31q-1 16 -3.5 31t-4.5 29zM212 96q0 8 0.5 16t0.5 16h-9q-12 2 -25 2h-27h-26t-26 -2h-9q0 -44 3.5 -78.5t3.5 -49.5h107q3 11 4 37t3 59zM217 232
q-30 2 -64 1t-65 -3l1 -25v-21t1 -21l35 -2h53l36 2zM87 669h61q-8 6 -17.5 14.5t-18.5 21.5z" />
    <glyph glyph-name="Adieresis" unicode="&#xc4;" horiz-adv-x="306" 
d="M8 276q13 -5 49 -8v95l2 33q3 42 9 80t14.5 69.5t17 56.5t15.5 43l2 3h-187v21h151q14 27 9.5 47t-15.5 47h56q-6 -19 -10 -29.5t-4.5 -19t2 -18.5t8.5 -27h53q14 28 10 47.5t-15 46.5h56q-6 -19 -10 -29.5t-4.5 -19t2 -18.5t8.5 -27h149v-21h-189l2 -3q15 -37 33 -103
t23 -146l2 -33v-16t1 -16v-63q15 2 26.5 3.5t18.5 4.5v-56q-12 6 -45 9l2 -63q22 3 33 5t12 2v-56q-1 0 -12 2.5t-31 4.5q0 -43 3.5 -76t3.5 -48h117v-21h-446v21h114q2 10 5 46t3 79l-30 -5q-3 -1 -5.5 -1t-4.5 -1t-3 -1v56q4 -1 11 -2q5 -1 13.5 -2t19.5 -3l3 62
q-36 -3 -48 -8v56zM205 453q-8 51 -23.5 90t-29.5 64q-10 -17 -21 -43t-20.5 -57.5t-15.5 -68.5t-6 -76l-2 -32l1 -64q30 -2 64.5 -2t64.5 2v32q0 16 -0.5 32t-1.5 32l-2 31q-1 16 -3.5 31t-4.5 29zM212 96q0 8 0.5 16t0.5 16h-9q-12 2 -25 2h-27h-26t-26 -2h-9
q0 -44 3.5 -78.5t3.5 -49.5h107q3 11 4 37t3 59zM217 232q-30 2 -64 1t-65 -3l1 -25v-21t1 -21l35 -2h53l36 2z" />
    <glyph glyph-name="Aring" unicode="&#xc5;" horiz-adv-x="306" 
d="M8 276q13 -5 49 -8v95l2 33q3 42 9 80t14.5 69.5t17 56.5t15.5 43l2 3h-187v21h192q-11 8 -18 20t-7 26q0 23 16.5 39.5t39.5 16.5t39.5 -16.5t16.5 -39.5q0 -14 -7 -26t-18 -20h192v-21h-189l2 -3q15 -37 33 -103t23 -146l2 -33v-16t1 -16v-63q15 2 26.5 3.5t18.5 4.5
v-56q-12 6 -45 9l2 -63q22 3 33 5t12 2v-56q-1 0 -12 2.5t-31 4.5q0 -43 3.5 -76t3.5 -48h117v-21h-446v21h114q2 10 5 46t3 79l-30 -5q-3 -1 -5.5 -1t-4.5 -1t-3 -1v56q4 -1 11 -2q5 -1 13.5 -2t19.5 -3l3 62q-36 -3 -48 -8v56zM205 453q-8 51 -23.5 90t-29.5 64
q-10 -17 -21 -43t-20.5 -57.5t-15.5 -68.5t-6 -76l-2 -32l1 -64q30 -2 64.5 -2t64.5 2v32q0 16 -0.5 32t-1.5 32l-2 31q-1 16 -3.5 31t-4.5 29zM212 96q0 8 0.5 16t0.5 16h-9q-12 2 -25 2h-27h-26t-26 -2h-9q0 -44 3.5 -78.5t3.5 -49.5h107q3 11 4 37t3 59zM217 232
q-30 2 -64 1t-65 -3l1 -25v-21t1 -21l35 -2h53l36 2zM125 715q0 -11 8.5 -19.5t19.5 -8.5t19.5 8.5t8.5 19.5t-8.5 19.5t-19.5 8.5t-19.5 -8.5t-8.5 -19.5z" />
    <glyph glyph-name="AE" unicode="&#xc6;" horiz-adv-x="453" 
d="M523 669v-21h-126l16 -17q-18 -13 -42 -38.5t-46 -62t-38.5 -84.5t-19.5 -106h40q25 0 46 3.5t32 5.5l9 3v-56q-11 5 -36 6t-51 6h-39v-19q3 -51 18 -95q14 -46 35.5 -79t41.5 -55t34.5 -32.5l14.5 -10.5l-15 -17h126v-21h-593v21h134q2 18 4.5 53.5t4 79t3 89.5t1.5 85
q-22 -2 -43.5 -4.5t-44.5 -6.5v56q15 -2 31 -5q14 -2 29 -4t28 -4v24l2 33q3 42 9 80t14.5 69.5t17 56.5t15.5 43l2 3h-207v21h593zM234 163q2 26 2.5 54.5t0.5 57.5q-1 8 -1 15.5v15.5l-21 4q-14 1 -31 1q-14 0 -34 -0.5t-43 -1.5l2 -104v-25.5t2 -51.5q0 -44 3.5 -78.5
t3.5 -49.5h107q3 11 4 37t3 59q0 8 0.5 16t0.5 16zM107 336l129 6v1q-1 5 -1 9.5v9.5l-2 31q-1 16 -3.5 31t-4.5 29q-8 51 -23.5 90t-29.5 64q-10 -17 -21 -43t-20.5 -57.5t-15.5 -68.5t-6 -76zM209 645q11 -29 25 -75t23 -103q16 60 46 108q5 8 12 20t14.5 23.5t14 20
t9.5 9.5h-146zM272 124q0 -43 3.5 -76t3.5 -48h73q-19 20 -41 54t-40 79z" />
    <glyph glyph-name="Ccedilla" unicode="&#xc7;" horiz-adv-x="249" 
d="M319 669v-21h-119l18 -21q-25 -17 -52.5 -46t-51 -68t-38.5 -87.5t-15 -105.5q0 -43 10.5 -88.5t31 -86.5t49.5 -73.5t65 -49.5l-16 -22h118v-21h-139q-5 -16 -7.5 -27t-3 -21.5t2 -23t8.5 -31.5h-47q6 18 8.5 32t1.5 26t-4 23t-7 22h-202v21l229 1q-21 20 -44.5 52.5
t-42.5 73.5t-31.5 89t-12.5 100q0 61 13.5 113t34 94t43 73t40.5 50l2 2h-231v21h389z" />
    <glyph glyph-name="Egrave" unicode="&#xc8;" horiz-adv-x="259" 
d="M70 753q26 -11 44.5 -20.5t32 -18.5t23.5 -20t20 -25h139v-21h-106l16 -17q-18 -13 -42 -38.5t-46 -62t-38.5 -84.5t-19.5 -106h40q25 0 46 3.5t32 5.5l9 3v-56q-11 5 -36 6t-51 6h-40q3 -63 19 -114q14 -46 35.5 -79t41.5 -55t34.5 -32.5l14.5 -10.5l-15 -17h106v-21
h-399v21h248q-17 19 -37 50t-37.5 70.5t-29.5 86.5t-12 99l-23 -3q-14 -2 -23.5 -5t-10.5 -2v56q1 -1 3 -1q2 -1 3.5 -1t3.5 -1l24 -5l23 -2q4 66 21.5 126.5t45.5 106.5q5 8 12 20t14.5 23.5t14 20t9.5 9.5h-249v21h218l-5 19l-66 10z" />
    <glyph glyph-name="Eacute" unicode="&#xc9;" horiz-adv-x="259" 
d="M221 698l-66 -10l-5 -19h179v-21h-106l16 -17q-18 -13 -42 -38.5t-46 -62t-38.5 -84.5t-19.5 -106h40q25 0 46 3.5t32 5.5l9 3v-56q-11 5 -36 6t-51 6h-40q3 -63 19 -114q14 -46 35.5 -79t41.5 -55t34.5 -32.5l14.5 -10.5l-15 -17h106v-21h-399v21h248q-17 19 -37 50
t-37.5 70.5t-29.5 86.5t-12 99l-23 -3q-14 -2 -23.5 -5t-10.5 -2v56q1 -1 3 -1q2 -1 3.5 -1t3.5 -1l24 -5l23 -2q4 66 21.5 126.5t45.5 106.5q5 8 12 20t14.5 23.5t14 20t9.5 9.5h-249v21h178q10 14 20 25t23.5 20t31.5 18.5t45 20.5z" />
    <glyph glyph-name="Ecircumflex" unicode="&#xca;" horiz-adv-x="259" 
d="M165 742q5 -28 22.5 -43.5t44.5 -29.5h97v-21h-106l16 -17q-18 -13 -42 -38.5t-46 -62t-38.5 -84.5t-19.5 -106h40q25 0 46 3.5t32 5.5l9 3v-56q-11 5 -36 6t-51 6h-40q3 -63 19 -114q14 -46 35.5 -79t41.5 -55t34.5 -32.5l14.5 -10.5l-15 -17h106v-21h-399v21h248
q-17 19 -37 50t-37.5 70.5t-29.5 86.5t-12 99l-23 -3q-14 -2 -23.5 -5t-10.5 -2v56q1 -1 3 -1q2 -1 3.5 -1t3.5 -1l24 -5l23 -2q4 66 21.5 126.5t45.5 106.5q5 8 12 20t14.5 23.5t14 20t9.5 9.5h-249v21h127q27 14 44.5 29.5t22.5 43.5h41zM144 703q-5 -4 -14.5 -10.5
t-17.5 -23.5h65q-8 17 -18 23t-15 11z" />
    <glyph glyph-name="Edieresis" unicode="&#xcb;" horiz-adv-x="259" 
d="M218 763q-6 -19 -10 -29.5t-4.5 -19t2 -18.5t8.5 -27h115v-21h-106l16 -17q-18 -13 -42 -38.5t-46 -62t-38.5 -84.5t-19.5 -106h40q25 0 46 3.5t32 5.5l9 3v-56q-11 5 -36 6t-51 6h-40q3 -63 19 -114q14 -46 35.5 -79t41.5 -55t34.5 -32.5l14.5 -10.5l-15 -17h106v-21
h-399v21h248q-17 19 -37 50t-37.5 70.5t-29.5 86.5t-12 99l-23 -3q-14 -2 -23.5 -5t-10.5 -2v56q1 -1 3 -1q2 -1 3.5 -1t3.5 -1l24 -5l23 -2q4 66 21.5 126.5t45.5 106.5q5 8 12 20t14.5 23.5t14 20t9.5 9.5h-249v21h137q14 28 10 47.5t-15 46.5h56q-6 -19 -10 -29.5
t-4.5 -19t2 -18.5t8.5 -27h53q14 28 10 47.5t-15 46.5h56z" />
    <glyph glyph-name="Igrave" unicode="&#xcc;" 
d="M50 753q26 -11 44.5 -20.5t32 -18.5t23.5 -20t20 -25h167v-21h-93v-38q-1 0 -24.5 5.5t-57.5 5.5q0 -10 -1.5 -28.5t-3 -42.5t-3 -53.5t-1.5 -60.5l-2 -55v-114l2 -56q0 -33 1.5 -62.5t3 -54t3 -42t1.5 -25.5h14q26 2 47 6t21 5v-38h93v-21h-407v21h99v38q5 -2 25 -5.5
t43 -5.5h11q1 3 1 7.5t1 9.5l5 69l3 98q1 27 2 55.5t0 57.5q0 55 -1.5 110.5t-3.5 100.5l-5 69q-1 5 -1 9.5t-1 7.5q-12 0 -25.5 -1.5t-25 -3.5t-19.5 -4t-9 -2v38h-99v21h198l-5 19l-66 10z" />
    <glyph glyph-name="Iacute" unicode="&#xcd;" 
d="M220 698l-66 -10l-5 -19h188v-21h-93v-38q-1 0 -24.5 5.5t-57.5 5.5q0 -10 -1.5 -28.5t-3 -42.5t-3 -53.5t-1.5 -60.5l-2 -55v-114l2 -56q0 -33 1.5 -62.5t3 -54t3 -42t1.5 -25.5h14q26 2 47 6t21 5v-38h93v-21h-407v21h99v38q5 -2 25 -5.5t43 -5.5h11q1 3 1 7.5t1 9.5
l5 69l3 98q1 27 2 55.5t0 57.5q0 55 -1.5 110.5t-3.5 100.5l-5 69q-1 5 -1 9.5t-1 7.5q-12 0 -25.5 -1.5t-25 -3.5t-19.5 -4t-9 -2v38h-99v21h177q10 14 20 25t23.5 20t31.5 18.5t45 20.5z" />
    <glyph glyph-name="Icircumflex" unicode="&#xce;" 
d="M154 742q5 -28 22.5 -43.5t44.5 -29.5h116v-21h-93v-38q-1 0 -24.5 5.5t-57.5 5.5q0 -10 -1.5 -28.5t-3 -42.5t-3 -53.5t-1.5 -60.5l-2 -55v-114l2 -56q0 -33 1.5 -62.5t3 -54t3 -42t1.5 -25.5h14q26 2 47 6t21 5v-38h93v-21h-407v21h99v38q5 -2 25 -5.5t43 -5.5h11
q1 3 1 7.5t1 9.5l5 69l3 98q1 27 2 55.5t0 57.5q0 55 -1.5 110.5t-3.5 100.5l-5 69q-1 5 -1 9.5t-1 7.5q-12 0 -25.5 -1.5t-25 -3.5t-19.5 -4t-9 -2v38h-99v21h116q27 14 44.5 29.5t22.5 43.5h41zM133 703q-5 -4 -14.5 -10.5t-17.5 -23.5h65q-8 17 -18 23t-15 11z" />
    <glyph glyph-name="Idieresis" unicode="&#xcf;" 
d="M211 763q-6 -19 -10 -29.5t-4.5 -19t2 -18.5t8.5 -27h130v-21h-93v-38q-1 0 -24.5 5.5t-57.5 5.5q0 -10 -1.5 -28.5t-3 -42.5t-3 -53.5t-1.5 -60.5l-2 -55v-114l2 -56q0 -33 1.5 -62.5t3 -54t3 -42t1.5 -25.5h14q26 2 47 6t21 5v-38h93v-21h-407v21h99v38q5 -2 25 -5.5
t43 -5.5h11q1 3 1 7.5t1 9.5l5 69l3 98q1 27 2 55.5t0 57.5q0 55 -1.5 110.5t-3.5 100.5l-5 69q-1 5 -1 9.5t-1 7.5q-12 0 -25.5 -1.5t-25 -3.5t-19.5 -4t-9 -2v38h-99v21h130q14 28 10 47.5t-15 46.5h56q-6 -19 -10 -29.5t-4.5 -19t2 -18.5t8.5 -27h53q14 28 10 47.5
t-15 46.5h56z" />
    <glyph glyph-name="Eth" unicode="&#xd0;" horiz-adv-x="277" 
d="M-32 336q34 -12 82 -14q0 48 -1 101t-2.5 99t-3.5 80t-5 46h-108v21h417v-21h-247l7 -6q21 -20 45.5 -50.5t44.5 -69.5t33.5 -86t13.5 -99q0 -59 -14 -110.5t-35 -93.5t-45 -74t-43 -51l-8 -8h248v-21h-417v21h108q1 3 1 7.5t1 10.5l5 76l3 107q1 22 1.5 46.5t0.5 47.5
q-26 -2 -47.5 -6t-34.5 -9v56zM81 321q52 2 91 15v-56q-15 8 -39.5 12t-51.5 4v-35l2 -60q0 -61 3 -107l2 -36q22 19 44.5 46.5t40.5 62t29 75t11 84.5q0 52 -12 94.5t-30.5 75.5t-40.5 57t-42 40l-2 -39q-3 -47 -3 -107l-2 -61v-65z" />
    <glyph glyph-name="Ntilde" unicode="&#xd1;" horiz-adv-x="355" 
d="M-70 669h171l-12 22q12 19 27.5 32t32.5 14.5t37 -9.5t41 -39l37 53l19 -33q-19 -30 -40 -40h182v-21h-111q0 -11 -1 -36.5t-2.5 -61t-3.5 -78t-4 -86.5q0 -56 1.5 -118t4 -117t4 -96t1.5 -55h111v-21h-495v21h116q0 11 1 37t2.5 61t3.5 77t4 86q0 57 -1.5 119t-4 116.5
t-4 95.5t-1.5 56h-116v21zM89 386q0 -15 -0.5 -30.5t-0.5 -31.5q0 -49 1 -102t2.5 -98.5t3.5 -79.5t5 -44h160q3 10 5 43t3.5 78t2.5 98t1 105v23v25t-1 21t-4 12q-21 9 -43 29.5t-44 46.5t-44 53.5t-41 50.5q-4 -36 -5 -89.5t-1 -109.5zM104 648q5 -14 15.5 -31t24.5 -37
q4 -7 18 -25.5t32.5 -39t38.5 -38t37 -21.5q-1 34 -2 65.5t-2 57t-2.5 43.5t-3.5 26h-156zM115 669h76q-23 11 -46 42z" />
    <glyph glyph-name="Ograve" unicode="&#xd2;" horiz-adv-x="318" 
d="M62 753q26 -11 44.5 -20.5t32 -18.5t23.5 -20t20 -25h206v-21h-197q23 -23 40 -61t28.5 -83.5t17 -96.5t5.5 -100q0 -107 -20.5 -183.5t-52.5 -117.5q-4 -4 -5 -6h184v-21h-458v21h197q-24 23 -41.5 62t-29 87t-17 101t-5.5 104q0 46 6 92t16.5 85t24.5 69.5t31 47.5
h-182v21h210l-5 19l-66 10zM199 556q-13 24 -25.5 37t-21.5 22q-24 -24 -40.5 -57.5t-26.5 -71.5t-14.5 -80.5t-4.5 -84.5q4 -83 17 -135t28.5 -83t30.5 -46t23 -22q2 1 6 5q21 20 36.5 51.5t25 70t14 81.5t4.5 85q-2 28 -5.5 59t-9.5 61t-15 57.5t-22 50.5zM114 318l45 79
l48 -67l-47 -79z" />
    <glyph glyph-name="Oacute" unicode="&#xd3;" horiz-adv-x="318" 
d="M236 698l-66 -10l-5 -19h223v-21h-197q23 -23 40 -61t28.5 -83.5t17 -96.5t5.5 -100q0 -107 -20.5 -183.5t-52.5 -117.5q-4 -4 -5 -6h184v-21h-458v21h197q-24 23 -41.5 62t-29 87t-17 101t-5.5 104q0 46 6 92t16.5 85t24.5 69.5t31 47.5h-182v21h193q10 14 20 25
t23.5 20t31.5 18.5t45 20.5zM199 556q-13 24 -25.5 37t-21.5 22q-24 -24 -40.5 -57.5t-26.5 -71.5t-14.5 -80.5t-4.5 -84.5q4 -83 17 -135t28.5 -83t30.5 -46t23 -22q2 1 6 5q21 20 36.5 51.5t25 70t14 81.5t4.5 85q-2 28 -5.5 59t-9.5 61t-15 57.5t-22 50.5zM114 318l45 79
l48 -67l-47 -79z" />
    <glyph glyph-name="Ocircumflex" unicode="&#xd4;" horiz-adv-x="318" 
d="M179 742q5 -28 22.5 -43.5t44.5 -29.5h142v-21h-197q23 -23 40 -61t28.5 -83.5t17 -96.5t5.5 -100q0 -107 -20.5 -183.5t-52.5 -117.5q-4 -4 -5 -6h184v-21h-458v21h197q-24 23 -41.5 62t-29 87t-17 101t-5.5 104q0 46 6 92t16.5 85t24.5 69.5t31 47.5h-182v21h141
q27 14 44.5 29.5t22.5 43.5h41zM199 556q-13 24 -25.5 37t-21.5 22q-24 -24 -40.5 -57.5t-26.5 -71.5t-14.5 -80.5t-4.5 -84.5q4 -83 17 -135t28.5 -83t30.5 -46t23 -22q2 1 6 5q21 20 36.5 51.5t25 70t14 81.5t4.5 85q-2 28 -5.5 59t-9.5 61t-15 57.5t-22 50.5zM114 318
l45 79l48 -67l-47 -79zM158 703q-5 -4 -14.5 -10.5t-17.5 -23.5h65q-8 17 -18 23t-15 11z" />
    <glyph glyph-name="Otilde" unicode="&#xd5;" horiz-adv-x="318" 
d="M71 669l-9 16q12 19 27.5 32t32.5 14.5t37 -9.5t41 -39l37 53l19 -33q-15 -23 -30 -34h162v-21h-197q23 -23 40 -61t28.5 -83.5t17 -96.5t5.5 -100q0 -107 -20.5 -183.5t-52.5 -117.5q-4 -4 -5 -6h184v-21h-458v21h197q-24 23 -41.5 62t-29 87t-17 101t-5.5 104
q0 46 6 92t16.5 85t24.5 69.5t31 47.5h-182v21h141zM199 556q-13 24 -25.5 37t-21.5 22q-24 -24 -40.5 -57.5t-26.5 -71.5t-14.5 -80.5t-4.5 -84.5q4 -83 17 -135t28.5 -83t30.5 -46t23 -22q2 1 6 5q21 20 36.5 51.5t25 70t14 81.5t4.5 85q-2 28 -5.5 59t-9.5 61t-15 57.5
t-22 50.5zM114 318l45 79l48 -67l-47 -79zM93 669h61q-8 6 -17.5 14.5t-18.5 21.5z" />
    <glyph glyph-name="Odieresis" unicode="&#xd6;" horiz-adv-x="318" 
d="M237 763q-6 -19 -10 -29.5t-4.5 -19t2 -18.5t8.5 -27h155v-21h-197q23 -23 40 -61t28.5 -83.5t17 -96.5t5.5 -100q0 -107 -20.5 -183.5t-52.5 -117.5q-4 -4 -5 -6h184v-21h-458v21h197q-24 23 -41.5 62t-29 87t-17 101t-5.5 104q0 46 6 92t16.5 85t24.5 69.5t31 47.5
h-182v21h156q14 28 10 47.5t-15 46.5h56q-6 -19 -10 -29.5t-4.5 -19t2 -18.5t8.5 -27h53q14 28 10 47.5t-15 46.5h56zM199 556q-13 24 -25.5 37t-21.5 22q-24 -24 -40.5 -57.5t-26.5 -71.5t-14.5 -80.5t-4.5 -84.5q4 -83 17 -135t28.5 -83t30.5 -46t23 -22q2 1 6 5
q21 20 36.5 51.5t25 70t14 81.5t4.5 85q-2 28 -5.5 59t-9.5 61t-15 57.5t-22 50.5zM114 318l45 79l48 -67l-47 -79z" />
    <glyph glyph-name="multiply" unicode="&#xd7;" 
d="M187 216q-8 17 -22 36t-31 37q-19 -20 -32.5 -39.5t-18.5 -33.5l-40 40q17 8 35.5 21.5t36.5 30.5q-17 17 -36 30.5t-36 21.5l40 40q4 -17 17.5 -36t32.5 -38q17 17 31 36.5t23 37.5l40 -40q-17 -5 -36.5 -19t-38.5 -33q20 -19 40.5 -33t34.5 -19zM-70 648v21h407v-21
h-407zM337 0v-21h-407v21h407z" />
    <glyph glyph-name="Oslash" unicode="&#xd8;" horiz-adv-x="318" 
d="M-70 669h458v-21h-111l-4 -22q-6 -33 -23 -87q16 -52 24 -112.5t8 -119.5q0 -107 -20.5 -183.5t-52.5 -117.5q-4 -4 -5 -6h184v-21h-458v21h115q0 2 0.5 4.5t0.5 4.5l3 14q3 15 8.5 34t13.5 42q-19 55 -28 122t-9 133q0 46 6 92t16.5 85t24.5 69.5t31 47.5h-182v21z
M199 556q-13 24 -25.5 37t-21.5 22q-24 -24 -40.5 -57.5t-26.5 -71.5t-14.5 -80.5t-4.5 -84.5q2 -54 8.5 -94.5t15.5 -69.5q5 12 8.5 24.5t8.5 26.5l20 59l40 123q13 41 23 78.5t18 69.5zM251 328q-2 35 -7 73.5t-14 74.5l-12 -36l-20 -60l-40 -123q-14 -41 -25.5 -81.5
t-19.5 -75.5q15 -29 29.5 -43t22.5 -22q2 1 6 5q21 20 36.5 51.5t25 70t14 81.5t4.5 85zM191 648q16 -16 30 -41l2 25v16h-32zM127 0q-14 12 -27 34q-1 -5 -1 -10v-9v-15h28z" />
    <glyph glyph-name="Ugrave" unicode="&#xd9;" horiz-adv-x="308" 
d="M90 753q26 -11 44.5 -20.5t32 -18.5t23.5 -20t20 -25h168v-21h-105q0 -18 -0.5 -28.5t-1.5 -23t-2 -31t-2 -52.5t-1.5 -88t-0.5 -137q0 -77 0.5 -123.5t1.5 -73t2 -38t2 -17.5t1.5 -12.5t0.5 -23.5h105v-21h-448v21h257q-17 8 -34.5 23t-33.5 34.5t-29.5 43.5t-21.5 50
q-7 21 -11 61t-6.5 88.5t-4 101t-2.5 98t-2 80t-3 47.5q0 7 -0.5 12t-0.5 9h-108v21h238l-5 19l-66 10zM92 648q-5 -63 -7.5 -124t-2.5 -134q0 -89 5.5 -142t13 -82t15 -40t10.5 -16q3 -4 4 -5.5t3.5 -4.5t8.5 -9.5t18 -18.5q17 -14 33 -22t29 -12q1 10 1.5 26.5t1.5 52.5
t1.5 98t0.5 163v64.5v54.5t-0.5 39t-0.5 18q-2 35 -3.5 60t-3.5 34h-127z" />
    <glyph glyph-name="Uacute" unicode="&#xda;" horiz-adv-x="308" 
d="M210 698l-66 -10l-5 -19h239v-21h-105q0 -18 -0.5 -28.5t-1.5 -23t-2 -31t-2 -52.5t-1.5 -88t-0.5 -137q0 -77 0.5 -123.5t1.5 -73t2 -38t2 -17.5t1.5 -12.5t0.5 -23.5h105v-21h-448v21h257q-17 8 -34.5 23t-33.5 34.5t-29.5 43.5t-21.5 50q-7 21 -11 61t-6.5 88.5
t-4 101t-2.5 98t-2 80t-3 47.5q0 7 -0.5 12t-0.5 9h-108v21h167q10 14 20 25t23.5 20t31.5 18.5t45 20.5zM92 648q-5 -63 -7.5 -124t-2.5 -134q0 -89 5.5 -142t13 -82t15 -40t10.5 -16q3 -4 4 -5.5t3.5 -4.5t8.5 -9.5t18 -18.5q17 -14 33 -22t29 -12q1 10 1.5 26.5t1.5 52.5
t1.5 98t0.5 163v64.5v54.5t-0.5 39t-0.5 18q-2 35 -3.5 60t-3.5 34h-127z" />
    <glyph glyph-name="Ucircumflex" unicode="&#xdb;" horiz-adv-x="308" 
d="M174 742q5 -28 22.5 -43.5t44.5 -29.5h137v-21h-105q0 -18 -0.5 -28.5t-1.5 -23t-2 -31t-2 -52.5t-1.5 -88t-0.5 -137q0 -77 0.5 -123.5t1.5 -73t2 -38t2 -17.5t1.5 -12.5t0.5 -23.5h105v-21h-448v21h257q-17 8 -34.5 23t-33.5 34.5t-29.5 43.5t-21.5 50q-7 21 -11 61
t-6.5 88.5t-4 101t-2.5 98t-2 80t-3 47.5q0 7 -0.5 12t-0.5 9h-108v21h136q27 14 44.5 29.5t22.5 43.5h41zM92 648q-5 -63 -7.5 -124t-2.5 -134q0 -89 5.5 -142t13 -82t15 -40t10.5 -16q3 -4 4 -5.5t3.5 -4.5t8.5 -9.5t18 -18.5q17 -14 33 -22t29 -12q1 10 1.5 26.5
t1.5 52.5t1.5 98t0.5 163v64.5v54.5t-0.5 39t-0.5 18q-2 35 -3.5 60t-3.5 34h-127zM153 703q-5 -4 -14.5 -10.5t-17.5 -23.5h65q-8 17 -18 23t-15 11z" />
    <glyph glyph-name="Udieresis" unicode="&#xdc;" horiz-adv-x="308" 
d="M232 763q-6 -19 -10 -29.5t-4.5 -19t2 -18.5t8.5 -27h150v-21h-105q0 -18 -0.5 -28.5t-1.5 -23t-2 -31t-2 -52.5t-1.5 -88t-0.5 -137q0 -77 0.5 -123.5t1.5 -73t2 -38t2 -17.5t1.5 -12.5t0.5 -23.5h105v-21h-448v21h257q-17 8 -34.5 23t-33.5 34.5t-29.5 43.5t-21.5 50
q-7 21 -11 61t-6.5 88.5t-4 101t-2.5 98t-2 80t-3 47.5q0 7 -0.5 12t-0.5 9h-108v21h152q14 27 9.5 47t-15.5 47h56q-6 -19 -10 -29.5t-4.5 -19t2 -18.5t8.5 -27h53q14 28 10 47.5t-15 46.5h56zM92 648q-5 -63 -7.5 -124t-2.5 -134q0 -89 5.5 -142t13 -82t15 -40t10.5 -16
q3 -4 4 -5.5t3.5 -4.5t8.5 -9.5t18 -18.5q17 -14 33 -22t29 -12q1 10 1.5 26.5t1.5 52.5t1.5 98t0.5 163v64.5v54.5t-0.5 39t-0.5 18q-2 35 -3.5 60t-3.5 34h-127z" />
    <glyph glyph-name="Yacute" unicode="&#xdd;" horiz-adv-x="286" 
d="M199 698l-66 -10l-5 -19h228v-21h-101q0 -17 -4.5 -54t-7.5 -82t-9.5 -84.5t-16.5 -77t-23.5 -73.5t-31.5 -74q1 -34 2.5 -65.5t3 -58.5t3 -47t1.5 -32h184v-21h-426v21h188q2 10 3.5 30.5t2.5 48t2 61t2 69.5q-24 45 -42 83t-29 85q-9 46 -13.5 89.5t-6.5 79.5
t-3.5 62.5t-3.5 39.5h-100v21h156q10 14 20 25t23.5 20t31.5 18.5t45 20.5zM79 552q0 -50 3 -91t10 -77t19 -68t30 -62q29 39 48.5 103.5t19.5 156.5q0 48 -3.5 84.5t-3.5 49.5h-118q0 -13 -2 -38t-3 -58z" />
    <glyph glyph-name="Thorn" unicode="&#xde;" horiz-adv-x="274" 
d="M-70 669h414v-21h-243l-11 -83q36 -21 67 -46.5t54 -54t36.5 -61t13.5 -66.5q0 -48 -17.5 -88.5t-44 -72.5t-57 -54t-56.5 -33q1 -32 3.5 -55t2.5 -34h252v-21h-414v21h108q2 8 4 33t3.5 61t2.5 79t1 88q0 58 -1.5 120.5t-4 117t-4 95t-1.5 54.5h-108v21zM81 336v-52v-45
t0.5 -44t2.5 -50q29 10 55.5 27t46.5 40.5t32 52t12 61.5q0 37 -11.5 66.5t-31.5 52.5t-46 39.5t-55 27.5q-1 -19 -2 -37t-1.5 -38.5t-1 -45t-0.5 -55.5z" />
    <glyph glyph-name="germandbls" unicode="&#xdf;" horiz-adv-x="272" 
d="M230 201q0 -68 -18 -120t-46 -81h176v-21h-412v21h110q1 3 1 7.5t1 10.5l5 76l3 107q0 30 1 61t1 62q0 32 -0.5 63t-1.5 60q-1 61 3.5 100t10 60.5t10 30t4.5 10.5h-148v21h412v-21h-208q20 -6 36.5 -21t28.5 -35t18.5 -43t6.5 -45q0 -51 -20 -84t-48 -53
q42 -30 57.5 -74t16.5 -92zM95 0h43l-25 29q19 9 34 26.5t26 40t17.5 47.5t8.5 49q0 59 -20.5 94t-65.5 52l-1 47q13 3 27 13.5t26 26t20 35.5t8 44q-2 21 -9 40.5t-17.5 33.5t-23.5 21t-26 3q-16 -5 -23.5 -27.5t-10.5 -49t-3 -49.5v-29l-1 -186l6 -60q1 -29 1 -56.5
t2 -50.5z" />
    <glyph glyph-name="agrave" unicode="&#xe0;" horiz-adv-x="306" 
d="M8 276q13 -5 49 -8v95l2 33q3 42 9 80t14.5 69.5t17 56.5t15.5 43l2 3h-187v21h204l-5 19l-66 10l-7 55q26 -11 44.5 -20.5t32 -18.5t23.5 -20t20 -25h200v-21h-189l2 -3q15 -37 33 -103t23 -146l2 -33v-16t1 -16v-63q15 2 26.5 3.5t18.5 4.5v-56q-12 6 -45 9l2 -63
q22 3 33 5t12 2v-56q-1 0 -12 2.5t-31 4.5q0 -43 3.5 -76t3.5 -48h117v-21h-446v21h114q2 10 5 46t3 79l-30 -5q-3 -1 -5.5 -1t-4.5 -1t-3 -1v56q4 -1 11 -2q5 -1 13.5 -2t19.5 -3l3 62q-36 -3 -48 -8v56zM205 453q-8 51 -23.5 90t-29.5 64q-10 -17 -21 -43t-20.5 -57.5
t-15.5 -68.5t-6 -76l-2 -32l1 -64q30 -2 64.5 -2t64.5 2v32q0 16 -0.5 32t-1.5 32l-2 31q-1 16 -3.5 31t-4.5 29zM212 96q0 8 0.5 16t0.5 16h-9q-12 2 -25 2h-27h-26t-26 -2h-9q0 -44 3.5 -78.5t3.5 -49.5h107q3 11 4 37t3 59zM217 232q-30 2 -64 1t-65 -3l1 -25v-21t1 -21
l35 -2h53l36 2z" />
    <glyph glyph-name="aacute" unicode="&#xe1;" horiz-adv-x="306" 
d="M8 276q13 -5 49 -8v95l2 33q3 42 9 80t14.5 69.5t17 56.5t15.5 43l2 3h-187v21h197q10 14 20 25t23.5 20t31.5 18.5t45 20.5l-7 -55l-66 -10l-5 -19h207v-21h-189l2 -3q15 -37 33 -103t23 -146l2 -33v-16t1 -16v-63q15 2 26.5 3.5t18.5 4.5v-56q-12 6 -45 9l2 -63
q22 3 33 5t12 2v-56q-1 0 -12 2.5t-31 4.5q0 -43 3.5 -76t3.5 -48h117v-21h-446v21h114q2 10 5 46t3 79l-30 -5q-3 -1 -5.5 -1t-4.5 -1t-3 -1v56q4 -1 11 -2q5 -1 13.5 -2t19.5 -3l3 62q-36 -3 -48 -8v56zM205 453q-8 51 -23.5 90t-29.5 64q-10 -17 -21 -43t-20.5 -57.5
t-15.5 -68.5t-6 -76l-2 -32l1 -64q30 -2 64.5 -2t64.5 2v32q0 16 -0.5 32t-1.5 32l-2 31q-1 16 -3.5 31t-4.5 29zM212 96q0 8 0.5 16t0.5 16h-9q-12 2 -25 2h-27h-26t-26 -2h-9q0 -44 3.5 -78.5t3.5 -49.5h107q3 11 4 37t3 59zM217 232q-30 2 -64 1t-65 -3l1 -25v-21t1 -21
l35 -2h53l36 2z" />
    <glyph glyph-name="acircumflex" unicode="&#xe2;" horiz-adv-x="306" 
d="M8 276q13 -5 49 -8v95l2 33q3 42 9 80t14.5 69.5t17 56.5t15.5 43l2 3h-187v21h135q27 14 44.5 29.5t22.5 43.5h41q5 -28 22.5 -43.5t44.5 -29.5h136v-21h-189l2 -3q15 -37 33 -103t23 -146l2 -33v-16t1 -16v-63q15 2 26.5 3.5t18.5 4.5v-56q-12 6 -45 9l2 -63q22 3 33 5
t12 2v-56q-1 0 -12 2.5t-31 4.5q0 -43 3.5 -76t3.5 -48h117v-21h-446v21h114q2 10 5 46t3 79l-30 -5q-3 -1 -5.5 -1t-4.5 -1t-3 -1v56q4 -1 11 -2q5 -1 13.5 -2t19.5 -3l3 62q-36 -3 -48 -8v56zM205 453q-8 51 -23.5 90t-29.5 64q-10 -17 -21 -43t-20.5 -57.5t-15.5 -68.5
t-6 -76l-2 -32l1 -64q30 -2 64.5 -2t64.5 2v32q0 16 -0.5 32t-1.5 32l-2 31q-1 16 -3.5 31t-4.5 29zM212 96q0 8 0.5 16t0.5 16h-9q-12 2 -25 2h-27h-26t-26 -2h-9q0 -44 3.5 -78.5t3.5 -49.5h107q3 11 4 37t3 59zM217 232q-30 2 -64 1t-65 -3l1 -25v-21t1 -21l35 -2h53
l36 2zM152 703q-5 -4 -14.5 -10.5t-17.5 -23.5h65q-8 17 -18 23t-15 11z" />
    <glyph glyph-name="atilde" unicode="&#xe3;" horiz-adv-x="306" 
d="M8 276q13 -5 49 -8v95l2 33q3 42 9 80t14.5 69.5t17 56.5t15.5 43l2 3h-187v21h135l-9 16q12 19 27.5 32t32.5 14.5t37 -9.5t41 -39l37 53l19 -33q-15 -23 -30 -34h156v-21h-189l2 -3q15 -37 33 -103t23 -146l2 -33v-16t1 -16v-63q15 2 26.5 3.5t18.5 4.5v-56
q-12 6 -45 9l2 -63q22 3 33 5t12 2v-56q-1 0 -12 2.5t-31 4.5q0 -43 3.5 -76t3.5 -48h117v-21h-446v21h114q2 10 5 46t3 79l-30 -5q-3 -1 -5.5 -1t-4.5 -1t-3 -1v56q4 -1 11 -2q5 -1 13.5 -2t19.5 -3l3 62q-36 -3 -48 -8v56zM205 453q-8 51 -23.5 90t-29.5 64
q-10 -17 -21 -43t-20.5 -57.5t-15.5 -68.5t-6 -76l-2 -32l1 -64q30 -2 64.5 -2t64.5 2v32q0 16 -0.5 32t-1.5 32l-2 31q-1 16 -3.5 31t-4.5 29zM212 96q0 8 0.5 16t0.5 16h-9q-12 2 -25 2h-27h-26t-26 -2h-9q0 -44 3.5 -78.5t3.5 -49.5h107q3 11 4 37t3 59zM217 232
q-30 2 -64 1t-65 -3l1 -25v-21t1 -21l35 -2h53l36 2zM87 669h61q-8 6 -17.5 14.5t-18.5 21.5z" />
    <glyph glyph-name="adieresis" unicode="&#xe4;" horiz-adv-x="306" 
d="M8 276q13 -5 49 -8v95l2 33q3 42 9 80t14.5 69.5t17 56.5t15.5 43l2 3h-187v21h151q14 27 9.5 47t-15.5 47h56q-6 -19 -10 -29.5t-4.5 -19t2 -18.5t8.5 -27h53q14 28 10 47.5t-15 46.5h56q-6 -19 -10 -29.5t-4.5 -19t2 -18.5t8.5 -27h149v-21h-189l2 -3q15 -37 33 -103
t23 -146l2 -33v-16t1 -16v-63q15 2 26.5 3.5t18.5 4.5v-56q-12 6 -45 9l2 -63q22 3 33 5t12 2v-56q-1 0 -12 2.5t-31 4.5q0 -43 3.5 -76t3.5 -48h117v-21h-446v21h114q2 10 5 46t3 79l-30 -5q-3 -1 -5.5 -1t-4.5 -1t-3 -1v56q4 -1 11 -2q5 -1 13.5 -2t19.5 -3l3 62
q-36 -3 -48 -8v56zM205 453q-8 51 -23.5 90t-29.5 64q-10 -17 -21 -43t-20.5 -57.5t-15.5 -68.5t-6 -76l-2 -32l1 -64q30 -2 64.5 -2t64.5 2v32q0 16 -0.5 32t-1.5 32l-2 31q-1 16 -3.5 31t-4.5 29zM212 96q0 8 0.5 16t0.5 16h-9q-12 2 -25 2h-27h-26t-26 -2h-9
q0 -44 3.5 -78.5t3.5 -49.5h107q3 11 4 37t3 59zM217 232q-30 2 -64 1t-65 -3l1 -25v-21t1 -21l35 -2h53l36 2z" />
    <glyph glyph-name="aring" unicode="&#xe5;" horiz-adv-x="306" 
d="M8 276q13 -5 49 -8v95l2 33q3 42 9 80t14.5 69.5t17 56.5t15.5 43l2 3h-187v21h192q-11 8 -18 20t-7 26q0 23 16.5 39.5t39.5 16.5t39.5 -16.5t16.5 -39.5q0 -14 -7 -26t-18 -20h192v-21h-189l2 -3q15 -37 33 -103t23 -146l2 -33v-16t1 -16v-63q15 2 26.5 3.5t18.5 4.5
v-56q-12 6 -45 9l2 -63q22 3 33 5t12 2v-56q-1 0 -12 2.5t-31 4.5q0 -43 3.5 -76t3.5 -48h117v-21h-446v21h114q2 10 5 46t3 79l-30 -5q-3 -1 -5.5 -1t-4.5 -1t-3 -1v56q4 -1 11 -2q5 -1 13.5 -2t19.5 -3l3 62q-36 -3 -48 -8v56zM205 453q-8 51 -23.5 90t-29.5 64
q-10 -17 -21 -43t-20.5 -57.5t-15.5 -68.5t-6 -76l-2 -32l1 -64q30 -2 64.5 -2t64.5 2v32q0 16 -0.5 32t-1.5 32l-2 31q-1 16 -3.5 31t-4.5 29zM212 96q0 8 0.5 16t0.5 16h-9q-12 2 -25 2h-27h-26t-26 -2h-9q0 -44 3.5 -78.5t3.5 -49.5h107q3 11 4 37t3 59zM217 232
q-30 2 -64 1t-65 -3l1 -25v-21t1 -21l35 -2h53l36 2zM125 715q0 -11 8.5 -19.5t19.5 -8.5t19.5 8.5t8.5 19.5t-8.5 19.5t-19.5 8.5t-19.5 -8.5t-8.5 -19.5z" />
    <glyph glyph-name="ae" unicode="&#xe6;" horiz-adv-x="453" 
d="M523 669v-21h-126l16 -17q-18 -13 -42 -38.5t-46 -62t-38.5 -84.5t-19.5 -106h40q25 0 46 3.5t32 5.5l9 3v-56q-11 5 -36 6t-51 6h-39v-19q3 -51 18 -95q14 -46 35.5 -79t41.5 -55t34.5 -32.5l14.5 -10.5l-15 -17h126v-21h-593v21h134q2 18 4.5 53.5t4 79t3 89.5t1.5 85
q-22 -2 -43.5 -4.5t-44.5 -6.5v56q15 -2 31 -5q14 -2 29 -4t28 -4v24l2 33q3 42 9 80t14.5 69.5t17 56.5t15.5 43l2 3h-207v21h593zM234 163q2 26 2.5 54.5t0.5 57.5q-1 8 -1 15.5v15.5l-21 4q-14 1 -31 1q-14 0 -34 -0.5t-43 -1.5l2 -104v-25.5t2 -51.5q0 -44 3.5 -78.5
t3.5 -49.5h107q3 11 4 37t3 59q0 8 0.5 16t0.5 16zM107 336l129 6v1q-1 5 -1 9.5v9.5l-2 31q-1 16 -3.5 31t-4.5 29q-8 51 -23.5 90t-29.5 64q-10 -17 -21 -43t-20.5 -57.5t-15.5 -68.5t-6 -76zM209 645q11 -29 25 -75t23 -103q16 60 46 108q5 8 12 20t14.5 23.5t14 20
t9.5 9.5h-146zM272 124q0 -43 3.5 -76t3.5 -48h73q-19 20 -41 54t-40 79z" />
    <glyph glyph-name="ccedilla" unicode="&#xe7;" horiz-adv-x="249" 
d="M319 669v-21h-119l18 -21q-25 -17 -52.5 -46t-51 -68t-38.5 -87.5t-15 -105.5q0 -43 10.5 -88.5t31 -86.5t49.5 -73.5t65 -49.5l-16 -22h118v-21h-139q-5 -16 -7.5 -27t-3 -21.5t2 -23t8.5 -31.5h-47q6 18 8.5 32t1.5 26t-4 23t-7 22h-202v21l229 1q-21 20 -44.5 52.5
t-42.5 73.5t-31.5 89t-12.5 100q0 61 13.5 113t34 94t43 73t40.5 50l2 2h-231v21h389z" />
    <glyph glyph-name="egrave" unicode="&#xe8;" horiz-adv-x="259" 
d="M70 753q26 -11 44.5 -20.5t32 -18.5t23.5 -20t20 -25h139v-21h-106l16 -17q-18 -13 -42 -38.5t-46 -62t-38.5 -84.5t-19.5 -106h40q25 0 46 3.5t32 5.5l9 3v-56q-11 5 -36 6t-51 6h-40q3 -63 19 -114q14 -46 35.5 -79t41.5 -55t34.5 -32.5l14.5 -10.5l-15 -17h106v-21
h-399v21h248q-17 19 -37 50t-37.5 70.5t-29.5 86.5t-12 99l-23 -3q-14 -2 -23.5 -5t-10.5 -2v56q1 -1 3 -1q2 -1 3.5 -1t3.5 -1l24 -5l23 -2q4 66 21.5 126.5t45.5 106.5q5 8 12 20t14.5 23.5t14 20t9.5 9.5h-249v21h218l-5 19l-66 10z" />
    <glyph glyph-name="eacute" unicode="&#xe9;" horiz-adv-x="259" 
d="M221 698l-66 -10l-5 -19h179v-21h-106l16 -17q-18 -13 -42 -38.5t-46 -62t-38.5 -84.5t-19.5 -106h40q25 0 46 3.5t32 5.5l9 3v-56q-11 5 -36 6t-51 6h-40q3 -63 19 -114q14 -46 35.5 -79t41.5 -55t34.5 -32.5l14.5 -10.5l-15 -17h106v-21h-399v21h248q-17 19 -37 50
t-37.5 70.5t-29.5 86.5t-12 99l-23 -3q-14 -2 -23.5 -5t-10.5 -2v56q1 -1 3 -1q2 -1 3.5 -1t3.5 -1l24 -5l23 -2q4 66 21.5 126.5t45.5 106.5q5 8 12 20t14.5 23.5t14 20t9.5 9.5h-249v21h178q10 14 20 25t23.5 20t31.5 18.5t45 20.5z" />
    <glyph glyph-name="ecircumflex" unicode="&#xea;" horiz-adv-x="259" 
d="M165 742q5 -28 22.5 -43.5t44.5 -29.5h97v-21h-106l16 -17q-18 -13 -42 -38.5t-46 -62t-38.5 -84.5t-19.5 -106h40q25 0 46 3.5t32 5.5l9 3v-56q-11 5 -36 6t-51 6h-40q3 -63 19 -114q14 -46 35.5 -79t41.5 -55t34.5 -32.5l14.5 -10.5l-15 -17h106v-21h-399v21h248
q-17 19 -37 50t-37.5 70.5t-29.5 86.5t-12 99l-23 -3q-14 -2 -23.5 -5t-10.5 -2v56q1 -1 3 -1q2 -1 3.5 -1t3.5 -1l24 -5l23 -2q4 66 21.5 126.5t45.5 106.5q5 8 12 20t14.5 23.5t14 20t9.5 9.5h-249v21h127q27 14 44.5 29.5t22.5 43.5h41zM144 703q-5 -4 -14.5 -10.5
t-17.5 -23.5h65q-8 17 -18 23t-15 11z" />
    <glyph glyph-name="edieresis" unicode="&#xeb;" horiz-adv-x="259" 
d="M218 763q-6 -19 -10 -29.5t-4.5 -19t2 -18.5t8.5 -27h115v-21h-106l16 -17q-18 -13 -42 -38.5t-46 -62t-38.5 -84.5t-19.5 -106h40q25 0 46 3.5t32 5.5l9 3v-56q-11 5 -36 6t-51 6h-40q3 -63 19 -114q14 -46 35.5 -79t41.5 -55t34.5 -32.5l14.5 -10.5l-15 -17h106v-21
h-399v21h248q-17 19 -37 50t-37.5 70.5t-29.5 86.5t-12 99l-23 -3q-14 -2 -23.5 -5t-10.5 -2v56q1 -1 3 -1q2 -1 3.5 -1t3.5 -1l24 -5l23 -2q4 66 21.5 126.5t45.5 106.5q5 8 12 20t14.5 23.5t14 20t9.5 9.5h-249v21h137q14 28 10 47.5t-15 46.5h56q-6 -19 -10 -29.5
t-4.5 -19t2 -18.5t8.5 -27h53q14 28 10 47.5t-15 46.5h56z" />
    <glyph glyph-name="igrave" unicode="&#xec;" 
d="M50 753q26 -11 44.5 -20.5t32 -18.5t23.5 -20t20 -25h167v-21h-93v-38q-1 0 -24.5 5.5t-57.5 5.5q0 -10 -1.5 -28.5t-3 -42.5t-3 -53.5t-1.5 -60.5l-2 -55v-114l2 -56q0 -33 1.5 -62.5t3 -54t3 -42t1.5 -25.5h14q26 2 47 6t21 5v-38h93v-21h-407v21h99v38q5 -2 25 -5.5
t43 -5.5h11q1 3 1 7.5t1 9.5l5 69l3 98q1 27 2 55.5t0 57.5q0 55 -1.5 110.5t-3.5 100.5l-5 69q-1 5 -1 9.5t-1 7.5q-12 0 -25.5 -1.5t-25 -3.5t-19.5 -4t-9 -2v38h-99v21h198l-5 19l-66 10z" />
    <glyph glyph-name="iacute" unicode="&#xed;" 
d="M220 698l-66 -10l-5 -19h188v-21h-93v-38q-1 0 -24.5 5.5t-57.5 5.5q0 -10 -1.5 -28.5t-3 -42.5t-3 -53.5t-1.5 -60.5l-2 -55v-114l2 -56q0 -33 1.5 -62.5t3 -54t3 -42t1.5 -25.5h14q26 2 47 6t21 5v-38h93v-21h-407v21h99v38q5 -2 25 -5.5t43 -5.5h11q1 3 1 7.5t1 9.5
l5 69l3 98q1 27 2 55.5t0 57.5q0 55 -1.5 110.5t-3.5 100.5l-5 69q-1 5 -1 9.5t-1 7.5q-12 0 -25.5 -1.5t-25 -3.5t-19.5 -4t-9 -2v38h-99v21h177q10 14 20 25t23.5 20t31.5 18.5t45 20.5z" />
    <glyph glyph-name="icircumflex" unicode="&#xee;" 
d="M154 742q5 -28 22.5 -43.5t44.5 -29.5h116v-21h-93v-38q-1 0 -24.5 5.5t-57.5 5.5q0 -10 -1.5 -28.5t-3 -42.5t-3 -53.5t-1.5 -60.5l-2 -55v-114l2 -56q0 -33 1.5 -62.5t3 -54t3 -42t1.5 -25.5h14q26 2 47 6t21 5v-38h93v-21h-407v21h99v38q5 -2 25 -5.5t43 -5.5h11
q1 3 1 7.5t1 9.5l5 69l3 98q1 27 2 55.5t0 57.5q0 55 -1.5 110.5t-3.5 100.5l-5 69q-1 5 -1 9.5t-1 7.5q-12 0 -25.5 -1.5t-25 -3.5t-19.5 -4t-9 -2v38h-99v21h116q27 14 44.5 29.5t22.5 43.5h41zM133 703q-5 -4 -14.5 -10.5t-17.5 -23.5h65q-8 17 -18 23t-15 11z" />
    <glyph glyph-name="idieresis" unicode="&#xef;" 
d="M211 763q-6 -19 -10 -29.5t-4.5 -19t2 -18.5t8.5 -27h130v-21h-93v-38q-1 0 -24.5 5.5t-57.5 5.5q0 -10 -1.5 -28.5t-3 -42.5t-3 -53.5t-1.5 -60.5l-2 -55v-114l2 -56q0 -33 1.5 -62.5t3 -54t3 -42t1.5 -25.5h14q26 2 47 6t21 5v-38h93v-21h-407v21h99v38q5 -2 25 -5.5
t43 -5.5h11q1 3 1 7.5t1 9.5l5 69l3 98q1 27 2 55.5t0 57.5q0 55 -1.5 110.5t-3.5 100.5l-5 69q-1 5 -1 9.5t-1 7.5q-12 0 -25.5 -1.5t-25 -3.5t-19.5 -4t-9 -2v38h-99v21h130q14 28 10 47.5t-15 46.5h56q-6 -19 -10 -29.5t-4.5 -19t2 -18.5t8.5 -27h53q14 28 10 47.5
t-15 46.5h56z" />
    <glyph glyph-name="eth" unicode="&#xf0;" horiz-adv-x="277" 
d="M-32 336q34 -12 82 -14q0 48 -1 101t-2.5 99t-3.5 80t-5 46h-108v21h417v-21h-247l7 -6q21 -20 45.5 -50.5t44.5 -69.5t33.5 -86t13.5 -99q0 -59 -14 -110.5t-35 -93.5t-45 -74t-43 -51l-8 -8h248v-21h-417v21h108q1 3 1 7.5t1 10.5l5 76l3 107q1 22 1.5 46.5t0.5 47.5
q-26 -2 -47.5 -6t-34.5 -9v56zM81 321q52 2 91 15v-56q-15 8 -39.5 12t-51.5 4v-35l2 -60q0 -61 3 -107l2 -36q22 19 44.5 46.5t40.5 62t29 75t11 84.5q0 52 -12 94.5t-30.5 75.5t-40.5 57t-42 40l-2 -39q-3 -47 -3 -107l-2 -61v-65z" />
    <glyph glyph-name="ntilde" unicode="&#xf1;" horiz-adv-x="355" 
d="M-70 669h171l-12 22q12 19 27.5 32t32.5 14.5t37 -9.5t41 -39l37 53l19 -33q-19 -30 -40 -40h182v-21h-111q0 -11 -1 -36.5t-2.5 -61t-3.5 -78t-4 -86.5q0 -56 1.5 -118t4 -117t4 -96t1.5 -55h111v-21h-495v21h116q0 11 1 37t2.5 61t3.5 77t4 86q0 57 -1.5 119t-4 116.5
t-4 95.5t-1.5 56h-116v21zM89 386q0 -15 -0.5 -30.5t-0.5 -31.5q0 -49 1 -102t2.5 -98.5t3.5 -79.5t5 -44h160q3 10 5 43t3.5 78t2.5 98t1 105v23v25t-1 21t-4 12q-21 9 -43 29.5t-44 46.5t-44 53.5t-41 50.5q-4 -36 -5 -89.5t-1 -109.5zM104 648q5 -14 15.5 -31t24.5 -37
q4 -7 18 -25.5t32.5 -39t38.5 -38t37 -21.5q-1 34 -2 65.5t-2 57t-2.5 43.5t-3.5 26h-156zM115 669h76q-23 11 -46 42z" />
    <glyph glyph-name="ograve" unicode="&#xf2;" horiz-adv-x="318" 
d="M62 753q26 -11 44.5 -20.5t32 -18.5t23.5 -20t20 -25h206v-21h-197q23 -23 40 -61t28.5 -83.5t17 -96.5t5.5 -100q0 -107 -20.5 -183.5t-52.5 -117.5q-4 -4 -5 -6h184v-21h-458v21h197q-24 23 -41.5 62t-29 87t-17 101t-5.5 104q0 46 6 92t16.5 85t24.5 69.5t31 47.5
h-182v21h210l-5 19l-66 10zM199 556q-13 24 -25.5 37t-21.5 22q-24 -24 -40.5 -57.5t-26.5 -71.5t-14.5 -80.5t-4.5 -84.5q4 -83 17 -135t28.5 -83t30.5 -46t23 -22q2 1 6 5q21 20 36.5 51.5t25 70t14 81.5t4.5 85q-2 28 -5.5 59t-9.5 61t-15 57.5t-22 50.5zM114 318l45 79
l48 -67l-47 -79z" />
    <glyph glyph-name="oacute" unicode="&#xf3;" horiz-adv-x="318" 
d="M236 698l-66 -10l-5 -19h223v-21h-197q23 -23 40 -61t28.5 -83.5t17 -96.5t5.5 -100q0 -107 -20.5 -183.5t-52.5 -117.5q-4 -4 -5 -6h184v-21h-458v21h197q-24 23 -41.5 62t-29 87t-17 101t-5.5 104q0 46 6 92t16.5 85t24.5 69.5t31 47.5h-182v21h193q10 14 20 25
t23.5 20t31.5 18.5t45 20.5zM199 556q-13 24 -25.5 37t-21.5 22q-24 -24 -40.5 -57.5t-26.5 -71.5t-14.5 -80.5t-4.5 -84.5q4 -83 17 -135t28.5 -83t30.5 -46t23 -22q2 1 6 5q21 20 36.5 51.5t25 70t14 81.5t4.5 85q-2 28 -5.5 59t-9.5 61t-15 57.5t-22 50.5zM114 318l45 79
l48 -67l-47 -79z" />
    <glyph glyph-name="ocircumflex" unicode="&#xf4;" horiz-adv-x="318" 
d="M179 742q5 -28 22.5 -43.5t44.5 -29.5h142v-21h-197q23 -23 40 -61t28.5 -83.5t17 -96.5t5.5 -100q0 -107 -20.5 -183.5t-52.5 -117.5q-4 -4 -5 -6h184v-21h-458v21h197q-24 23 -41.5 62t-29 87t-17 101t-5.5 104q0 46 6 92t16.5 85t24.5 69.5t31 47.5h-182v21h141
q27 14 44.5 29.5t22.5 43.5h41zM199 556q-13 24 -25.5 37t-21.5 22q-24 -24 -40.5 -57.5t-26.5 -71.5t-14.5 -80.5t-4.5 -84.5q4 -83 17 -135t28.5 -83t30.5 -46t23 -22q2 1 6 5q21 20 36.5 51.5t25 70t14 81.5t4.5 85q-2 28 -5.5 59t-9.5 61t-15 57.5t-22 50.5zM114 318
l45 79l48 -67l-47 -79zM158 703q-5 -4 -14.5 -10.5t-17.5 -23.5h65q-8 17 -18 23t-15 11z" />
    <glyph glyph-name="otilde" unicode="&#xf5;" horiz-adv-x="318" 
d="M71 669l-9 16q12 19 27.5 32t32.5 14.5t37 -9.5t41 -39l37 53l19 -33q-15 -23 -30 -34h162v-21h-197q23 -23 40 -61t28.5 -83.5t17 -96.5t5.5 -100q0 -107 -20.5 -183.5t-52.5 -117.5q-4 -4 -5 -6h184v-21h-458v21h197q-24 23 -41.5 62t-29 87t-17 101t-5.5 104
q0 46 6 92t16.5 85t24.5 69.5t31 47.5h-182v21h141zM199 556q-13 24 -25.5 37t-21.5 22q-24 -24 -40.5 -57.5t-26.5 -71.5t-14.5 -80.5t-4.5 -84.5q4 -83 17 -135t28.5 -83t30.5 -46t23 -22q2 1 6 5q21 20 36.5 51.5t25 70t14 81.5t4.5 85q-2 28 -5.5 59t-9.5 61t-15 57.5
t-22 50.5zM114 318l45 79l48 -67l-47 -79zM93 669h61q-8 6 -17.5 14.5t-18.5 21.5z" />
    <glyph glyph-name="odieresis" unicode="&#xf6;" horiz-adv-x="318" 
d="M237 763q-6 -19 -10 -29.5t-4.5 -19t2 -18.5t8.5 -27h155v-21h-197q23 -23 40 -61t28.5 -83.5t17 -96.5t5.5 -100q0 -107 -20.5 -183.5t-52.5 -117.5q-4 -4 -5 -6h184v-21h-458v21h197q-24 23 -41.5 62t-29 87t-17 101t-5.5 104q0 46 6 92t16.5 85t24.5 69.5t31 47.5
h-182v21h156q14 28 10 47.5t-15 46.5h56q-6 -19 -10 -29.5t-4.5 -19t2 -18.5t8.5 -27h53q14 28 10 47.5t-15 46.5h56zM199 556q-13 24 -25.5 37t-21.5 22q-24 -24 -40.5 -57.5t-26.5 -71.5t-14.5 -80.5t-4.5 -84.5q4 -83 17 -135t28.5 -83t30.5 -46t23 -22q2 1 6 5
q21 20 36.5 51.5t25 70t14 81.5t4.5 85q-2 28 -5.5 59t-9.5 61t-15 57.5t-22 50.5zM114 318l45 79l48 -67l-47 -79z" />
    <glyph glyph-name="divide" unicode="&#xf7;" 
d="M66 196l62 78l67 -66l-65 -78zM66 436l62 78l67 -66l-65 -78zM337 0v-21h-407v21h407zM-70 648v21h407v-21h-407zM28 350q20 -7 46.5 -10.5t54 -3.5t55 3t48.5 11v-56q-16 10 -44.5 13.5t-59 2.5t-58 -5.5t-42.5 -10.5v56z" />
    <glyph glyph-name="oslash" unicode="&#xf8;" horiz-adv-x="318" 
d="M-70 669h458v-21h-111l-4 -22q-6 -33 -23 -87q16 -52 24 -112.5t8 -119.5q0 -107 -20.5 -183.5t-52.5 -117.5q-4 -4 -5 -6h184v-21h-458v21h115q0 2 0.5 4.5t0.5 4.5l3 14q3 15 8.5 34t13.5 42q-19 55 -28 122t-9 133q0 46 6 92t16.5 85t24.5 69.5t31 47.5h-182v21z
M199 556q-13 24 -25.5 37t-21.5 22q-24 -24 -40.5 -57.5t-26.5 -71.5t-14.5 -80.5t-4.5 -84.5q2 -54 8.5 -94.5t15.5 -69.5q5 12 8.5 24.5t8.5 26.5l20 59l40 123q13 41 23 78.5t18 69.5zM251 328q-2 35 -7 73.5t-14 74.5l-12 -36l-20 -60l-40 -123q-14 -41 -25.5 -81.5
t-19.5 -75.5q15 -29 29.5 -43t22.5 -22q2 1 6 5q21 20 36.5 51.5t25 70t14 81.5t4.5 85zM191 648q16 -16 30 -41l2 25v16h-32zM127 0q-14 12 -27 34q-1 -5 -1 -10v-9v-15h28z" />
    <glyph glyph-name="ugrave" unicode="&#xf9;" horiz-adv-x="308" 
d="M90 753q26 -11 44.5 -20.5t32 -18.5t23.5 -20t20 -25h168v-21h-105q0 -18 -0.5 -28.5t-1.5 -23t-2 -31t-2 -52.5t-1.5 -88t-0.5 -137q0 -77 0.5 -123.5t1.5 -73t2 -38t2 -17.5t1.5 -12.5t0.5 -23.5h105v-21h-448v21h257q-17 8 -34.5 23t-33.5 34.5t-29.5 43.5t-21.5 50
q-7 21 -11 61t-6.5 88.5t-4 101t-2.5 98t-2 80t-3 47.5q0 7 -0.5 12t-0.5 9h-108v21h238l-5 19l-66 10zM92 648q-5 -63 -7.5 -124t-2.5 -134q0 -89 5.5 -142t13 -82t15 -40t10.5 -16q3 -4 4 -5.5t3.5 -4.5t8.5 -9.5t18 -18.5q17 -14 33 -22t29 -12q1 10 1.5 26.5t1.5 52.5
t1.5 98t0.5 163v64.5v54.5t-0.5 39t-0.5 18q-2 35 -3.5 60t-3.5 34h-127z" />
    <glyph glyph-name="uacute" unicode="&#xfa;" horiz-adv-x="308" 
d="M210 698l-66 -10l-5 -19h239v-21h-105q0 -18 -0.5 -28.5t-1.5 -23t-2 -31t-2 -52.5t-1.5 -88t-0.5 -137q0 -77 0.5 -123.5t1.5 -73t2 -38t2 -17.5t1.5 -12.5t0.5 -23.5h105v-21h-448v21h257q-17 8 -34.5 23t-33.5 34.5t-29.5 43.5t-21.5 50q-7 21 -11 61t-6.5 88.5
t-4 101t-2.5 98t-2 80t-3 47.5q0 7 -0.5 12t-0.5 9h-108v21h167q10 14 20 25t23.5 20t31.5 18.5t45 20.5zM92 648q-5 -63 -7.5 -124t-2.5 -134q0 -89 5.5 -142t13 -82t15 -40t10.5 -16q3 -4 4 -5.5t3.5 -4.5t8.5 -9.5t18 -18.5q17 -14 33 -22t29 -12q1 10 1.5 26.5t1.5 52.5
t1.5 98t0.5 163v64.5v54.5t-0.5 39t-0.5 18q-2 35 -3.5 60t-3.5 34h-127z" />
    <glyph glyph-name="ucircumflex" unicode="&#xfb;" horiz-adv-x="308" 
d="M174 742q5 -28 22.5 -43.5t44.5 -29.5h137v-21h-105q0 -18 -0.5 -28.5t-1.5 -23t-2 -31t-2 -52.5t-1.5 -88t-0.5 -137q0 -77 0.5 -123.5t1.5 -73t2 -38t2 -17.5t1.5 -12.5t0.5 -23.5h105v-21h-448v21h257q-17 8 -34.5 23t-33.5 34.5t-29.5 43.5t-21.5 50q-7 21 -11 61
t-6.5 88.5t-4 101t-2.5 98t-2 80t-3 47.5q0 7 -0.5 12t-0.5 9h-108v21h136q27 14 44.5 29.5t22.5 43.5h41zM92 648q-5 -63 -7.5 -124t-2.5 -134q0 -89 5.5 -142t13 -82t15 -40t10.5 -16q3 -4 4 -5.5t3.5 -4.5t8.5 -9.5t18 -18.5q17 -14 33 -22t29 -12q1 10 1.5 26.5
t1.5 52.5t1.5 98t0.5 163v64.5v54.5t-0.5 39t-0.5 18q-2 35 -3.5 60t-3.5 34h-127zM153 703q-5 -4 -14.5 -10.5t-17.5 -23.5h65q-8 17 -18 23t-15 11z" />
    <glyph glyph-name="udieresis" unicode="&#xfc;" horiz-adv-x="308" 
d="M232 763q-6 -19 -10 -29.5t-4.5 -19t2 -18.5t8.5 -27h150v-21h-105q0 -18 -0.5 -28.5t-1.5 -23t-2 -31t-2 -52.5t-1.5 -88t-0.5 -137q0 -77 0.5 -123.5t1.5 -73t2 -38t2 -17.5t1.5 -12.5t0.5 -23.5h105v-21h-448v21h257q-17 8 -34.5 23t-33.5 34.5t-29.5 43.5t-21.5 50
q-7 21 -11 61t-6.5 88.5t-4 101t-2.5 98t-2 80t-3 47.5q0 7 -0.5 12t-0.5 9h-108v21h152q14 27 9.5 47t-15.5 47h56q-6 -19 -10 -29.5t-4.5 -19t2 -18.5t8.5 -27h53q14 28 10 47.5t-15 46.5h56zM92 648q-5 -63 -7.5 -124t-2.5 -134q0 -89 5.5 -142t13 -82t15 -40t10.5 -16
q3 -4 4 -5.5t3.5 -4.5t8.5 -9.5t18 -18.5q17 -14 33 -22t29 -12q1 10 1.5 26.5t1.5 52.5t1.5 98t0.5 163v64.5v54.5t-0.5 39t-0.5 18q-2 35 -3.5 60t-3.5 34h-127z" />
    <glyph glyph-name="yacute" unicode="&#xfd;" horiz-adv-x="286" 
d="M199 698l-66 -10l-5 -19h228v-21h-101q0 -17 -4.5 -54t-7.5 -82t-9.5 -84.5t-16.5 -77t-23.5 -73.5t-31.5 -74q1 -34 2.5 -65.5t3 -58.5t3 -47t1.5 -32h184v-21h-426v21h188q2 10 3.5 30.5t2.5 48t2 61t2 69.5q-24 45 -42 83t-29 85q-9 46 -13.5 89.5t-6.5 79.5
t-3.5 62.5t-3.5 39.5h-100v21h156q10 14 20 25t23.5 20t31.5 18.5t45 20.5zM79 552q0 -50 3 -91t10 -77t19 -68t30 -62q29 39 48.5 103.5t19.5 156.5q0 48 -3.5 84.5t-3.5 49.5h-118q0 -13 -2 -38t-3 -58z" />
    <glyph glyph-name="thorn" unicode="&#xfe;" horiz-adv-x="274" 
d="M-70 669h414v-21h-243l-11 -83q36 -21 67 -46.5t54 -54t36.5 -61t13.5 -66.5q0 -48 -17.5 -88.5t-44 -72.5t-57 -54t-56.5 -33q1 -32 3.5 -55t2.5 -34h252v-21h-414v21h108q2 8 4 33t3.5 61t2.5 79t1 88q0 58 -1.5 120.5t-4 117t-4 95t-1.5 54.5h-108v21zM81 336v-52v-45
t0.5 -44t2.5 -50q29 10 55.5 27t46.5 40.5t32 52t12 61.5q0 37 -11.5 66.5t-31.5 52.5t-46 39.5t-55 27.5q-1 -19 -2 -37t-1.5 -38.5t-1 -45t-0.5 -55.5z" />
    <glyph glyph-name="ydieresis" unicode="&#xff;" horiz-adv-x="286" 
d="M221 763q-6 -19 -10 -29.5t-4.5 -19t2 -18.5t8.5 -27h139v-21h-101q0 -17 -4.5 -54t-7.5 -82t-9.5 -84.5t-16.5 -77t-23.5 -73.5t-31.5 -74q1 -34 2.5 -65.5t3 -58.5t3 -47t1.5 -32h184v-21h-426v21h188q2 10 3.5 30.5t2.5 48t2 61t2 69.5q-24 45 -42 83t-29 85
q-9 46 -13.5 89.5t-6.5 79.5t-3.5 62.5t-3.5 39.5h-100v21h140q14 28 10 47.5t-15 46.5h56q-6 -19 -10 -29.5t-4.5 -19t2 -18.5t8.5 -27h53q14 28 10 47.5t-15 46.5h56zM79 552q0 -50 3 -91t10 -77t19 -68t30 -62q29 39 48.5 103.5t19.5 156.5q0 48 -3.5 84.5t-3.5 49.5
h-118q0 -13 -2 -38t-3 -58z" />
    <glyph glyph-name="Amacron" unicode="&#x100;" horiz-adv-x="306" 
d="M8 276q13 -5 49 -8v95l2 33q3 42 9 80t14.5 69.5t17 56.5t15.5 43l2 3h-187v21h131v40q40 -19 90.5 -19.5t93.5 19.5v-40h131v-21h-189l2 -3q15 -37 33 -103t23 -146l2 -33v-16t1 -16v-63q15 2 26.5 3.5t18.5 4.5v-56q-12 6 -45 9l2 -63q22 3 33 5t12 2v-56q-1 0 -12 2.5
t-31 4.5q0 -43 3.5 -76t3.5 -48h117v-21h-446v21h114q2 10 5 46t3 79l-30 -5q-3 -1 -5.5 -1t-4.5 -1t-3 -1v56q4 -1 11 -2q5 -1 13.5 -2t19.5 -3l3 62q-36 -3 -48 -8v56zM205 453q-8 51 -23.5 90t-29.5 64q-10 -17 -21 -43t-20.5 -57.5t-15.5 -68.5t-6 -76l-2 -32l1 -64
q30 -2 64.5 -2t64.5 2v32q0 16 -0.5 32t-1.5 32l-2 31q-1 16 -3.5 31t-4.5 29zM212 96q0 8 0.5 16t0.5 16h-9q-12 2 -25 2h-27h-26t-26 -2h-9q0 -44 3.5 -78.5t3.5 -49.5h107q3 11 4 37t3 59zM217 232q-30 2 -64 1t-65 -3l1 -25v-21t1 -21l35 -2h53l36 2z" />
    <glyph glyph-name="amacron" unicode="&#x101;" horiz-adv-x="306" 
d="M8 276q13 -5 49 -8v95l2 33q3 42 9 80t14.5 69.5t17 56.5t15.5 43l2 3h-187v21h131v40q40 -19 90.5 -19.5t93.5 19.5v-40h131v-21h-189l2 -3q15 -37 33 -103t23 -146l2 -33v-16t1 -16v-63q15 2 26.5 3.5t18.5 4.5v-56q-12 6 -45 9l2 -63q22 3 33 5t12 2v-56q-1 0 -12 2.5
t-31 4.5q0 -43 3.5 -76t3.5 -48h117v-21h-446v21h114q2 10 5 46t3 79l-30 -5q-3 -1 -5.5 -1t-4.5 -1t-3 -1v56q4 -1 11 -2q5 -1 13.5 -2t19.5 -3l3 62q-36 -3 -48 -8v56zM205 453q-8 51 -23.5 90t-29.5 64q-10 -17 -21 -43t-20.5 -57.5t-15.5 -68.5t-6 -76l-2 -32l1 -64
q30 -2 64.5 -2t64.5 2v32q0 16 -0.5 32t-1.5 32l-2 31q-1 16 -3.5 31t-4.5 29zM212 96q0 8 0.5 16t0.5 16h-9q-12 2 -25 2h-27h-26t-26 -2h-9q0 -44 3.5 -78.5t3.5 -49.5h107q3 11 4 37t3 59zM217 232q-30 2 -64 1t-65 -3l1 -25v-21t1 -21l35 -2h53l36 2z" />
    <glyph glyph-name="Abreve" unicode="&#x102;" horiz-adv-x="306" 
d="M8 276q13 -5 49 -8v95l2 33q3 42 9 80t14.5 69.5t17 56.5t15.5 43l2 3h-187v21h196q-6 11 -15 19t-19.5 16t-22 17t-20.5 21h66q6 -27 18.5 -36.5t18.5 -14.5q3 3 8.5 6t11 8.5t10.5 14t8 22.5h66q-21 -21 -44 -36t-34 -37h198v-21h-189l2 -3q15 -37 33 -103t23 -146
l2 -33v-16t1 -16v-63q15 2 26.5 3.5t18.5 4.5v-56q-12 6 -45 9l2 -63q22 3 33 5t12 2v-56q-1 0 -12 2.5t-31 4.5q0 -43 3.5 -76t3.5 -48h117v-21h-446v21h114q2 10 5 46t3 79l-30 -5q-3 -1 -5.5 -1t-4.5 -1t-3 -1v56q4 -1 11 -2q5 -1 13.5 -2t19.5 -3l3 62q-36 -3 -48 -8v56
zM205 453q-8 51 -23.5 90t-29.5 64q-10 -17 -21 -43t-20.5 -57.5t-15.5 -68.5t-6 -76l-2 -32l1 -64q30 -2 64.5 -2t64.5 2v32q0 16 -0.5 32t-1.5 32l-2 31q-1 16 -3.5 31t-4.5 29zM212 96q0 8 0.5 16t0.5 16h-9q-12 2 -25 2h-27h-26t-26 -2h-9q0 -44 3.5 -78.5t3.5 -49.5
h107q3 11 4 37t3 59zM217 232q-30 2 -64 1t-65 -3l1 -25v-21t1 -21l35 -2h53l36 2z" />
    <glyph glyph-name="abreve" unicode="&#x103;" horiz-adv-x="306" 
d="M126 669q-6 11 -15 19t-19.5 16t-22 17t-20.5 21h66q6 -27 18.5 -36.5t18.5 -14.5q3 3 8.5 6t11 8.5t10.5 14t8 22.5h66q-21 -21 -44 -36t-34 -37h198v-21h-189l2 -3q15 -37 33 -103t23 -146l2 -33v-16t1 -16v-64l2 -101q22 3 33 5t12 2v-56q-1 0 -12 2.5t-31 4.5
q0 -43 3.5 -76t3.5 -48h117v-21h-446v21h114q2 10 5 46t3 79l-30 -5q-3 -1 -5.5 -1t-4.5 -1t-3 -1v56q4 -1 11 -2q5 -1 13.5 -2t19.5 -3q3 44 3.5 95t0.5 102l2 33q3 42 9 80t14.5 69.5t17 56.5t15.5 43l2 3h-187v21h196zM205 453q-8 51 -23.5 90t-29.5 64q-10 -17 -21 -43
t-20.5 -57.5t-15.5 -68.5t-6 -76l-2 -32l2 -125v-21t1 -21l35 -2h53l36 2q2 32 2.5 66.5t0.5 68.5q0 16 -0.5 32t-1.5 32l-2 31q-1 16 -3.5 31t-4.5 29zM212 96q0 8 0.5 16t0.5 16h-9q-12 2 -25 2h-27h-26t-26 -2h-9q0 -44 3.5 -78.5t3.5 -49.5h107q3 11 4 37t3 59z" />
    <glyph glyph-name="Aogonek" unicode="&#x104;" horiz-adv-x="306" 
d="M8 276q13 -5 49 -8v95l2 33q3 42 9 80t14.5 69.5t17 56.5t15.5 43l2 3h-187v21h446v-21h-189l2 -3q15 -37 33 -103t23 -146l2 -33v-16t1 -16v-63q15 2 26.5 3.5t18.5 4.5v-56q-12 6 -45 9l2 -63q22 3 33 5t12 2v-56q-1 0 -12 2.5t-31 4.5q0 -43 3.5 -76t3.5 -48h117v-21
h-125q-11 -28 -12 -61t17 -62l-16 -15q-20 20 -27 57.5t-12 80.5h-271v21h114q2 10 5 46t3 79l-30 -5q-3 -1 -5.5 -1t-4.5 -1t-3 -1v56q4 -1 11 -2q5 -1 13.5 -2t19.5 -3l3 62q-36 -3 -48 -8v56zM205 453q-8 51 -23.5 90t-29.5 64q-10 -17 -21 -43t-20.5 -57.5t-15.5 -68.5
t-6 -76l-2 -32l1 -64q30 -2 64.5 -2t64.5 2v32q0 16 -0.5 32t-1.5 32l-2 31q-1 16 -3.5 31t-4.5 29zM212 96q0 8 0.5 16t0.5 16h-9q-12 2 -25 2h-27h-26t-26 -2h-9q0 -44 3.5 -78.5t3.5 -49.5h107q3 11 4 37t3 59zM217 232q-30 2 -64 1t-65 -3l1 -25v-21t1 -21l35 -2h53
l36 2z" />
    <glyph glyph-name="aogonek" unicode="&#x105;" horiz-adv-x="306" 
d="M376 669v-21h-189l2 -3q15 -37 33 -103t23 -146l2 -33v-16t1 -16v-64l2 -101q22 3 33 5t12 2v-56q-1 0 -12 2.5t-31 4.5q0 -43 3.5 -76t3.5 -48h117v-21h-121q-11 -28 -12 -61t17 -62l-16 -15q-20 20 -27 57.5t-12 80.5h-275v21h114q2 10 5 46t3 79l-30 -5q-3 -1 -5.5 -1
t-4.5 -1t-3 -1v56q4 -1 11 -2q5 -1 13.5 -2t19.5 -3q3 44 3.5 95t0.5 102l2 33q3 42 9 80t14.5 69.5t17 56.5t15.5 43l2 3h-187v21h446zM205 453q-8 51 -23.5 90t-29.5 64q-10 -17 -21 -43t-20.5 -57.5t-15.5 -68.5t-6 -76l-2 -32l2 -125v-21t1 -21l35 -2h53l36 2
q2 32 2.5 66.5t0.5 68.5q0 16 -0.5 32t-1.5 32l-2 31q-1 16 -3.5 31t-4.5 29zM212 96q0 8 0.5 16t0.5 16h-9q-12 2 -25 2h-27h-26t-26 -2h-9q0 -44 3.5 -78.5t3.5 -49.5h107q3 11 4 37t3 59z" />
    <glyph glyph-name="Cacute" unicode="&#x106;" horiz-adv-x="249" 
d="M240 698l-66 -10l-5 -19h150v-21h-119l18 -21q-25 -17 -52.5 -46t-51 -68t-38.5 -87.5t-15 -105.5q0 -43 10.5 -88.5t31 -86.5t49.5 -73.5t65 -49.5l-16 -22h118v-21h-389v21l229 1q-21 20 -44.5 52.5t-42.5 73.5t-31.5 89t-12.5 100q0 61 13.5 113t34 94t43 73t40.5 50
l2 2h-231v21h197q10 14 20 25t23.5 20t31.5 18.5t45 20.5z" />
    <glyph glyph-name="cacute" unicode="&#x107;" horiz-adv-x="249" 
d="M249 698l-66 -10l-5 -19h141v-21h-119l18 -21q-25 -17 -52.5 -46t-51 -68t-38.5 -87.5t-15 -105.5q0 -43 10.5 -88.5t31 -86.5t49.5 -73.5t65 -49.5l-16 -22h118v-21h-389v21l229 1q-21 20 -44.5 52.5t-42.5 73.5t-31.5 89t-12.5 100q0 61 13.5 113t34 94t43 73t40.5 50
l2 2h-231v21h206q10 14 20 25t23.5 20t31.5 18.5t45 20.5z" />
    <glyph glyph-name="Ccircumflex" unicode="&#x108;" horiz-adv-x="249" 
d="M145 742q5 -28 22.5 -43.5t44.5 -29.5h107v-21h-119l18 -21q-25 -17 -52.5 -46t-51 -68t-38.5 -87.5t-15 -105.5q0 -43 10.5 -88.5t31 -86.5t49.5 -73.5t65 -49.5l-16 -22h118v-21h-389v21l229 1q-21 20 -44.5 52.5t-42.5 73.5t-31.5 89t-12.5 100q0 61 13.5 113t34 94
t43 73t40.5 50l2 2h-231v21h107q27 14 44.5 29.5t22.5 43.5h41zM124 703q-5 -4 -14.5 -10.5t-17.5 -23.5h65q-8 17 -18 23t-15 11z" />
    <glyph glyph-name="ccircumflex" unicode="&#x109;" horiz-adv-x="249" 
d="M145 742q5 -28 22.5 -43.5t44.5 -29.5h107v-21h-119l18 -21q-25 -17 -52.5 -46t-51 -68t-38.5 -87.5t-15 -105.5q0 -43 10.5 -88.5t31 -86.5t49.5 -73.5t65 -49.5l-16 -22h118v-21h-389v21l229 1q-21 20 -44.5 52.5t-42.5 73.5t-31.5 89t-12.5 100q0 61 13.5 113t34 94
t43 73t40.5 50l2 2h-231v21h107q27 14 44.5 29.5t22.5 43.5h41zM124 703q-5 -4 -14.5 -10.5t-17.5 -23.5h65q-8 17 -18 23t-15 11z" />
    <glyph glyph-name="Cdotaccent" unicode="&#x10a;" horiz-adv-x="249" 
d="M152 763q-6 -19 -10 -29.5t-4.5 -19t2 -18.5t8.5 -27h171v-21h-119l18 -21q-25 -17 -52.5 -46t-51 -68t-38.5 -87.5t-15 -105.5q0 -43 10.5 -88.5t31 -86.5t49.5 -73.5t65 -49.5l-16 -22h118v-21h-389v21l229 1q-21 20 -44.5 52.5t-42.5 73.5t-31.5 89t-12.5 100
q0 61 13.5 113t34 94t43 73t40.5 50l2 2h-231v21h172q14 27 9.5 47t-15.5 47h56z" />
    <glyph glyph-name="cdotaccent" unicode="&#x10b;" horiz-adv-x="249" 
d="M152 763q-6 -19 -10 -29.5t-4.5 -19t2 -18.5t8.5 -27h171v-21h-119l18 -21q-25 -17 -52.5 -46t-51 -68t-38.5 -87.5t-15 -105.5q0 -43 10.5 -88.5t31 -86.5t49.5 -73.5t65 -49.5l-16 -22h118v-21h-389v21l229 1q-21 20 -44.5 52.5t-42.5 73.5t-31.5 89t-12.5 100
q0 61 13.5 113t34 94t43 73t40.5 50l2 2h-231v21h172q14 27 9.5 47t-15.5 47h56z" />
    <glyph glyph-name="Ccaron" unicode="&#x10c;" horiz-adv-x="249" 
d="M120 669q-8 20 -23.5 30t-44.5 24l46 29q3 -14 9.5 -24t14 -17.5t14 -12.5t9.5 -7q3 3 10 7.5t14.5 12t14 17.5t9.5 24l46 -29q-29 -14 -45 -24t-24 -30h149v-21h-119l18 -21q-25 -17 -52.5 -46t-51 -68t-38.5 -87.5t-15 -105.5q0 -43 10.5 -88.5t31 -86.5t49.5 -73.5
t65 -49.5l-16 -22h118v-21h-389v21l229 1q-21 20 -44.5 52.5t-42.5 73.5t-31.5 89t-12.5 100q0 61 13.5 113t34 94t43 73t40.5 50l2 2h-231v21h190z" />
    <glyph glyph-name="ccaron" unicode="&#x10d;" horiz-adv-x="249" 
d="M134 669q-8 20 -23.5 30t-44.5 24l46 29q3 -14 9.5 -24t14 -17.5t14 -12.5t9.5 -7q3 3 10 7.5t14.5 12t14 17.5t9.5 24l46 -29q-29 -14 -45 -24t-24 -30h135v-21h-119l18 -21q-25 -17 -52.5 -46t-51 -68t-38.5 -87.5t-15 -105.5q0 -43 10.5 -88.5t31 -86.5t49.5 -73.5
t65 -49.5l-16 -22h118v-21h-389v21l229 1q-21 20 -44.5 52.5t-42.5 73.5t-31.5 89t-12.5 100q0 61 13.5 113t34 94t43 73t40.5 50l2 2h-231v21h204z" />
    <glyph glyph-name="Dcaron" unicode="&#x10e;" horiz-adv-x="277" 
d="M-70 669h158q-8 20 -23.5 30t-44.5 24l46 29q3 -14 9.5 -24t14 -17.5t14 -12.5t9.5 -7q3 3 10 7.5t14.5 12t14 17.5t9.5 24l46 -29q-29 -14 -45 -24t-24 -30h209v-21h-247l7 -6q21 -20 45.5 -50.5t44.5 -69.5t33.5 -86t13.5 -99q0 -59 -14 -110.5t-35 -93.5t-45 -74
t-43 -51l-8 -8h248v-21h-417v21h108q1 3 1 7.5t1 10.5l5 76l3 107q1 23 1.5 48.5t0.5 50.5q0 49 -1 105t-2.5 106t-3.5 87.5t-5 49.5h-108v21zM81 261l2 -60q0 -61 3 -107l2 -36q22 19 44.5 46.5t40.5 62t29 75t11 84.5q0 52 -12 94.5t-30.5 75.5t-40.5 57t-42 40l-2 -39
q-3 -47 -3 -107l-2 -61v-125z" />
    <glyph glyph-name="dcaron" unicode="&#x10f;" horiz-adv-x="344" 
d="M294 515q5 39 1 74t-15 59h-180l7 -6q21 -20 45.5 -50.5t44.5 -69.5t33.5 -86t13.5 -99q0 -59 -14 -110.5t-35 -93.5t-45 -74t-43 -51l-8 -8h315v-21h-484v21h108q1 3 1 7.5t1 10.5l5 76l3 107q1 23 1.5 48.5t0.5 50.5q0 49 -1 105t-2.5 106t-3.5 87.5t-5 49.5h-108v21
h484v-21h-68q-5 -16 -9.5 -29.5t-7 -28.5t-2.5 -33t3 -42h-36zM81 261l2 -60q0 -61 3 -107l2 -36q22 19 44.5 46.5t40.5 62t29 75t11 84.5q0 52 -12 94.5t-30.5 75.5t-40.5 57t-42 40l-2 -39q-3 -47 -3 -107l-2 -61v-125z" />
    <glyph glyph-name="Dcroat" unicode="&#x110;" horiz-adv-x="277" 
d="M-4 344q25 -12 54 -17q0 48 -1 100t-2.5 97t-3.5 78.5t-5 45.5h-108v21h417v-21h-247l7 -6q21 -20 45.5 -50.5t44.5 -69.5t33.5 -86t13.5 -99q0 -59 -14 -110.5t-35 -93.5t-45 -74t-43 -51l-8 -8h248v-21h-417v21h108q1 3 1 7.5t1 10.5l5 76l3 107q1 23 1.5 47.5
t0.5 49.5q-34 -5 -54 -13v59zM81 325q26 -1 51 3.5t48 15.5v-59q-17 10 -44 13.5t-55 2.5v-40l2 -60q0 -61 3 -107l2 -36q22 19 44.5 46.5t40.5 62t29 75t11 84.5q0 52 -12 94.5t-30.5 75.5t-40.5 57t-42 40l-2 -39q-3 -47 -3 -107l-2 -61v-61z" />
    <glyph glyph-name="dcroat" unicode="&#x111;" horiz-adv-x="326" 
d="M33 336q14 -5 30.5 -8t35.5 -5q0 48 -1 100.5t-2.5 98.5t-3.5 80t-5 46h-157v21h466v-21h-247l7 -6q21 -20 45.5 -50.5t44.5 -69.5t33.5 -86t13.5 -99q0 -59 -14 -110.5t-35 -93.5t-45 -74t-43 -51l-8 -8h248v-21h-466v21h157q1 3 1 7.5t1 10.5l5 76l3 107q1 22 1.5 46
t0.5 47q-44 -5 -66 -14v56zM130 321q29 0 56.5 3.5t50.5 11.5v-56q-17 10 -46 13.5t-61 2.5v-35l2 -60q0 -61 3 -107l2 -36q22 19 44.5 46.5t40.5 62t29 75t11 84.5q0 52 -12 94.5t-30.5 75.5t-40.5 57t-42 40l-2 -39q-3 -47 -3 -107l-2 -61v-65z" />
    <glyph glyph-name="Emacron" unicode="&#x112;" horiz-adv-x="259" 
d="M22 669v40q40 -19 90.5 -19.5t93.5 19.5v-40h123v-21h-106l16 -17q-18 -13 -42 -38.5t-46 -62t-38.5 -84.5t-19.5 -106h40q25 0 46 3.5t32 5.5l9 3v-56q-11 5 -36 6t-51 6h-40q3 -63 19 -114q14 -46 35.5 -79t41.5 -55t34.5 -32.5l14.5 -10.5l-15 -17h106v-21h-399v21
h248q-17 19 -37 50t-37.5 70.5t-29.5 86.5t-12 99l-23 -3q-14 -2 -23.5 -5t-10.5 -2v56q1 -1 3 -1q2 -1 3.5 -1t3.5 -1l24 -5l23 -2q4 66 21.5 126.5t45.5 106.5q5 8 12 20t14.5 23.5t14 20t9.5 9.5h-249v21h92z" />
    <glyph glyph-name="emacron" unicode="&#x113;" horiz-adv-x="259" 
d="M22 669v40q40 -19 90.5 -19.5t93.5 19.5v-40h123v-21h-106l16 -17q-18 -13 -42 -38.5t-46 -62t-38.5 -84.5t-19.5 -106h40q25 0 46 3.5t32 5.5l9 3v-56q-11 5 -36 6t-51 6h-40q3 -63 19 -114q14 -46 35.5 -79t41.5 -55t34.5 -32.5l14.5 -10.5l-15 -17h106v-21h-399v21
h248q-17 19 -37 50t-37.5 70.5t-29.5 86.5t-12 99l-23 -3q-14 -2 -23.5 -5t-10.5 -2v56q1 -1 3 -1q2 -1 3.5 -1t3.5 -1l24 -5l23 -2q4 66 21.5 126.5t45.5 106.5q5 8 12 20t14.5 23.5t14 20t9.5 9.5h-249v21h92z" />
    <glyph glyph-name="Edotaccent" unicode="&#x116;" horiz-adv-x="259" 
d="M142 763q-6 -19 -10 -29.5t-4.5 -19t2 -18.5t8.5 -27h191v-21h-106l16 -17q-18 -13 -42 -38.5t-46 -62t-38.5 -84.5t-19.5 -106h40q25 0 46 3.5t32 5.5l9 3v-56q-11 5 -36 6t-51 6h-40q3 -63 19 -114q14 -46 35.5 -79t41.5 -55t34.5 -32.5l14.5 -10.5l-15 -17h106v-21
h-399v21h248q-17 19 -37 50t-37.5 70.5t-29.5 86.5t-12 99l-23 -3q-14 -2 -23.5 -5t-10.5 -2v56q1 -1 3 -1q2 -1 3.5 -1t3.5 -1l24 -5l23 -2q4 66 21.5 126.5t45.5 106.5q5 8 12 20t14.5 23.5t14 20t9.5 9.5h-249v21h161q14 28 10 47.5t-15 46.5h56z" />
    <glyph glyph-name="edotaccent" unicode="&#x117;" horiz-adv-x="259" 
d="M142 763q-6 -19 -10 -29.5t-4.5 -19t2 -18.5t8.5 -27h191v-21h-106l16 -17q-18 -13 -42 -38.5t-46 -62t-38.5 -84.5t-19.5 -106h40q25 0 46 3.5t32 5.5l9 3v-56q-11 5 -36 6t-51 6h-40q3 -63 19 -114q14 -46 35.5 -79t41.5 -55t34.5 -32.5l14.5 -10.5l-15 -17h106v-21
h-399v21h248q-17 19 -37 50t-37.5 70.5t-29.5 86.5t-12 99l-23 -3q-14 -2 -23.5 -5t-10.5 -2v56q1 -1 3 -1q2 -1 3.5 -1t3.5 -1l24 -5l23 -2q4 66 21.5 126.5t45.5 106.5q5 8 12 20t14.5 23.5t14 20t9.5 9.5h-249v21h161q14 28 10 47.5t-15 46.5h56z" />
    <glyph glyph-name="Eogonek" unicode="&#x118;" horiz-adv-x="259" 
d="M329 669v-21h-106l16 -17q-18 -13 -42 -38.5t-46 -62t-38.5 -84.5t-19.5 -106h40q25 0 46 3.5t32 5.5l9 3v-56q-11 5 -36 6t-51 6h-40q3 -63 19 -114q14 -46 35.5 -79t41.5 -55t34.5 -32.5l14.5 -10.5l-15 -17h106v-21h-129q-11 -28 -12 -61t17 -62l-16 -15
q-20 20 -27 57.5t-12 80.5h-220v21h248q-17 19 -37 50t-37.5 70.5t-29.5 86.5t-12 99l-23 -3q-14 -2 -23.5 -5t-10.5 -2v56q1 -1 3 -1q2 -1 3.5 -1t3.5 -1l24 -5l23 -2q4 66 21.5 126.5t45.5 106.5q5 8 12 20t14.5 23.5t14 20t9.5 9.5h-249v21h399z" />
    <glyph glyph-name="eogonek" unicode="&#x119;" horiz-adv-x="259" 
d="M329 669v-21h-106l16 -17q-18 -13 -42 -38.5t-46 -62t-38.5 -84.5t-19.5 -106h40q25 0 46 3.5t32 5.5l9 3v-56q-11 5 -36 6t-51 6h-40q3 -63 19 -114q14 -46 35.5 -79t41.5 -55t34.5 -32.5l14.5 -10.5l-15 -17h106v-21h-135q-11 -28 -12 -61t17 -62l-16 -15
q-20 20 -27 57.5t-12 80.5h-214v21h248q-17 19 -37 50t-37.5 70.5t-29.5 86.5t-12 99l-23 -3q-14 -2 -23.5 -5t-10.5 -2v56q1 -1 3 -1q2 -1 3.5 -1t3.5 -1l24 -5l23 -2q4 66 21.5 126.5t45.5 106.5q5 8 12 20t14.5 23.5t14 20t9.5 9.5h-249v21h399z" />
    <glyph glyph-name="Ecaron" unicode="&#x11a;" horiz-adv-x="259" 
d="M121 669q-8 20 -23.5 30t-44.5 24l46 29q3 -14 9.5 -24t14 -17.5t14 -12.5t9.5 -7q3 3 10 7.5t14.5 12t14 17.5t9.5 24l46 -29q-29 -14 -45 -24t-24 -30h158v-21h-106l16 -17q-18 -13 -42 -38.5t-46 -62t-38.5 -84.5t-19.5 -106h40q25 0 46 3.5t32 5.5l9 3v-56
q-11 5 -36 6t-51 6h-40q3 -63 19 -114q14 -46 35.5 -79t41.5 -55t34.5 -32.5l14.5 -10.5l-15 -17h106v-21h-399v21h248q-17 19 -37 50t-37.5 70.5t-29.5 86.5t-12 99l-23 -3q-14 -2 -23.5 -5t-10.5 -2v56q1 -1 3 -1q2 -1 3.5 -1t3.5 -1l24 -5l23 -2q4 66 21.5 126.5
t45.5 106.5q5 8 12 20t14.5 23.5t14 20t9.5 9.5h-249v21h191z" />
    <glyph glyph-name="ecaron" unicode="&#x11b;" horiz-adv-x="259" 
d="M135 669q-8 20 -23.5 30t-44.5 24l46 29q3 -14 9.5 -24t14 -17.5t14 -12.5t9.5 -7q3 3 10 7.5t14.5 12t14 17.5t9.5 24l46 -29q-29 -14 -45 -24t-24 -30h144v-21h-106l16 -17q-18 -13 -42 -38.5t-46 -62t-38.5 -84.5t-19.5 -106h40q25 0 46 3.5t32 5.5l9 3v-56
q-11 5 -36 6t-51 6h-40q3 -63 19 -114q14 -46 35.5 -79t41.5 -55t34.5 -32.5l14.5 -10.5l-15 -17h106v-21h-399v21h248q-17 19 -37 50t-37.5 70.5t-29.5 86.5t-12 99l-23 -3q-14 -2 -23.5 -5t-10.5 -2v56q1 -1 3 -1q2 -1 3.5 -1t3.5 -1l24 -5l23 -2q4 66 21.5 126.5
t45.5 106.5q5 8 12 20t14.5 23.5t14 20t9.5 9.5h-249v21h205z" />
    <glyph glyph-name="Gcircumflex" unicode="&#x11c;" horiz-adv-x="287" 
d="M164 742q5 -28 22.5 -43.5t44.5 -29.5h126v-21h-161l15 -18q-24 -17 -50.5 -45.5t-49 -67.5t-37 -88.5t-14.5 -109.5q2 -34 8 -67.5t18 -62.5q16 -36 33 -60.5t32.5 -40.5t29 -25t22.5 -14l2 14q2 25 3.5 57t1.5 65q0 37 -2 69t-4 56t-4 38.5t-3 14.5h56q0 2 -2 -12.5
t-4.5 -39t-4 -57.5t-1.5 -69q0 -52 1 -98t13 -87h102v-21h-427v21h257l-3 2q-32 22 -60.5 56t-49.5 76.5t-33 92.5t-12 104q0 56 12.5 105.5t31 90t39.5 71.5t39 50h-221v21h126q27 14 44.5 29.5t22.5 43.5h41zM143 703q-5 -4 -14.5 -10.5t-17.5 -23.5h65q-8 17 -18 23
t-15 11z" />
    <glyph glyph-name="gcircumflex" unicode="&#x11d;" horiz-adv-x="287" 
d="M164 742q5 -28 22.5 -43.5t44.5 -29.5h126v-21h-161l15 -18q-24 -17 -50.5 -45.5t-49 -67.5t-37 -88.5t-14.5 -109.5q2 -34 8 -67.5t18 -62.5q16 -36 33 -60.5t32.5 -40.5t29 -25t22.5 -14l2 14q2 25 3.5 57t1.5 65q0 37 -2 69t-4 56t-4 38.5t-3 14.5h56q0 2 -2 -12.5
t-4.5 -39t-4 -57.5t-1.5 -69q0 -52 1 -98t13 -87h102v-21h-427v21h257l-3 2q-32 22 -60.5 56t-49.5 76.5t-33 92.5t-12 104q0 56 12.5 105.5t31 90t39.5 71.5t39 50h-221v21h126q27 14 44.5 29.5t22.5 43.5h41zM143 703q-5 -4 -14.5 -10.5t-17.5 -23.5h65q-8 17 -18 23
t-15 11z" />
    <glyph glyph-name="Gbreve" unicode="&#x11e;" horiz-adv-x="287" 
d="M117 669q-6 11 -15 19t-19.5 16t-22 17t-20.5 21h66q6 -27 18.5 -36.5t18.5 -14.5q3 3 8.5 6t11 8.5t10.5 14t8 22.5h66q-21 -21 -44 -36t-34 -37h188v-21h-161l15 -18q-24 -17 -50.5 -45.5t-49 -67.5t-37 -88.5t-14.5 -109.5q2 -34 8 -67.5t18 -62.5q16 -36 33 -60.5
t32.5 -40.5t29 -25t22.5 -14l2 14q2 25 3.5 57t1.5 65q0 37 -2 69t-4 56t-4 38.5t-3 14.5h56q0 2 -2 -12.5t-4.5 -39t-4 -57.5t-1.5 -69q0 -52 1 -98t13 -87h102v-21h-427v21h257l-3 2q-32 22 -60.5 56t-49.5 76.5t-33 92.5t-12 104q0 56 12.5 105.5t31 90t39.5 71.5t39 50
h-221v21h187z" />
    <glyph glyph-name="gbreve" unicode="&#x11f;" horiz-adv-x="287" 
d="M117 669q-6 11 -15 19t-19.5 16t-22 17t-20.5 21h66q6 -27 18.5 -36.5t18.5 -14.5q3 3 8.5 6t11 8.5t10.5 14t8 22.5h66q-21 -21 -44 -36t-34 -37h188v-21h-161l15 -18q-24 -17 -50.5 -45.5t-49 -67.5t-37 -88.5t-14.5 -109.5q2 -34 8 -67.5t18 -62.5q16 -36 33 -60.5
t32.5 -40.5t29 -25t22.5 -14l2 14q2 25 3.5 57t1.5 65q0 37 -2 69t-4 56t-4 38.5t-3 14.5h56q0 2 -2 -12.5t-4.5 -39t-4 -57.5t-1.5 -69q0 -52 1 -98t13 -87h102v-21h-427v21h257l-3 2q-32 22 -60.5 56t-49.5 76.5t-33 92.5t-12 104q0 56 12.5 105.5t31 90t39.5 71.5t39 50
h-221v21h187z" />
    <glyph glyph-name="Gdotaccent" unicode="&#x120;" horiz-adv-x="287" 
d="M171 763q-6 -19 -10 -29.5t-4.5 -19t2 -18.5t8.5 -27h190v-21h-161l15 -18q-24 -17 -50.5 -45.5t-49 -67.5t-37 -88.5t-14.5 -109.5q2 -34 8 -67.5t18 -62.5q16 -36 33 -60.5t32.5 -40.5t29 -25t22.5 -14l2 14q2 25 3.5 57t1.5 65q0 37 -2 69t-4 56t-4 38.5t-3 14.5h56
q0 2 -2 -12.5t-4.5 -39t-4 -57.5t-1.5 -69q0 -52 1 -98t13 -87h102v-21h-427v21h257l-3 2q-32 22 -60.5 56t-49.5 76.5t-33 92.5t-12 104q0 56 12.5 105.5t31 90t39.5 71.5t39 50h-221v21h191q14 27 9.5 47t-15.5 47h56z" />
    <glyph glyph-name="gdotaccent" unicode="&#x121;" horiz-adv-x="287" 
d="M171 763q-6 -19 -10 -29.5t-4.5 -19t2 -18.5t8.5 -27h190v-21h-161l15 -18q-24 -17 -50.5 -45.5t-49 -67.5t-37 -88.5t-14.5 -109.5q2 -34 8 -67.5t18 -62.5q16 -36 33 -60.5t32.5 -40.5t29 -25t22.5 -14l2 14q2 25 3.5 57t1.5 65q0 37 -2 69t-4 56t-4 38.5t-3 14.5h56
q0 2 -2 -12.5t-4.5 -39t-4 -57.5t-1.5 -69q0 -52 1 -98t13 -87h102v-21h-427v21h257l-3 2q-32 22 -60.5 56t-49.5 76.5t-33 92.5t-12 104q0 56 12.5 105.5t31 90t39.5 71.5t39 50h-221v21h191q14 27 9.5 47t-15.5 47h56z" />
    <glyph glyph-name="uni0122" unicode="&#x122;" horiz-adv-x="287" 
d="M357 669v-21h-161l15 -18q-24 -17 -50.5 -45.5t-49 -67.5t-37 -88.5t-14.5 -109.5q2 -34 8 -67.5t18 -62.5q16 -36 33 -60.5t32.5 -40.5t29 -25t22.5 -14l2 14q2 25 3.5 57t1.5 65q0 37 -2 69t-4 56t-4 38.5t-3 14.5h56q0 2 -2 -12.5t-4.5 -39t-4 -57.5t-1.5 -69
q0 -52 1 -98t13 -87h102v-21h-173q-5 -16 -7.5 -28t-3 -23.5t0.5 -24t4 -28.5h-31q2 31 1 55t-10 49h-208v21h257l-3 2q-32 22 -60.5 56t-49.5 76.5t-33 92.5t-12 104q0 56 12.5 105.5t31 90t39.5 71.5t39 50h-221v21h427z" />
    <glyph glyph-name="uni0123" unicode="&#x123;" horiz-adv-x="287" 
d="M357 669v-21h-161l15 -18q-24 -17 -50.5 -45.5t-49 -67.5t-37 -88.5t-14.5 -109.5q2 -34 8 -67.5t18 -62.5q16 -36 33 -60.5t32.5 -40.5t29 -25t22.5 -14l2 14q2 25 3.5 57t1.5 65q0 37 -2 69t-4 56t-4 38.5t-3 14.5h56q0 2 -2 -12.5t-4.5 -39t-4 -57.5t-1.5 -69
q0 -52 1 -98t13 -87h102v-21h-173q-5 -16 -7.5 -28t-3 -23.5t0.5 -24t4 -28.5h-31q2 31 1 55t-10 49h-208v21h257l-3 2q-32 22 -60.5 56t-49.5 76.5t-33 92.5t-12 104q0 56 12.5 105.5t31 90t39.5 71.5t39 50h-221v21h427z" />
    <glyph glyph-name="Hcircumflex" unicode="&#x124;" horiz-adv-x="369" 
d="M28 403q13 -5 49 -8q0 31 -3 70q-20 -3 -33.5 -5t-15.5 -3v56q-2 0 12 -2t36 -5v12t-1 22t-2 36t-3 54q-1 6 -1 10.5t-1 7.5h-135v21h167q27 14 44.5 29.5t22.5 43.5h41q5 -28 22.5 -43.5t44.5 -29.5h167v-21h-140q-2 -10 -3 -41t-5 -101h1q20 3 34 4.5t15 2.5v-56
q-1 2 -15 3.5t-34 4.5h-2q0 -12 -0.5 -19.5t-0.5 -15t-0.5 -15.5t-0.5 -20l31.5 3.5t21.5 4.5v-56q-14 7 -53 10v-96q0 -45 1.5 -87.5t4 -78t4 -60.5t1.5 -35h140v-21h-509v21h135q1 3 1 7.5t1 10.5l5 76l3 107q0 30 1 64.5t1 65.5v24q-38 -3 -49 -8v56zM245 0
q0 11 1.5 36.5t4 60.5t4 77t1.5 87v98q-35 2 -74.5 1t-73.5 -3v-96l2 -60q0 -36 1.5 -68.5t3 -59t3 -45.5t1.5 -28h126zM119 648q0 -32 -3.5 -66t-3.5 -79q24 -2 40.5 -2h30.5h31.5t38.5 2l-8 145h-126zM110 468v-21.5v-16t-0.5 -15.5t-1.5 -21q34 -2 73.5 -2.5t74.5 1.5
q0 13 -0.5 21.5t-0.5 16t-0.5 16t-0.5 21.5q-23 2 -39 2h-32h-30.5t-42.5 -2zM184 703q-5 -4 -14.5 -10.5t-17.5 -23.5h65q-8 17 -18 23t-15 11z" />
    <glyph glyph-name="hcircumflex" unicode="&#x125;" horiz-adv-x="369" 
d="M205 742q5 -28 22.5 -43.5t44.5 -29.5h167v-21h-140q-2 -10 -3 -35t-3 -59l-2 -28h1q20 3 34 4.5t15 2.5v-56q-1 2 -15 3.5t-34 4.5h-2q0 -23 -1 -48t-1 -51v-125q0 -45 1.5 -87.5t4 -78t4 -60.5t1.5 -35h140v-21h-509v21h135q1 3 1 7.5t1 10.5l5 76l3 107q0 30 1 61
t1 62v82.5t-3 78.5q-20 -3 -33.5 -5t-15.5 -3v56q-2 0 12 -2t36 -5q0 8 -0.5 14.5t-0.5 13.5l-5 76q-1 6 -1 10.5t-1 7.5h-135v21h167q27 14 44.5 29.5t22.5 43.5h41zM108 261l2 -60q0 -36 1.5 -68.5t3 -59t3 -45.5t1.5 -28h126q0 11 1.5 36.5t4 60.5t4 77t1.5 87v125
q0 26 -1 51t-1 51q-23 2 -39 2h-32h-30.5t-42.5 -2v-51t-2 -51v-125zM113 554q-1 -8 -1 -15.5v-15.5q24 -2 40.5 -2h30.5h31.5t38.5 2l-2 31l-6 94h-126q0 -11 -2.5 -35.5t-3.5 -58.5zM184 703q-5 -4 -14.5 -10.5t-17.5 -23.5h65q-8 17 -18 23t-15 11z" />
    <glyph glyph-name="Hbar" unicode="&#x126;" horiz-adv-x="369" 
d="M28 403q13 -5 49 -8q0 31 -3 70q-20 -3 -33.5 -5t-15.5 -3v56q-2 0 12 -2t36 -5v12t-1 22t-2 36t-3 54q-1 6 -1 10.5t-1 7.5h-135v21h509v-21h-140q-2 -10 -3 -41t-5 -101h1q20 3 34 4.5t15 2.5v-56q-1 2 -15 3.5t-34 4.5h-2q0 -12 -0.5 -19.5t-0.5 -15t-0.5 -15.5
t-0.5 -20l31.5 3.5t21.5 4.5v-56l-7 3v-15q-10 4 -21.5 6.5t-24.5 4.5v-85q0 -45 1.5 -87.5t4 -78t4 -60.5t1.5 -35h140v-21h-509v21h135q1 3 1 7.5t1 10.5l5 76l3 107q0 30 1 64.5t1 65.5v13q-14 -2 -26.5 -4.5t-21.5 -4.5v12h-1v56zM245 0q0 11 1.5 36.5t4 60.5t4 77
t1.5 87v89q-35 3 -74 2t-74 -4v-87l2 -60q0 -36 1.5 -68.5t3 -59t3 -45.5t1.5 -28h126zM119 648q0 -32 -3.5 -66t-3.5 -79q24 -2 40.5 -2h30.5h31.5t38.5 2l-8 145h-126zM110 468v-21.5v-16t-0.5 -15.5t-1.5 -21q34 -2 73.5 -2.5t74.5 1.5q0 13 -0.5 21.5t-0.5 16t-0.5 16
t-0.5 21.5q-23 2 -39 2h-32h-30.5t-42.5 -2z" />
    <glyph glyph-name="hbar" unicode="&#x127;" horiz-adv-x="369" 
d="M36 384q17 -5 41 -10q0 29 -0.5 57t-2.5 54q-20 -3 -33.5 -5t-15.5 -3v56q-2 0 12 -2t36 -5q0 8 -0.5 14.5t-0.5 13.5l-5 76q-1 6 -1 10.5t-1 7.5h-135v21h509v-21h-140q-2 -10 -3 -35t-3 -59l-2 -28h1q20 3 34 4.5t15 2.5v-56q-1 2 -15 3.5t-34 4.5h-2q0 -23 -1 -48
t-1 -51v-12q11 2 22 4.5t22 5.5v-57q-9 3 -20 5.5t-24 4.5v-76q0 -45 1.5 -87.5t4 -78t4 -60.5t1.5 -35h140v-21h-509v21h135q1 3 1 7.5t1 10.5l5 76l3 107q0 30 1 61t1 62v10q-12 -2 -22.5 -3.5t-18.5 -3.5v57zM245 0q0 11 1.5 36.5t4 60.5t4 77t1.5 87v79q-35 3 -74 2.5
t-74 -4.5v-77l2 -60q0 -36 1.5 -68.5t3 -59t3 -45.5t1.5 -28h126zM108 370q35 -5 73 -5t75 4v17q0 26 -1 51t-1 51q-23 2 -39 2h-32h-30.5t-42.5 -2v-51t-2 -51v-16zM113 554q-1 -8 -1 -15.5v-15.5q24 -2 40.5 -2h30.5h31.5t38.5 2l-2 31l-6 94h-126q0 -11 -2.5 -35.5
t-3.5 -58.5z" />
    <glyph glyph-name="Itilde" unicode="&#x128;" 
d="M-70 669h115l-9 16q12 19 27.5 32t32.5 14.5t37 -9.5t41 -39l37 53l19 -33q-15 -23 -30 -34h137v-21h-93v-38q-1 0 -24.5 5.5t-57.5 5.5q0 -10 -1.5 -28.5t-3 -42.5t-3 -53.5t-1.5 -60.5l-2 -55v-114l2 -56q0 -33 1.5 -62.5t3 -54t3 -42t1.5 -25.5h14q26 2 47 6t21 5v-38
h93v-21h-407v21h99v38q5 -2 25 -5.5t43 -5.5h11q1 3 1 7.5t1 9.5l5 69l3 98q1 27 2 55.5t0 57.5q0 55 -1.5 110.5t-3.5 100.5l-5 69q-1 5 -1 9.5t-1 7.5q-12 0 -25.5 -1.5t-25 -3.5t-19.5 -4t-9 -2v38h-99v21zM67 669h61q-8 6 -17.5 14.5t-18.5 21.5z" />
    <glyph glyph-name="itilde" unicode="&#x129;" horiz-adv-x="307" 
d="M-50 669h115l-9 16q12 19 27.5 32t32.5 14.5t37 -9.5t41 -39l37 53l19 -33q-15 -23 -30 -34h137v-21h-93v-38q-1 0 -24.5 5.5t-57.5 5.5q0 -10 -1.5 -28.5t-3 -42.5t-3 -53.5t-1.5 -60.5l-2 -55v-114l2 -56q0 -33 1.5 -62.5t3 -54t3 -42t1.5 -25.5h14q26 2 47 6t21 5v-38
h93v-21h-407v21h99v38q5 -2 25 -5.5t43 -5.5h11q1 3 1 7.5t1 9.5l5 69l3 98q1 27 2 55.5t0 57.5q0 55 -1.5 110.5t-3.5 100.5l-5 69q-1 5 -1 9.5t-1 7.5q-12 0 -25.5 -1.5t-25 -3.5t-19.5 -4t-9 -2v38h-99v21zM87 669h61q-8 6 -17.5 14.5t-18.5 21.5z" />
    <glyph glyph-name="Imacron" unicode="&#x12a;" 
d="M-70 669h111v40q40 -19 90.5 -19.5t93.5 19.5v-40h112v-21h-93v-38q-1 0 -24.5 5.5t-57.5 5.5q0 -10 -1.5 -28.5t-3 -42.5t-3 -53.5t-1.5 -60.5l-2 -55v-114l2 -56q0 -33 1.5 -62.5t3 -54t3 -42t1.5 -25.5h14q26 2 47 6t21 5v-38h93v-21h-407v21h99v38q5 -2 25 -5.5
t43 -5.5h11q1 3 1 7.5t1 9.5l5 69l3 98q1 27 2 55.5t0 57.5q0 55 -1.5 110.5t-3.5 100.5l-5 69q-1 5 -1 9.5t-1 7.5q-12 0 -25.5 -1.5t-25 -3.5t-19.5 -4t-9 -2v38h-99v21z" />
    <glyph glyph-name="imacron" unicode="&#x12b;" 
d="M-70 669h111v40q40 -19 90.5 -19.5t93.5 19.5v-40h112v-21h-93v-38q-1 0 -24.5 5.5t-57.5 5.5q0 -10 -1.5 -28.5t-3 -42.5t-3 -53.5t-1.5 -60.5l-2 -55v-114l2 -56q0 -33 1.5 -62.5t3 -54t3 -42t1.5 -25.5h14q26 2 47 6t21 5v-38h93v-21h-407v21h99v38q5 -2 25 -5.5
t43 -5.5h11q1 3 1 7.5t1 9.5l5 69l3 98q1 27 2 55.5t0 57.5q0 55 -1.5 110.5t-3.5 100.5l-5 69q-1 5 -1 9.5t-1 7.5q-12 0 -25.5 -1.5t-25 -3.5t-19.5 -4t-9 -2v38h-99v21z" />
    <glyph glyph-name="Iogonek" unicode="&#x12e;" 
d="M-70 669h407v-21h-93v-38q-1 0 -24.5 5.5t-57.5 5.5q0 -10 -1.5 -28.5t-3 -42.5t-3 -53.5t-1.5 -60.5l-2 -55v-114l2 -56q0 -33 1.5 -62.5t3 -54t3 -42t1.5 -25.5h14q26 2 47 6t21 5v-38h93v-21h-179q-11 -28 -12 -61t17 -62l-16 -15q-20 20 -27 57.5t-12 80.5h-178v21
h99v38q5 -2 25 -5.5t43 -5.5h11q1 3 1 7.5t1 9.5l5 69l3 98q1 27 2 55.5t0 57.5q0 55 -1.5 110.5t-3.5 100.5l-5 69q-1 5 -1 9.5t-1 7.5q-12 0 -25.5 -1.5t-25 -3.5t-19.5 -4t-9 -2v38h-99v21z" />
    <glyph glyph-name="iogonek" unicode="&#x12f;" 
d="M-70 669h407v-21h-93v-38q-1 0 -24.5 5.5t-57.5 5.5q0 -10 -1.5 -28.5t-3 -42.5t-3 -53.5t-1.5 -60.5l-2 -55v-114l2 -56q0 -33 1.5 -62.5t3 -54t3 -42t1.5 -25.5h14q26 2 47 6t21 5v-38h93v-21h-179q-11 -28 -12 -61t17 -62l-16 -15q-20 20 -27 57.5t-12 80.5h-178v21
h99v38q5 -2 25 -5.5t43 -5.5h11q1 3 1 7.5t1 9.5l5 69l3 98q1 27 2 55.5t0 57.5q0 55 -1.5 110.5t-3.5 100.5l-5 69q-1 5 -1 9.5t-1 7.5q-12 0 -25.5 -1.5t-25 -3.5t-19.5 -4t-9 -2v38h-99v21z" />
    <glyph glyph-name="Idotaccent" unicode="&#x130;" 
d="M161 763q-6 -19 -10 -29.5t-4.5 -19t2 -18.5t8.5 -27h180v-21h-93v-38q-1 0 -24.5 5.5t-57.5 5.5q0 -10 -1.5 -28.5t-3 -42.5t-3 -53.5t-1.5 -60.5l-2 -55v-114l2 -56q0 -33 1.5 -62.5t3 -54t3 -42t1.5 -25.5h14q26 2 47 6t21 5v-38h93v-21h-407v21h99v38q5 -2 25 -5.5
t43 -5.5h11q1 3 1 7.5t1 9.5l5 69l3 98q1 27 2 55.5t0 57.5q0 55 -1.5 110.5t-3.5 100.5l-5 69q-1 5 -1 9.5t-1 7.5q-12 0 -25.5 -1.5t-25 -3.5t-19.5 -4t-9 -2v38h-99v21h180q14 28 10 47.5t-15 46.5h56z" />
    <glyph glyph-name="dotlessi" unicode="&#x131;" 
d="M-70 669h407v-21h-93v-38q-1 0 -24.5 5.5t-57.5 5.5q0 -10 -1.5 -28.5t-3 -42.5t-3 -53.5t-1.5 -60.5l-2 -55v-114l2 -56q0 -33 1.5 -62.5t3 -54t3 -42t1.5 -25.5h14q26 2 47 6t21 5v-38h93v-21h-407v21h99v38q5 -2 25 -5.5t43 -5.5h11q1 3 1 7.5t1 9.5l5 69l3 98
q1 27 2 55.5t0 57.5q0 55 -1.5 110.5t-3.5 100.5l-5 69q-1 5 -1 9.5t-1 7.5q-12 0 -25.5 -1.5t-25 -3.5t-19.5 -4t-9 -2v38h-99v21z" />
    <glyph glyph-name="Jcircumflex" unicode="&#x134;" horiz-adv-x="306" 
d="M193 742q5 -28 22.5 -43.5t44.5 -29.5h116v-21h-110v-39q0 -1 -8 2t-23 5l-13 2v-3.5t-0.5 -11.5t-2 -26t-3.5 -48l-3 -111q-1 -15 -1 -30.5v-31.5q0 -41 -3 -72t-9 -60q-9 -44 -24.5 -79t-33.5 -63t-36 -48.5t-31 -33.5h301v-21h-446v21h103l-16 23l24 14
q10 7 24.5 19.5t29.5 29.5t29.5 39t25.5 49q9 24 15 45t9.5 42t4.5 44t1 51q-2 42 -2.5 83.5t-1.5 77.5t-2.5 63.5t-4.5 40.5h-18q-3 0 -15 -1.5t-25.5 -3.5t-25.5 -4t-13 -3v39h-142v21h155q27 14 44.5 29.5t22.5 43.5h41zM172 703q-5 -4 -14.5 -10.5t-17.5 -23.5h65
q-8 17 -18 23t-15 11z" />
    <glyph glyph-name="jcircumflex" unicode="&#x135;" horiz-adv-x="306" 
d="M173 742q5 -28 22.5 -43.5t44.5 -29.5h136v-21h-110v-39q0 -1 -8 2t-23 5l-13 2v-3.5t-0.5 -11.5t-2 -26t-3.5 -48l-3 -111q-1 -15 -1 -30.5v-31.5q0 -41 -3 -72t-9 -60q-9 -44 -24.5 -79t-33.5 -63t-36 -48.5t-31 -33.5h301v-21h-446v21h103l-16 23l24 14
q10 7 24.5 19.5t29.5 29.5t29.5 39t25.5 49q9 24 15 45t9.5 42t4.5 44t1 51q-2 42 -2.5 83.5t-1.5 77.5t-2.5 63.5t-4.5 40.5h-18q-3 0 -15 -1.5t-25.5 -3.5t-25.5 -4t-13 -3v39h-142v21h135q27 14 44.5 29.5t22.5 43.5h41zM152 703q-5 -4 -14.5 -10.5t-17.5 -23.5h65
q-8 17 -18 23t-15 11z" />
    <glyph glyph-name="uni0136" unicode="&#x136;" horiz-adv-x="327" 
d="M397 669v-21h-103l9 -7q1 -1 -7 -5.5t-22 -16.5q-12 -11 -20.5 -18.5t-20.5 -18t-30 -27.5t-49 -45q20 -20 38 -47.5t33 -59.5q16 -36 30.5 -89.5t26 -109.5t20 -106.5t13.5 -80.5l3 -17h79v-21h-233q-5 -16 -7.5 -28t-3 -23.5t0.5 -24t4 -28.5h-31q2 31 1 55t-10 49
h-188v21h122q1 3 1 7.5t1 10.5l5 76l3 107q0 30 1 61t1 62q0 32 -0.5 63t-1.5 60l-3 107l-5 76q-1 6 -1 10.5t-1 7.5h-122v21h467zM194 388q-21 43 -48 69t-48 37l-2 -47q-1 -15 0 -30t-1 -31l2 -185q0 -36 1.5 -68.5t3 -59t3 -45.5t1.5 -28h158v13v50t-5.5 92.5t-20 115
t-44.5 117.5zM163 566q30 17 48.5 40.5t33.5 41.5h-139q0 -11 -2.5 -35.5t-3.5 -58.5l18 -14z" />
    <glyph glyph-name="uni0137" unicode="&#x137;" horiz-adv-x="327" 
d="M397 669v-21h-103l9 -7q1 -1 -7 -5.5t-22 -16.5q-12 -11 -20.5 -18.5t-20.5 -18t-30 -27.5t-49 -45q20 -20 38 -47.5t33 -59.5q16 -36 30.5 -89.5t26 -109.5t20 -106.5t13.5 -80.5l3 -17h79v-21h-233q-5 -16 -7.5 -28t-3 -23.5t0.5 -24t4 -28.5h-31q2 31 1 55t-10 49
h-188v21h122q1 3 1 7.5t1 10.5l5 76l3 107q0 30 1 61t1 62q0 32 -0.5 63t-1.5 60l-3 107l-5 76q-1 6 -1 10.5t-1 7.5h-122v21h467zM194 388q-21 43 -48 69t-48 37l-2 -47q-1 -15 0 -30t-1 -31l2 -185q0 -36 1.5 -68.5t3 -59t3 -45.5t1.5 -28h158v13v50t-5.5 92.5t-20 115
t-44.5 117.5zM163 566q30 17 48.5 40.5t33.5 41.5h-139q0 -11 -2.5 -35.5t-3.5 -58.5l18 -14z" />
    <glyph glyph-name="kgreenlandic" unicode="&#x138;" horiz-adv-x="327" 
d="M397 669v-21h-103l9 -7q1 -1 -7 -5.5t-22 -16.5q-12 -11 -20.5 -18.5t-20.5 -18t-30 -27.5t-49 -45q20 -20 38 -47.5t33 -59.5q16 -36 30.5 -89.5t26 -109.5t20 -106.5t13.5 -80.5l3 -17h79v-21h-467v21h122q1 3 1 7.5t1 10.5l5 76l3 107q0 30 1 61t1 62q0 32 -0.5 63
t-1.5 60l-3 107l-5 76q-1 6 -1 10.5t-1 7.5h-122v21h467zM194 388q-21 43 -48 69t-48 37l-2 -47q-1 -15 0 -30t-1 -31l2 -185q0 -36 1.5 -68.5t3 -59t3 -45.5t1.5 -28h158v13v50t-5.5 92.5t-20 115t-44.5 117.5zM163 566q30 17 48.5 40.5t33.5 41.5h-139q0 -11 -2.5 -35.5
t-3.5 -58.5l18 -14z" />
    <glyph glyph-name="Lacute" unicode="&#x139;" horiz-adv-x="246" 
d="M171 698l-66 -10l-5 -19h216v-21h-217q0 -9 -1.5 -28t-3 -45.5t-3 -59t-1.5 -68.5v-246q0 -53 2.5 -97t4.5 -73q10 7 24 15l67 51q11 8 20.5 17t16.5 17q8 9 15 18l34 -45q2 1 -18 -7t-47 -28q-25 -18 -40 -28.5t-28 -21.5l-21 -19h196v-21h-386v21h115q1 3 1 7.5t1 10.5
l5 76l3 107q1 29 2 60.5t0 62.5q0 61 -1.5 121.5t-3.5 108.5l-5 76q-1 6 -1 10.5t-1 7.5h-115v21h128q10 14 20 25t23.5 20t31.5 18.5t45 20.5z" />
    <glyph glyph-name="lacute" unicode="&#x13a;" horiz-adv-x="296" 
d="M204 698l-66 -10l-5 -19h233v-21h-267q0 -9 -1.5 -28t-3 -45.5t-3 -59t-1.5 -68.5v-246q0 -53 2.5 -97t4.5 -73q10 7 24 15l67 51q11 8 20.5 17t16.5 17q8 9 15 18l34 -45q2 1 -18 -7t-47 -28q-25 -18 -40 -28.5t-28 -21.5l-21 -19h246v-21h-436v21h115q1 3 1 7.5t1 10.5
l5 76l3 107q1 29 2 60.5t0 62.5q0 61 -1.5 121.5t-3.5 108.5l-5 76q-1 6 -1 10.5t-1 7.5h-115v21h161q10 14 20 25t23.5 20t31.5 18.5t45 20.5z" />
    <glyph glyph-name="uni013B" unicode="&#x13b;" horiz-adv-x="246" 
d="M-70 669h386v-21h-217q0 -9 -1.5 -28t-3 -45.5t-3 -59t-1.5 -68.5v-246q0 -53 2.5 -97t4.5 -73q10 7 24 15l67 51q11 8 20.5 17t16.5 17q8 9 15 18l34 -45q2 1 -18 -7t-47 -28q-25 -18 -40 -28.5t-28 -21.5l-21 -19h196v-21h-142q-5 -16 -7.5 -28t-3 -23.5t0.5 -24
t4 -28.5h-31q2 31 1 55t-10 49h-198v21h115q1 3 1 7.5t1 10.5l5 76l3 107q1 29 2 60.5t0 62.5q0 61 -1.5 121.5t-3.5 108.5l-5 76q-1 6 -1 10.5t-1 7.5h-115v21z" />
    <glyph glyph-name="uni013C" unicode="&#x13c;" horiz-adv-x="246" 
d="M-70 669h386v-21h-217q0 -9 -1.5 -28t-3 -45.5t-3 -59t-1.5 -68.5v-246q0 -53 2.5 -97t4.5 -73q10 7 24 15l67 51q11 8 20.5 17t16.5 17q8 9 15 18l34 -45q2 1 -18 -7t-47 -28q-25 -18 -40 -28.5t-28 -21.5l-21 -19h196v-21h-142q-5 -16 -7.5 -28t-3 -23.5t0.5 -24
t4 -28.5h-31q2 31 1 55t-10 49h-198v21h115q1 3 1 7.5t1 10.5l5 76l3 107q1 29 2 60.5t0 62.5q0 61 -1.5 121.5t-3.5 108.5l-5 76q-1 6 -1 10.5t-1 7.5h-115v21z" />
    <glyph glyph-name="Lcaron" unicode="&#x13d;" horiz-adv-x="246" 
d="M163 515q5 39 1 74t-15 59h-50q0 -9 -1.5 -28t-3 -45.5t-3 -59t-1.5 -68.5v-246q0 -53 2.5 -97t4.5 -73q10 7 24 15l67 51q11 8 20.5 17t16.5 17q8 9 15 18l34 -45q2 1 -18 -7t-47 -28q-25 -18 -40 -28.5t-28 -21.5l-21 -19h196v-21h-386v21h115q1 3 1 7.5t1 10.5l5 76
l3 107q1 29 2 60.5t0 62.5q0 61 -1.5 121.5t-3.5 108.5l-5 76q-1 6 -1 10.5t-1 7.5h-115v21h386v-21h-101q-5 -16 -9.5 -29.5t-7 -28.5t-2.5 -33t3 -42h-36z" />
    <glyph glyph-name="lcaron" unicode="&#x13e;" horiz-adv-x="296" 
d="M175 515q5 39 1 74t-15 59h-62q0 -9 -1.5 -28t-3 -45.5t-3 -59t-1.5 -68.5v-246q0 -53 2.5 -97t4.5 -73q10 7 24 15l67 51q11 8 20.5 17t16.5 17q8 9 15 18l34 -45q2 1 -18 -7t-47 -28q-25 -18 -40 -28.5t-28 -21.5l-21 -19h246v-21h-436v21h115q1 3 1 7.5t1 10.5l5 76
l3 107q1 29 2 60.5t0 62.5q0 61 -1.5 121.5t-3.5 108.5l-5 76q-1 6 -1 10.5t-1 7.5h-115v21h436v-21h-139q-5 -16 -9.5 -29.5t-7 -28.5t-2.5 -33t3 -42h-36z" />
    <glyph glyph-name="Lslash" unicode="&#x141;" horiz-adv-x="246" 
d="M-70 669h386v-21h-217q0 -9 -1.5 -28t-3 -45.5t-3 -59t-1.5 -68.5v-110q20 14 37 29t29 30l30 -47q-19 -1 -44.5 -13t-51.5 -29v-106q0 -53 2.5 -97t4.5 -73q10 7 24 15l67 51q11 8 20.5 17t16.5 17q8 9 15 18l34 -45q2 1 -18 -7t-47 -28q-25 -18 -40 -28.5t-28 -21.5
l-21 -19h196v-21h-386v21h115q1 3 1 7.5t1 10.5l5 76l3 107q0 20 1 40.5t1 41.5q-30 -25 -43 -43l-30 47q16 4 34.5 11.5t38.5 18.5v7q0 61 -1.5 121.5t-3.5 108.5l-5 76q-1 6 -1 10.5t-1 7.5h-115v21z" />
    <glyph glyph-name="lslash" unicode="&#x142;" horiz-adv-x="246" 
d="M-70 669h386v-21h-217q0 -9 -1.5 -28t-3 -45.5t-3 -59t-1.5 -68.5v-110q20 14 37 29t29 30l30 -47q-19 -1 -44.5 -13t-51.5 -29v-106q0 -53 2.5 -97t4.5 -73q10 7 24 15l67 51q11 8 20.5 17t16.5 17q8 9 15 18l34 -45q2 1 -18 -7t-47 -28q-25 -18 -40 -28.5t-28 -21.5
l-21 -19h196v-21h-386v21h115q1 3 1 7.5t1 10.5l5 76l3 107q0 20 1 40.5t1 41.5q-30 -25 -43 -43l-30 47q16 4 34.5 11.5t38.5 18.5v7q0 61 -1.5 121.5t-3.5 108.5l-5 76q-1 6 -1 10.5t-1 7.5h-115v21z" />
    <glyph glyph-name="Nacute" unicode="&#x143;" horiz-adv-x="355" 
d="M234 698l-66 -10l-5 -19h262v-21h-111q0 -11 -1 -36.5t-2.5 -61t-3.5 -78t-4 -86.5q0 -56 1.5 -118t4 -117t4 -96t1.5 -55h111v-21h-495v21h116q0 11 1 37t2.5 61t3.5 77t4 86q0 57 -1.5 119t-4 116.5t-4 95.5t-1.5 56h-116v21h191q10 14 20 25t23.5 20t31.5 18.5
t45 20.5zM89 386q0 -15 -0.5 -30.5t-0.5 -31.5q0 -49 1 -102t2.5 -98.5t3.5 -79.5t5 -44h160q3 10 5 43t3.5 78t2.5 98t1 105v23v25t-1 21t-4 12q-21 9 -43 29.5t-44 46.5t-44 53.5t-41 50.5q-4 -36 -5 -89.5t-1 -109.5zM104 648q5 -14 15.5 -31t24.5 -37q4 -7 18 -25.5
t32.5 -39t38.5 -38t37 -21.5q-1 34 -2 65.5t-2 57t-2.5 43.5t-3.5 26h-156z" />
    <glyph glyph-name="nacute" unicode="&#x144;" horiz-adv-x="308" 
d="M234 698l-66 -10l-5 -19h215v-21h-247q16 -8 34 -23t34 -34.5t29.5 -43.5t21.5 -50q7 -21 11 -61t6.5 -88.5t4 -101t2.5 -98t2 -80t3 -47.5q0 -7 0.5 -12t0.5 -9h98v-21h-448v21h115q0 18 0.5 28.5t1.5 23t2 31t2 52.5t1.5 88t0.5 137q0 77 -0.5 123.5t-1.5 73t-2 38
t-2 17.5t-1.5 12.5t-0.5 23.5h-115v21h191q10 14 20 25t23.5 20t31.5 18.5t45 20.5zM226 0q5 63 7.5 124t2.5 134q0 89 -5.5 142t-13 82t-15 40t-10.5 16q-3 4 -4 5.5t-3.5 4.5t-8.5 9.5t-18 18.5q-17 14 -33 22t-29 12q-1 -10 -2 -26.5t-1.5 -52.5t-1 -98t-0.5 -163v-64.5
v-54.5t0.5 -39t0.5 -18q2 -35 3.5 -60t3.5 -34h127z" />
    <glyph glyph-name="uni0145" unicode="&#x145;" horiz-adv-x="355" 
d="M-70 669h495v-21h-111q0 -11 -1 -36.5t-2.5 -61t-3.5 -78t-4 -86.5q0 -56 1.5 -118t4 -117t4 -96t1.5 -55h111v-21h-241q-5 -16 -7.5 -28t-3 -23.5t0.5 -24t4 -28.5h-31q2 31 1 55t-10 49h-208v21h116q0 11 1 37t2.5 61t3.5 77t4 86q0 57 -1.5 119t-4 116.5t-4 95.5
t-1.5 56h-116v21zM89 386q0 -15 -0.5 -30.5t-0.5 -31.5q0 -49 1 -102t2.5 -98.5t3.5 -79.5t5 -44h160q3 10 5 43t3.5 78t2.5 98t1 105v23v25t-1 21t-4 12q-21 9 -43 29.5t-44 46.5t-44 53.5t-41 50.5q-4 -36 -5 -89.5t-1 -109.5zM104 648q5 -14 15.5 -31t24.5 -37
q4 -7 18 -25.5t32.5 -39t38.5 -38t37 -21.5q-1 34 -2 65.5t-2 57t-2.5 43.5t-3.5 26h-156z" />
    <glyph glyph-name="uni0146" unicode="&#x146;" horiz-adv-x="355" 
d="M-70 669h495v-21h-111q0 -11 -1 -36.5t-2.5 -61t-3.5 -78t-4 -86.5q0 -56 1.5 -118t4 -117t4 -96t1.5 -55h111v-21h-241q-5 -16 -7.5 -28t-3 -23.5t0.5 -24t4 -28.5h-31q2 31 1 55t-10 49h-208v21h116q0 11 1 37t2.5 61t3.5 77t4 86q0 57 -1.5 119t-4 116.5t-4 95.5
t-1.5 56h-116v21zM89 386q0 -15 -0.5 -30.5t-0.5 -31.5q0 -49 1 -102t2.5 -98.5t3.5 -79.5t5 -44h160q3 10 5 43t3.5 78t2.5 98t1 105v23v25t-1 21t-4 12q-21 9 -43 29.5t-44 46.5t-44 53.5t-41 50.5q-4 -36 -5 -89.5t-1 -109.5zM104 648q5 -14 15.5 -31t24.5 -37
q4 -7 18 -25.5t32.5 -39t38.5 -38t37 -21.5q-1 34 -2 65.5t-2 57t-2.5 43.5t-3.5 26h-156z" />
    <glyph glyph-name="Ncaron" unicode="&#x147;" horiz-adv-x="355" 
d="M-70 669h222q-8 20 -23.5 30t-44.5 24l46 29q3 -14 9.5 -24t14 -17.5t14 -12.5t9.5 -7q3 3 10 7.5t14.5 12t14 17.5t9.5 24l46 -29q-29 -14 -45 -24t-24 -30h223v-21h-111q0 -11 -1 -36.5t-2.5 -61t-3.5 -78t-4 -86.5q0 -56 1.5 -118t4 -117t4 -96t1.5 -55h111v-21h-495
v21h116q0 11 1 37t2.5 61t3.5 77t4 86q0 57 -1.5 119t-4 116.5t-4 95.5t-1.5 56h-116v21zM89 386q0 -15 -0.5 -30.5t-0.5 -31.5q0 -49 1 -102t2.5 -98.5t3.5 -79.5t5 -44h160q3 10 5 43t3.5 78t2.5 98t1 105v23v25t-1 21t-4 12q-21 9 -43 29.5t-44 46.5t-44 53.5t-41 50.5
q-4 -36 -5 -89.5t-1 -109.5zM104 648q5 -14 15.5 -31t24.5 -37q4 -7 18 -25.5t32.5 -39t38.5 -38t37 -21.5q-1 34 -2 65.5t-2 57t-2.5 43.5t-3.5 26h-156z" />
    <glyph glyph-name="ncaron" unicode="&#x148;" horiz-adv-x="308" 
d="M378 -21h-448v21h115q0 18 0.5 28.5t1.5 23t2 31t2 52.5t1.5 88t0.5 137q0 77 -0.5 123.5t-1.5 73t-2 38t-2 17.5t-1.5 12.5t-0.5 23.5h-115v21h222q-8 20 -23.5 30t-44.5 24l46 29q3 -14 9.5 -24t14 -17.5t14 -12.5t9.5 -7q3 3 10 7.5t14.5 12t14 17.5t9.5 24l46 -29
q-29 -14 -45 -24t-24 -30h176v-21h-247q16 -8 34 -23t34 -34.5t29.5 -43.5t21.5 -50q7 -21 11 -61t6.5 -88.5t4 -101t2.5 -98t2 -80t3 -47.5q0 -7 0.5 -12t0.5 -9h98v-21zM226 0q5 63 7.5 124t2.5 134q0 89 -5.5 142t-13 82t-15 40t-10.5 16q-3 4 -4 5.5t-3.5 4.5t-8.5 9.5
t-18 18.5q-17 14 -33 22t-29 12q-1 -10 -2 -26.5t-1.5 -52.5t-1 -98t-0.5 -163v-64.5v-54.5t0.5 -39t0.5 -18q2 -35 3.5 -60t3.5 -34h127z" />
    <glyph glyph-name="Eng" unicode="&#x14a;" horiz-adv-x="355" 
d="M-70 669h495v-21h-111q0 -11 -1 -36.5t-2.5 -61t-3.5 -78t-4 -86.5q0 -56 1.5 -118t4 -117t4 -96t1.5 -55h111v-21h-128q-11 -46 -29 -82.5t-38 -64.5l-44 27q20 17 36.5 37t27.5 46l13 37h-333v21h116q0 11 1 37t2.5 61t3.5 77t4 86q0 57 -1.5 119t-4 116.5t-4 95.5
t-1.5 56h-116v21zM89 386q0 -15 -0.5 -30.5t-0.5 -31.5q0 -49 1 -102t2.5 -98.5t3.5 -79.5t5 -44h160q3 10 5 43t3.5 78t2.5 98t1 105v23v25t-1 21t-4 12q-21 9 -43 29.5t-44 46.5t-44 53.5t-41 50.5q-4 -36 -5 -89.5t-1 -109.5zM104 648q5 -14 15.5 -31t24.5 -37
q4 -7 18 -25.5t32.5 -39t38.5 -38t37 -21.5q-1 34 -2 65.5t-2 57t-2.5 43.5t-3.5 26h-156z" />
    <glyph glyph-name="eng" unicode="&#x14b;" horiz-adv-x="355" 
d="M-70 669h495v-21h-111q0 -11 -1 -36.5t-2.5 -61t-3.5 -78t-4 -86.5q0 -56 1.5 -118t4 -117t4 -96t1.5 -55h111v-21h-128q-11 -46 -29 -82.5t-38 -64.5l-44 27q20 17 36.5 37t27.5 46l13 37h-333v21h116q0 11 1 37t2.5 61t3.5 77t4 86q0 57 -1.5 119t-4 116.5t-4 95.5
t-1.5 56h-116v21zM89 386q0 -15 -0.5 -30.5t-0.5 -31.5q0 -49 1 -102t2.5 -98.5t3.5 -79.5t5 -44h160q3 10 5 43t3.5 78t2.5 98t1 105v23v25t-1 21t-4 12q-21 9 -43 29.5t-44 46.5t-44 53.5t-41 50.5q-4 -36 -5 -89.5t-1 -109.5zM104 648q5 -14 15.5 -31t24.5 -37
q4 -7 18 -25.5t32.5 -39t38.5 -38t37 -21.5q-1 34 -2 65.5t-2 57t-2.5 43.5t-3.5 26h-156z" />
    <glyph glyph-name="Omacron" unicode="&#x14c;" horiz-adv-x="318" 
d="M67 669v40q40 -19 90.5 -19.5t93.5 19.5v-40h137v-21h-197q23 -23 40 -61t28.5 -83.5t17 -96.5t5.5 -100q0 -107 -20.5 -183.5t-52.5 -117.5q-4 -4 -5 -6h184v-21h-458v21h197q-24 23 -41.5 62t-29 87t-17 101t-5.5 104q0 46 6 92t16.5 85t24.5 69.5t31 47.5h-182v21h137
zM199 556q-13 24 -25.5 37t-21.5 22q-24 -24 -40.5 -57.5t-26.5 -71.5t-14.5 -80.5t-4.5 -84.5q4 -83 17 -135t28.5 -83t30.5 -46t23 -22q2 1 6 5q21 20 36.5 51.5t25 70t14 81.5t4.5 85q-2 28 -5.5 59t-9.5 61t-15 57.5t-22 50.5zM114 318l45 79l48 -67l-47 -79z" />
    <glyph glyph-name="omacron" unicode="&#x14d;" horiz-adv-x="318" 
d="M67 669v40q40 -19 90.5 -19.5t93.5 19.5v-40h137v-21h-197q23 -23 40 -61t28.5 -83.5t17 -96.5t5.5 -100q0 -107 -20.5 -183.5t-52.5 -117.5q-4 -4 -5 -6h184v-21h-458v21h197q-24 23 -41.5 62t-29 87t-17 101t-5.5 104q0 46 6 92t16.5 85t24.5 69.5t31 47.5h-182v21h137
zM199 556q-13 24 -25.5 37t-21.5 22q-24 -24 -40.5 -57.5t-26.5 -71.5t-14.5 -80.5t-4.5 -84.5q4 -83 17 -135t28.5 -83t30.5 -46t23 -22q2 1 6 5q21 20 36.5 51.5t25 70t14 81.5t4.5 85q-2 28 -5.5 59t-9.5 61t-15 57.5t-22 50.5zM114 318l45 79l48 -67l-47 -79z" />
    <glyph glyph-name="Ohungarumlaut" unicode="&#x150;" horiz-adv-x="318" 
d="M252 698l-66 -10l-5 -19h207v-21h-197q23 -23 40 -61t28.5 -83.5t17 -96.5t5.5 -100q0 -107 -20.5 -183.5t-52.5 -117.5q-4 -4 -5 -6h184v-21h-458v21h197q-24 23 -41.5 62t-29 87t-17 101t-5.5 104q0 46 6 92t16.5 85t24.5 69.5t31 47.5h-182v21h135q10 14 20 25
t23.5 20t31.5 18.5t45 20.5l-5 -41q14 10 32.5 19.5t46.5 21.5zM199 556q-13 24 -25.5 37t-21.5 22q-24 -24 -40.5 -57.5t-26.5 -71.5t-14.5 -80.5t-4.5 -84.5q4 -83 17 -135t28.5 -83t30.5 -46t23 -22q2 1 6 5q21 20 36.5 51.5t25 70t14 81.5t4.5 85q-2 28 -5.5 59t-9.5 61
t-15 57.5t-22 50.5zM114 318l45 79l48 -67l-47 -79zM107 669h32q5 8 10 14l10 12l-47 -7z" />
    <glyph glyph-name="ohungarumlaut" unicode="&#x151;" horiz-adv-x="318" 
d="M252 698l-66 -10l-5 -19h207v-21h-197q23 -23 40 -61t28.5 -83.5t17 -96.5t5.5 -100q0 -107 -20.5 -183.5t-52.5 -117.5q-4 -4 -5 -6h184v-21h-458v21h197q-24 23 -41.5 62t-29 87t-17 101t-5.5 104q0 46 6 92t16.5 85t24.5 69.5t31 47.5h-182v21h135q10 14 20 25
t23.5 20t31.5 18.5t45 20.5l-5 -41q14 10 32.5 19.5t46.5 21.5zM199 556q-13 24 -25.5 37t-21.5 22q-24 -24 -40.5 -57.5t-26.5 -71.5t-14.5 -80.5t-4.5 -84.5q4 -83 17 -135t28.5 -83t30.5 -46t23 -22q2 1 6 5q21 20 36.5 51.5t25 70t14 81.5t4.5 85q-2 28 -5.5 59t-9.5 61
t-15 57.5t-22 50.5zM107 669h32q5 8 10 14l10 12l-47 -7z" />
    <glyph glyph-name="OE" unicode="&#x152;" horiz-adv-x="470" 
d="M540 669v-21h-126l16 -17q-18 -13 -42 -38.5t-46 -62t-38.5 -84.5t-19.5 -106h40q25 0 46 3.5t32 5.5l9 3v-56q-11 5 -36 6t-51 6h-40q3 -63 19 -114q14 -46 35.5 -79t41.5 -55t34.5 -32.5l14.5 -10.5l-15 -17h126v-21h-610v21h197q-24 23 -41.5 62t-29 87t-17 101
t-5.5 104q0 46 6 92t16.5 85t24.5 69.5t31 47.5h-182v21h610zM199 556q-13 24 -25.5 37t-21.5 22q-24 -24 -40.5 -57.5t-26.5 -71.5t-14.5 -80.5t-4.5 -84.5q4 -83 17 -135t28.5 -83t30.5 -46t23 -22q2 1 6 5q20 18 34.5 47t24 64.5t15 75t6.5 78.5l-21 -2q-14 -2 -23.5 -5
t-10.5 -2v56q1 -1 3 -1q2 -1 3.5 -1t3.5 -1l24 -5l20 -2q-2 27 -5.5 56t-9.5 57t-15 54t-21 47zM191 648q29 -30 48.5 -81.5t30.5 -114.5q18 70 50 123q5 8 12 20t14.5 23.5t14 20t9.5 9.5h-179zM209 6q-4 -4 -5 -6h165q-23 26 -50.5 72t-46.5 106q-9 -58 -25.5 -101.5
t-37.5 -70.5z" />
    <glyph glyph-name="oe" unicode="&#x153;" horiz-adv-x="470" 
d="M540 669v-21h-126l16 -17q-18 -13 -42 -38.5t-46 -62t-38.5 -84.5t-19.5 -106h40q25 0 46 3.5t32 5.5l9 3v-56q-11 5 -36 6t-51 6h-40q3 -63 19 -114q14 -46 35.5 -79t41.5 -55t34.5 -32.5l14.5 -10.5l-15 -17h126v-21h-610v21h197q-24 23 -41.5 62t-29 87t-17 101
t-5.5 104q0 46 6 92t16.5 85t24.5 69.5t31 47.5h-182v21h610zM199 556q-13 24 -25.5 37t-21.5 22q-24 -24 -40.5 -57.5t-26.5 -71.5t-14.5 -80.5t-4.5 -84.5q4 -83 17 -135t28.5 -83t30.5 -46t23 -22q2 1 6 5q20 18 34.5 47t24 64.5t15 75t6.5 78.5l-21 -2q-14 -2 -23.5 -5
t-10.5 -2v56q1 -1 3 -1q2 -1 3.5 -1t3.5 -1l24 -5l20 -2q-2 27 -5.5 56t-9.5 57t-15 54t-21 47zM191 648q29 -30 48.5 -81.5t30.5 -114.5q18 70 50 123q5 8 12 20t14.5 23.5t14 20t9.5 9.5h-179zM209 6q-4 -4 -5 -6h165q-23 26 -50.5 72t-46.5 106q-9 -58 -25.5 -101.5
t-37.5 -70.5z" />
    <glyph glyph-name="Racute" unicode="&#x154;" horiz-adv-x="268" 
d="M176 698l-66 -10l-5 -19h233v-21h-239q30 -15 56.5 -41t46 -61t31 -77t11.5 -89v-21q0 -29 -5.5 -58.5t-15 -58t-23.5 -53.5t-31 -44q3 -11 10 -24t14 -29q2 -4 11.5 -19t20 -31.5t19 -29.5t10.5 -11l-2 -1h86v-21h-408v21h110q3 19 5.5 69t3.5 115.5t1 139t-1 139
t-3.5 115.5t-5.5 70h-110v21h133q10 14 20 25t23.5 20t31.5 18.5t45 20.5zM83 386v-126t3 -122q5 3 10.5 5.5t12.5 6.5q19 11 37.5 31t33.5 48t24 63t9 77q0 62 -14.5 103.5t-35 68t-41 39.5t-32.5 17q-3 -38 -3.5 -94.5t-3.5 -116.5zM174 61q-6 11 -16.5 26t-20.5 26
q-14 -13 -26 -19.5t-23 -11.5q2 -29 4 -51t2 -31h106q-2 2 -5 9t-6.5 16.5l-7 19t-7.5 16.5z" />
    <glyph glyph-name="racute" unicode="&#x155;" horiz-adv-x="268" 
d="M200 698l-66 -10l-5 -19h209v-21h-239q30 -15 56.5 -41t46 -61t31 -77t11.5 -89v-21q0 -29 -5.5 -58.5t-15 -58t-23.5 -53.5t-31 -44q3 -11 10 -24t14 -29q2 -4 11.5 -19t20 -31.5t19 -29.5t10.5 -11l-2 -1h86v-21h-408v21h110q3 19 5.5 69t3.5 115.5t1 139t-1 139
t-3.5 115.5t-5.5 70h-110v21h157q10 14 20 25t23.5 20t31.5 18.5t45 20.5zM83 386v-126t3 -122q5 3 10.5 5.5t12.5 6.5q19 11 37.5 31t33.5 48t24 63t9 77q0 62 -14.5 103.5t-35 68t-41 39.5t-32.5 17q-3 -38 -3.5 -94.5t-3.5 -116.5zM174 61q-6 11 -16.5 26t-20.5 26
q-14 -13 -26 -19.5t-23 -11.5q2 -29 4 -51t2 -31h106q-2 2 -5 9t-6.5 16.5l-7 19t-7.5 16.5z" />
    <glyph glyph-name="uni0156" unicode="&#x156;" horiz-adv-x="268" 
d="M-70 669h408v-21h-239q30 -15 56.5 -41t46 -61t31 -77t11.5 -89v-21q0 -29 -5.5 -58.5t-15 -58t-23.5 -53.5t-31 -44q3 -11 10 -24t14 -29q2 -4 11.5 -19t20 -31.5t19 -29.5t10.5 -11l-2 -1h86v-21h-154q-5 -16 -7.5 -28t-3 -23.5t0.5 -24t4 -28.5h-31q2 31 1 55t-10 49
h-208v21h110q3 19 5.5 69t3.5 115.5t1 139t-1 139t-3.5 115.5t-5.5 70h-110v21zM83 386v-126t3 -122q5 3 10.5 5.5t12.5 6.5q19 11 37.5 31t33.5 48t24 63t9 77q0 62 -14.5 103.5t-35 68t-41 39.5t-32.5 17q-3 -38 -3.5 -94.5t-3.5 -116.5zM174 61q-6 11 -16.5 26t-20.5 26
q-14 -13 -26 -19.5t-23 -11.5q2 -29 4 -51t2 -31h106q-2 2 -5 9t-6.5 16.5l-7 19t-7.5 16.5z" />
    <glyph glyph-name="uni0157" unicode="&#x157;" horiz-adv-x="268" 
d="M-70 669h408v-21h-239q30 -15 56.5 -41t46 -61t31 -77t11.5 -89v-21q0 -29 -5.5 -58.5t-15 -58t-23.5 -53.5t-31 -44q3 -11 10 -24t14 -29q2 -4 11.5 -19t20 -31.5t19 -29.5t10.5 -11l-2 -1h86v-21h-154q-5 -16 -7.5 -28t-3 -23.5t0.5 -24t4 -28.5h-31q2 31 1 55t-10 49
h-208v21h110q3 19 5.5 69t3.5 115.5t1 139t-1 139t-3.5 115.5t-5.5 70h-110v21zM83 386v-126t3 -122q5 3 10.5 5.5t12.5 6.5q19 11 37.5 31t33.5 48t24 63t9 77q0 62 -14.5 103.5t-35 68t-41 39.5t-32.5 17q-3 -38 -3.5 -94.5t-3.5 -116.5zM174 61q-6 11 -16.5 26t-20.5 26
q-14 -13 -26 -19.5t-23 -11.5q2 -29 4 -51t2 -31h106q-2 2 -5 9t-6.5 16.5l-7 19t-7.5 16.5z" />
    <glyph glyph-name="Rcaron" unicode="&#x158;" horiz-adv-x="268" 
d="M-70 669h158q-8 20 -23.5 30t-44.5 24l46 29q3 -14 9.5 -24t14 -17.5t14 -12.5t9.5 -7q3 3 10 7.5t14.5 12t14 17.5t9.5 24l46 -29q-29 -14 -45 -24t-24 -30h200v-21h-239q30 -15 56.5 -41t46 -61t31 -77t11.5 -89v-21q0 -29 -5.5 -58.5t-15 -58t-23.5 -53.5t-31 -44
q3 -11 10 -24t14 -29q2 -4 11.5 -19t20 -31.5t19 -29.5t10.5 -11l-2 -1h86v-21h-408v21h110q3 19 5.5 69t3.5 115.5t1 139t-1 139t-3.5 115.5t-5.5 70h-110v21zM83 386v-126t3 -122q5 3 10.5 5.5t12.5 6.5q19 11 37.5 31t33.5 48t24 63t9 77q0 62 -14.5 103.5t-35 68
t-41 39.5t-32.5 17q-3 -38 -3.5 -94.5t-3.5 -116.5zM174 61q-6 11 -16.5 26t-20.5 26q-14 -13 -26 -19.5t-23 -11.5q2 -29 4 -51t2 -31h106q-2 2 -5 9t-6.5 16.5l-7 19t-7.5 16.5z" />
    <glyph glyph-name="rcaron" unicode="&#x159;" horiz-adv-x="268" 
d="M-70 669h188q-8 20 -23.5 30t-44.5 24l46 29q3 -14 9.5 -24t14 -17.5t14 -12.5t9.5 -7q3 3 10 7.5t14.5 12t14 17.5t9.5 24l46 -29q-29 -14 -45 -24t-24 -30h170v-21h-239q30 -15 56.5 -41t46 -61t31 -77t11.5 -89v-21q0 -29 -5.5 -58.5t-15 -58t-23.5 -53.5t-31 -44
q3 -11 10 -24t14 -29q2 -4 11.5 -19t20 -31.5t19 -29.5t10.5 -11l-2 -1h86v-21h-408v21h110q3 19 5.5 69t3.5 115.5t1 139t-1 139t-3.5 115.5t-5.5 70h-110v21zM83 386v-126t3 -122q5 3 10.5 5.5t12.5 6.5q19 11 37.5 31t33.5 48t24 63t9 77q0 62 -14.5 103.5t-35 68
t-41 39.5t-32.5 17q-3 -38 -3.5 -94.5t-3.5 -116.5zM174 61q-6 11 -16.5 26t-20.5 26q-14 -13 -26 -19.5t-23 -11.5q2 -29 4 -51t2 -31h106q-2 2 -5 9t-6.5 16.5l-7 19t-7.5 16.5z" />
    <glyph glyph-name="Sacute" unicode="&#x15a;" horiz-adv-x="205" 
d="M169 698l-66 -10l-5 -19h177v-21h-134l18 -13q1 -1 -11 -13t-28 -37q-5 -7 -13 -20t-15.5 -30t-12.5 -36.5t-5 -38.5q0 -38 13 -70.5t28.5 -63t29 -62t15.5 -67.5q0 -34 -7 -64t-17 -55t-20.5 -45t-17.5 -33h177v-21h-345v21h115l-8 5q-3 -1 10 12.5t30 39t32.5 61
t16.5 79.5q0 35 -13.5 67t-30 63.5t-30 64.5t-13.5 70q0 26 7 52.5t17 51t20.5 46t18.5 36.5h-172v21h126q10 14 20 25t23.5 20t31.5 18.5t45 20.5z" />
    <glyph glyph-name="sacute" unicode="&#x15b;" horiz-adv-x="205" 
d="M203 698l-66 -10l-5 -19h143v-21h-134l18 -13q1 -1 -11 -13t-28 -37q-5 -7 -13 -20t-15.5 -30t-12.5 -36.5t-5 -38.5q0 -38 13 -70.5t28.5 -63t29 -62t15.5 -67.5q0 -34 -7 -64t-17 -55t-20.5 -45t-17.5 -33h177v-21h-345v21h115l-8 5q-3 -1 10 12.5t30 39t32.5 61
t16.5 79.5q0 35 -13.5 67t-30 63.5t-30 64.5t-13.5 70q0 26 7 52.5t17 51t20.5 46t18.5 36.5h-172v21h160q10 14 20 25t23.5 20t31.5 18.5t45 20.5z" />
    <glyph glyph-name="Scircumflex" unicode="&#x15c;" horiz-adv-x="205" 
d="M123 742q5 -28 22.5 -43.5t44.5 -29.5h85v-21h-134l18 -13q1 -1 -11 -13t-28 -37q-5 -7 -13 -20t-15.5 -30t-12.5 -36.5t-5 -38.5q0 -38 13 -70.5t28.5 -63t29 -62t15.5 -67.5q0 -34 -7 -64t-17 -55t-20.5 -45t-17.5 -33h177v-21h-345v21h115l-8 5q-3 -1 10 12.5t30 39
t32.5 61t16.5 79.5q0 35 -13.5 67t-30 63.5t-30 64.5t-13.5 70q0 26 7 52.5t17 51t20.5 46t18.5 36.5h-172v21h85q27 14 44.5 29.5t22.5 43.5h41zM102 703q-5 -4 -14.5 -10.5t-17.5 -23.5h65q-8 17 -18 23t-15 11z" />
    <glyph glyph-name="scircumflex" unicode="&#x15d;" horiz-adv-x="205" 
d="M123 742q5 -28 22.5 -43.5t44.5 -29.5h85v-21h-134l18 -13q1 -1 -11 -13t-28 -37q-5 -7 -13 -20t-15.5 -30t-12.5 -36.5t-5 -38.5q0 -38 13 -70.5t28.5 -63t29 -62t15.5 -67.5q0 -34 -7 -64t-17 -55t-20.5 -45t-17.5 -33h177v-21h-345v21h115l-8 5q-3 -1 10 12.5t30 39
t32.5 61t16.5 79.5q0 35 -13.5 67t-30 63.5t-30 64.5t-13.5 70q0 26 7 52.5t17 51t20.5 46t18.5 36.5h-172v21h85q27 14 44.5 29.5t22.5 43.5h41zM102 703q-5 -4 -14.5 -10.5t-17.5 -23.5h65q-8 17 -18 23t-15 11z" />
    <glyph glyph-name="Scedilla" unicode="&#x15e;" horiz-adv-x="205" 
d="M-70 669h345v-21h-134l18 -13q1 -1 -11 -13t-28 -37q-5 -7 -13 -20t-15.5 -30t-12.5 -36.5t-5 -38.5q0 -38 13 -70.5t28.5 -63t29 -62t15.5 -67.5q0 -34 -7 -64t-17 -55t-20.5 -45t-17.5 -33h177v-21h-175q-5 -16 -7.5 -27t-3 -21.5t2 -23t8.5 -31.5h-47q6 18 8.5 32
t1.5 26t-4 23t-7 22h-122v21h115l-8 5q-3 -1 10 12.5t30 39t32.5 61t16.5 79.5q0 35 -13.5 67t-30 63.5t-30 64.5t-13.5 70q0 26 7 52.5t17 51t20.5 46t18.5 36.5h-172v21z" />
    <glyph glyph-name="scedilla" unicode="&#x15f;" horiz-adv-x="205" 
d="M-70 669h345v-21h-134l18 -13q1 -1 -11 -13t-28 -37q-5 -7 -13 -20t-15.5 -30t-12.5 -36.5t-5 -38.5q0 -38 13 -70.5t28.5 -63t29 -62t15.5 -67.5q0 -34 -7 -64t-17 -55t-20.5 -45t-17.5 -33h177v-21h-176q-5 -16 -7.5 -27t-3 -21.5t2 -23t8.5 -31.5h-47q6 18 8.5 32
t1.5 26t-4 23t-7 22h-121v21h115l-8 5q-3 -1 10 12.5t30 39t32.5 61t16.5 79.5q0 35 -13.5 67t-30 63.5t-30 64.5t-13.5 70q0 26 7 52.5t17 51t20.5 46t18.5 36.5h-172v21z" />
    <glyph glyph-name="Scaron" unicode="&#x160;" horiz-adv-x="205" 
d="M-70 669h147q-8 20 -23.5 30t-44.5 24l46 29q3 -14 9.5 -24t14 -17.5t14 -12.5t9.5 -7q3 3 10 7.5t14.5 12t14 17.5t9.5 24l46 -29q-29 -14 -45 -24t-24 -30h148v-21h-134l18 -13q1 -1 -11 -13t-28 -37q-5 -7 -13 -20t-15.5 -30t-12.5 -36.5t-5 -38.5q0 -38 13 -70.5
t28.5 -63t29 -62t15.5 -67.5q0 -34 -7 -64t-17 -55t-20.5 -45t-17.5 -33h177v-21h-345v21h115l-8 5q-3 -1 10 12.5t30 39t32.5 61t16.5 79.5q0 35 -13.5 67t-30 63.5t-30 64.5t-13.5 70q0 26 7 52.5t17 51t20.5 46t18.5 36.5h-172v21z" />
    <glyph glyph-name="scaron" unicode="&#x161;" horiz-adv-x="205" 
d="M-70 669h147q-8 20 -23.5 30t-44.5 24l46 29q3 -14 9.5 -24t14 -17.5t14 -12.5t9.5 -7q3 3 10 7.5t14.5 12t14 17.5t9.5 24l46 -29q-29 -14 -45 -24t-24 -30h148v-21h-134l18 -13q1 -1 -11 -13t-28 -37q-5 -7 -13 -20t-15.5 -30t-12.5 -36.5t-5 -38.5q0 -38 13 -70.5
t28.5 -63t29 -62t15.5 -67.5q0 -34 -7 -64t-17 -55t-20.5 -45t-17.5 -33h177v-21h-345v21h115l-8 5q-3 -1 10 12.5t30 39t32.5 61t16.5 79.5q0 35 -13.5 67t-30 63.5t-30 64.5t-13.5 70q0 26 7 52.5t17 51t20.5 46t18.5 36.5h-172v21z" />
    <glyph glyph-name="uni0162" unicode="&#x162;" horiz-adv-x="322" 
d="M-70 669h462v-21h-90l-36 -48q-12 12 -30 20.5t-49 13.5q0 -15 -1.5 -40.5t-3.5 -58.5t-3.5 -72t-1.5 -81q0 -50 1.5 -110t4 -115t4 -98t1.5 -59h204v-21h-208q-5 -16 -7.5 -28t-3 -23.5t0.5 -24t4 -28.5h-31q2 31 1 55t-10 49h-208v21h204q3 11 5 36.5t3.5 61t2 77
t0.5 84.5q0 57 -1.5 115.5t-3.5 110t-3.5 91t-1.5 59.5q-19 -3 -42.5 -9.5t-33.5 -25.5l-41 48h-88v21z" />
    <glyph glyph-name="uni0163" unicode="&#x163;" horiz-adv-x="322" 
d="M-70 669h462v-21h-90l-36 -48q-12 12 -30 20.5t-49 13.5q0 -15 -1.5 -40.5t-3.5 -58.5t-3.5 -72t-1.5 -81q0 -50 1.5 -110t4 -115t4 -98t1.5 -59h204v-21h-208q-5 -16 -7.5 -28t-3 -23.5t0.5 -24t4 -28.5h-31q2 31 1 55t-10 49h-208v21h204q3 11 5 36.5t3.5 61t2 77
t0.5 84.5q0 57 -1.5 115.5t-3.5 110t-3.5 91t-1.5 59.5q-19 -3 -42.5 -9.5t-33.5 -25.5l-41 48h-88v21z" />
    <glyph glyph-name="Tcaron" unicode="&#x164;" horiz-adv-x="322" 
d="M-70 669h205q-8 20 -23.5 30t-44.5 24l46 29q3 -14 9.5 -24t14 -17.5t14 -12.5t9.5 -7q3 3 10 7.5t14.5 12t14 17.5t9.5 24l46 -29q-29 -14 -45 -24t-24 -30h207v-21h-90l-36 -48q-12 12 -30 20.5t-49 13.5q0 -15 -1.5 -40.5t-3.5 -58.5t-3.5 -72t-1.5 -81
q0 -50 1.5 -110t4 -115t4 -98t1.5 -59h204v-21h-462v21h204q3 11 5 36.5t3.5 61t2 77t0.5 84.5q0 57 -1.5 115.5t-3.5 110t-3.5 91t-1.5 59.5q-19 -3 -42.5 -9.5t-33.5 -25.5l-41 48h-88v21z" />
    <glyph glyph-name="tcaron" unicode="&#x165;" horiz-adv-x="389" 
d="M339 515q5 39 1 74t-15 59h-23l-36 -48q-12 12 -30 20.5t-49 13.5q0 -15 -1.5 -40.5t-3.5 -58.5t-3.5 -72t-1.5 -81q0 -50 1.5 -110t4 -115t4 -98t1.5 -59h271v-21h-529v21h204q3 11 5 36.5t3.5 61t2 77t0.5 84.5q0 57 -1.5 115.5t-3.5 110t-3.5 91t-1.5 59.5
q-19 -3 -42.5 -9.5t-33.5 -25.5l-41 48h-88v21h529v-21h-68q-5 -16 -9.5 -29.5t-7 -28.5t-2.5 -33t3 -42h-36z" />
    <glyph glyph-name="Tbar" unicode="&#x166;" horiz-adv-x="322" 
d="M69 514q34 -16 71 -19q-2 48 -3.5 84.5t-1.5 55.5q-19 -3 -42.5 -9.5t-33.5 -25.5l-41 48h-88v21h462v-21h-90l-36 -48q-12 12 -30 20.5t-49 13.5q0 -20 -2.5 -56t-4.5 -83q40 3 73 19v-59q-14 8 -33 11.5t-41 4.5q-1 -21 -1.5 -43.5t-0.5 -45.5q0 -50 1.5 -110t4 -115
t4 -98t1.5 -59h204v-21h-462v21h204q3 11 5 36.5t3.5 61t2 77t0.5 84.5q0 53 -1.5 107t-3.5 104q-22 -2 -40.5 -6t-30.5 -9v59z" />
    <glyph glyph-name="tbar" unicode="&#x167;" horiz-adv-x="322" 
d="M69 514q34 -16 71 -19q-2 48 -3.5 84.5t-1.5 55.5q-19 -3 -42.5 -9.5t-33.5 -25.5l-41 48h-88v21h462v-21h-90l-36 -48q-12 12 -30 20.5t-49 13.5q0 -20 -2.5 -56t-4.5 -83q40 3 73 19v-59q-14 8 -33 11.5t-41 4.5q-1 -21 -1.5 -43.5t-0.5 -45.5q0 -50 1.5 -110t4 -115
t4 -98t1.5 -59h204v-21h-462v21h204q3 11 5 36.5t3.5 61t2 77t0.5 84.5q0 53 -1.5 107t-3.5 104q-22 -2 -40.5 -6t-30.5 -9v59z" />
    <glyph glyph-name="Utilde" unicode="&#x168;" horiz-adv-x="308" 
d="M-70 669h136l-9 16q12 19 27.5 32t32.5 14.5t37 -9.5t41 -39l37 53l19 -33q-15 -23 -30 -34h157v-21h-105q0 -18 -0.5 -28.5t-1.5 -23t-2 -31t-2 -52.5t-1.5 -88t-0.5 -137q0 -77 0.5 -123.5t1.5 -73t2 -38t2 -17.5t1.5 -12.5t0.5 -23.5h105v-21h-448v21h257
q-17 8 -34.5 23t-33.5 34.5t-29.5 43.5t-21.5 50q-7 21 -11 61t-6.5 88.5t-4 101t-2.5 98t-2 80t-3 47.5q0 7 -0.5 12t-0.5 9h-108v21zM92 648q-5 -63 -7.5 -124t-2.5 -134q0 -89 5.5 -142t13 -82t15 -40t10.5 -16q3 -4 4 -5.5t3.5 -4.5t8.5 -9.5t18 -18.5q17 -14 33 -22
t29 -12q1 10 1.5 26.5t1.5 52.5t1.5 98t0.5 163v64.5v54.5t-0.5 39t-0.5 18q-2 35 -3.5 60t-3.5 34h-127zM88 669h61q-8 6 -17.5 14.5t-18.5 21.5z" />
    <glyph glyph-name="utilde" unicode="&#x169;" horiz-adv-x="308" 
d="M-70 669h136l-9 16q12 19 27.5 32t32.5 14.5t37 -9.5t41 -39l37 53l19 -33q-15 -23 -30 -34h157v-21h-105q0 -18 -0.5 -28.5t-1.5 -23t-2 -31t-2 -52.5t-1.5 -88t-0.5 -137q0 -77 0.5 -123.5t1.5 -73t2 -38t2 -17.5t1.5 -12.5t0.5 -23.5h105v-21h-448v21h257
q-17 8 -34.5 23t-33.5 34.5t-29.5 43.5t-21.5 50q-7 21 -11 61t-6.5 88.5t-4 101t-2.5 98t-2 80t-3 47.5q0 7 -0.5 12t-0.5 9h-108v21zM92 648q-5 -63 -7.5 -124t-2.5 -134q0 -89 5.5 -142t13 -82t15 -40t10.5 -16q3 -4 4 -5.5t3.5 -4.5t8.5 -9.5t18 -18.5q17 -14 33 -22
t29 -12q1 10 1.5 26.5t1.5 52.5t1.5 98t0.5 163v64.5v54.5t-0.5 39t-0.5 18q-2 35 -3.5 60t-3.5 34h-127zM88 669h61q-8 6 -17.5 14.5t-18.5 21.5z" />
    <glyph glyph-name="Umacron" unicode="&#x16a;" horiz-adv-x="308" 
d="M-70 669h132v40q40 -19 90.5 -19.5t93.5 19.5v-40h132v-21h-105q0 -18 -0.5 -28.5t-1.5 -23t-2 -31t-2 -52.5t-1.5 -88t-0.5 -137q0 -77 0.5 -123.5t1.5 -73t2 -38t2 -17.5t1.5 -12.5t0.5 -23.5h105v-21h-448v21h257q-17 8 -34.5 23t-33.5 34.5t-29.5 43.5t-21.5 50
q-7 21 -11 61t-6.5 88.5t-4 101t-2.5 98t-2 80t-3 47.5q0 7 -0.5 12t-0.5 9h-108v21zM92 648q-5 -63 -7.5 -124t-2.5 -134q0 -89 5.5 -142t13 -82t15 -40t10.5 -16q3 -4 4 -5.5t3.5 -4.5t8.5 -9.5t18 -18.5q17 -14 33 -22t29 -12q1 10 1.5 26.5t1.5 52.5t1.5 98t0.5 163
v64.5v54.5t-0.5 39t-0.5 18q-2 35 -3.5 60t-3.5 34h-127z" />
    <glyph glyph-name="umacron" unicode="&#x16b;" horiz-adv-x="308" 
d="M-70 669h132v40q40 -19 90.5 -19.5t93.5 19.5v-40h132v-21h-105q0 -18 -0.5 -28.5t-1.5 -23t-2 -31t-2 -52.5t-1.5 -88t-0.5 -137q0 -77 0.5 -123.5t1.5 -73t2 -38t2 -17.5t1.5 -12.5t0.5 -23.5h105v-21h-448v21h257q-17 8 -34.5 23t-33.5 34.5t-29.5 43.5t-21.5 50
q-7 21 -11 61t-6.5 88.5t-4 101t-2.5 98t-2 80t-3 47.5q0 7 -0.5 12t-0.5 9h-108v21zM92 648q-5 -63 -7.5 -124t-2.5 -134q0 -89 5.5 -142t13 -82t15 -40t10.5 -16q3 -4 4 -5.5t3.5 -4.5t8.5 -9.5t18 -18.5q17 -14 33 -22t29 -12q1 10 1.5 26.5t1.5 52.5t1.5 98t0.5 163
v64.5v54.5t-0.5 39t-0.5 18q-2 35 -3.5 60t-3.5 34h-127z" />
    <glyph glyph-name="Ubreve" unicode="&#x16c;" horiz-adv-x="308" 
d="M-70 669h197q-6 11 -15 19t-19.5 16t-22 17t-20.5 21h66q6 -27 18.5 -36.5t18.5 -14.5q3 3 8.5 6t11 8.5t10.5 14t8 22.5h66q-21 -21 -44 -36t-34 -37h199v-21h-105q0 -18 -0.5 -28.5t-1.5 -23t-2 -31t-2 -52.5t-1.5 -88t-0.5 -137q0 -77 0.5 -123.5t1.5 -73t2 -38
t2 -17.5t1.5 -12.5t0.5 -23.5h105v-21h-448v21h257q-17 8 -34.5 23t-33.5 34.5t-29.5 43.5t-21.5 50q-7 21 -11 61t-6.5 88.5t-4 101t-2.5 98t-2 80t-3 47.5q0 7 -0.5 12t-0.5 9h-108v21zM92 648q-5 -63 -7.5 -124t-2.5 -134q0 -89 5.5 -142t13 -82t15 -40t10.5 -16
q3 -4 4 -5.5t3.5 -4.5t8.5 -9.5t18 -18.5q17 -14 33 -22t29 -12q1 10 1.5 26.5t1.5 52.5t1.5 98t0.5 163v64.5v54.5t-0.5 39t-0.5 18q-2 35 -3.5 60t-3.5 34h-127z" />
    <glyph glyph-name="ubreve" unicode="&#x16d;" horiz-adv-x="308" 
d="M-70 669h197q-6 11 -15 19t-19.5 16t-22 17t-20.5 21h66q6 -27 18.5 -36.5t18.5 -14.5q3 3 8.5 6t11 8.5t10.5 14t8 22.5h66q-21 -21 -44 -36t-34 -37h199v-21h-105q0 -18 -0.5 -28.5t-1.5 -23t-2 -31t-2 -52.5t-1.5 -88t-0.5 -137q0 -77 0.5 -123.5t1.5 -73t2 -38
t2 -17.5t1.5 -12.5t0.5 -23.5h105v-21h-448v21h257q-17 8 -34.5 23t-33.5 34.5t-29.5 43.5t-21.5 50q-7 21 -11 61t-6.5 88.5t-4 101t-2.5 98t-2 80t-3 47.5q0 7 -0.5 12t-0.5 9h-108v21zM92 648q-5 -63 -7.5 -124t-2.5 -134q0 -89 5.5 -142t13 -82t15 -40t10.5 -16
q3 -4 4 -5.5t3.5 -4.5t8.5 -9.5t18 -18.5q17 -14 33 -22t29 -12q1 10 1.5 26.5t1.5 52.5t1.5 98t0.5 163v64.5v54.5t-0.5 39t-0.5 18q-2 35 -3.5 60t-3.5 34h-127z" />
    <glyph glyph-name="Uring" unicode="&#x16e;" horiz-adv-x="308" 
d="M95 709q0 23 16.5 39.5t39.5 16.5t39.5 -16.5t16.5 -39.5q0 -24 -18 -40h189v-21h-105q0 -18 -0.5 -28.5t-1.5 -23t-2 -31t-2 -52.5t-1.5 -88t-0.5 -137q0 -77 0.5 -123.5t1.5 -73t2 -38t2 -17.5t1.5 -12.5t0.5 -23.5h105v-21h-448v21h257q-17 8 -34.5 23t-33.5 34.5
t-29.5 43.5t-21.5 50q-7 21 -11 61t-6.5 88.5t-4 101t-2.5 98t-2 80t-3 47.5q0 7 -0.5 12t-0.5 9h-108v21h182q-17 17 -17 40zM92 648q-5 -63 -7.5 -124t-2.5 -134q0 -89 5.5 -142t13 -82t15 -40t10.5 -16q3 -4 4 -5.5t3.5 -4.5t8.5 -9.5t18 -18.5q17 -14 33 -22t29 -12
q1 10 1.5 26.5t1.5 52.5t1.5 98t0.5 163v64.5v54.5t-0.5 39t-0.5 18q-2 35 -3.5 60t-3.5 34h-127zM123 709q0 -11 8.5 -19.5t19.5 -8.5t19.5 8.5t8.5 19.5t-8.5 19.5t-19.5 8.5t-19.5 -8.5t-8.5 -19.5z" />
    <glyph glyph-name="uring" unicode="&#x16f;" horiz-adv-x="308" 
d="M98 715q0 23 16.5 39.5t39.5 16.5t39.5 -16.5t16.5 -39.5q0 -14 -7 -26t-18 -20h193v-21h-105q0 -18 -0.5 -28.5t-1.5 -23t-2 -31t-2 -52.5t-1.5 -88t-0.5 -137q0 -77 0.5 -123.5t1.5 -73t2 -38t2 -17.5t1.5 -12.5t0.5 -23.5h105v-21h-448v21h257q-17 8 -34.5 23
t-33.5 34.5t-29.5 43.5t-21.5 50q-7 21 -11 61t-6.5 88.5t-4 101t-2.5 98t-2 80t-3 47.5q0 7 -0.5 12t-0.5 9h-108v21h193q-11 8 -18 20t-7 26zM92 648q-5 -63 -7.5 -124t-2.5 -134q0 -89 5.5 -142t13 -82t15 -40t10.5 -16q3 -4 4 -5.5t3.5 -4.5t8.5 -9.5t18 -18.5
q17 -14 33 -22t29 -12q1 10 1.5 26.5t1.5 52.5t1.5 98t0.5 163v64.5v54.5t-0.5 39t-0.5 18q-2 35 -3.5 60t-3.5 34h-127zM126 715q0 -11 8.5 -19.5t19.5 -8.5t19.5 8.5t8.5 19.5t-8.5 19.5t-19.5 8.5t-19.5 -8.5t-8.5 -19.5z" />
    <glyph glyph-name="Uhungarumlaut" unicode="&#x170;" horiz-adv-x="308" 
d="M273 698l-66 -10l-5 -19h176v-21h-105q0 -18 -0.5 -28.5t-1.5 -23t-2 -31t-2 -52.5t-1.5 -88t-0.5 -137q0 -77 0.5 -123.5t1.5 -73t2 -38t2 -17.5t1.5 -12.5t0.5 -23.5h105v-21h-448v21h257q-17 8 -34.5 23t-33.5 34.5t-29.5 43.5t-21.5 50q-7 21 -11 61t-6.5 88.5
t-4 101t-2.5 98t-2 80t-3 47.5q0 7 -0.5 12t-0.5 9h-108v21h156q10 14 20 25t23.5 20t31.5 18.5t45 20.5l-5 -41q14 10 32.5 19.5t46.5 21.5zM92 648q-5 -63 -7.5 -124t-2.5 -134q0 -89 5.5 -142t13 -82t15 -40t10.5 -16q3 -4 4 -5.5t3.5 -4.5t8.5 -9.5t18 -18.5
q17 -14 33 -22t29 -12q1 10 1.5 26.5t1.5 52.5t1.5 98t0.5 163v64.5v54.5t-0.5 39t-0.5 18q-2 35 -3.5 60t-3.5 34h-127zM128 669h32q5 8 10 14l10 12l-47 -7z" />
    <glyph glyph-name="uhungarumlaut" unicode="&#x171;" horiz-adv-x="308" 
d="M248 698l-66 -10l-5 -19h201v-21h-105q0 -18 -0.5 -28.5t-1.5 -23t-2 -31t-2 -52.5t-1.5 -88t-0.5 -137q0 -77 0.5 -123.5t1.5 -73t2 -38t2 -17.5t1.5 -12.5t0.5 -23.5h105v-21h-448v21h257q-17 8 -34.5 23t-33.5 34.5t-29.5 43.5t-21.5 50q-7 21 -11 61t-6.5 88.5
t-4 101t-2.5 98t-2 80t-3 47.5q0 7 -0.5 12t-0.5 9h-108v21h131q10 14 20 25t23.5 20t31.5 18.5t45 20.5l-5 -41q14 10 32.5 19.5t46.5 21.5zM92 648q-5 -63 -7.5 -124t-2.5 -134q0 -89 5.5 -142t13 -82t15 -40t10.5 -16q3 -4 4 -5.5t3.5 -4.5t8.5 -9.5t18 -18.5
q17 -14 33 -22t29 -12q1 10 1.5 26.5t1.5 52.5t1.5 98t0.5 163v64.5v54.5t-0.5 39t-0.5 18q-2 35 -3.5 60t-3.5 34h-127zM103 669h32q5 8 10 14l10 12l-47 -7z" />
    <glyph glyph-name="Uogonek" unicode="&#x172;" horiz-adv-x="308" 
d="M-70 669h448v-21h-105q0 -18 -0.5 -28.5t-1.5 -23t-2 -31t-2 -52.5t-1.5 -88t-0.5 -137q0 -77 0.5 -123.5t1.5 -73t2 -38t2 -17.5t1.5 -12.5t0.5 -23.5h105v-21h-115q-11 -28 -12 -61t17 -62l-16 -15q-20 20 -27 57.5t-12 80.5h-283v21h257q-17 8 -34.5 23t-33.5 34.5
t-29.5 43.5t-21.5 50q-7 21 -11 61t-6.5 88.5t-4 101t-2.5 98t-2 80t-3 47.5q0 7 -0.5 12t-0.5 9h-108v21zM92 648q-5 -63 -7.5 -124t-2.5 -134q0 -89 5.5 -142t13 -82t15 -40t10.5 -16q3 -4 4 -5.5t3.5 -4.5t8.5 -9.5t18 -18.5q17 -14 33 -22t29 -12q1 10 1.5 26.5
t1.5 52.5t1.5 98t0.5 163v64.5v54.5t-0.5 39t-0.5 18q-2 35 -3.5 60t-3.5 34h-127z" />
    <glyph glyph-name="uogonek" unicode="&#x173;" horiz-adv-x="308" 
d="M-70 669h448v-21h-105q0 -18 -0.5 -28.5t-1.5 -23t-2 -31t-2 -52.5t-1.5 -88t-0.5 -137q0 -77 0.5 -123.5t1.5 -73t2 -38t2 -17.5t1.5 -12.5t0.5 -23.5h105v-21h-115q-11 -28 -12 -61t17 -62l-16 -15q-20 20 -27 57.5t-12 80.5h-283v21h257q-17 8 -34.5 23t-33.5 34.5
t-29.5 43.5t-21.5 50q-7 21 -11 61t-6.5 88.5t-4 101t-2.5 98t-2 80t-3 47.5q0 7 -0.5 12t-0.5 9h-108v21zM92 648q-5 -63 -7.5 -124t-2.5 -134q0 -89 5.5 -142t13 -82t15 -40t10.5 -16q3 -4 4 -5.5t3.5 -4.5t8.5 -9.5t18 -18.5q17 -14 33 -22t29 -12q1 10 1.5 26.5
t1.5 52.5t1.5 98t0.5 163v64.5v54.5t-0.5 39t-0.5 18q-2 35 -3.5 60t-3.5 34h-127z" />
    <glyph glyph-name="Wcircumflex" unicode="&#x174;" horiz-adv-x="428" 
d="M234 742q5 -28 22.5 -43.5t44.5 -29.5h197v-21h-102q-3 -14 -5.5 -48t-5.5 -80.5t-6.5 -101t-8.5 -108.5l-5 -33q-2 -26 -8.5 -50.5t-11.5 -44.5q-10 -36 -24.5 -65t-29 -51.5t-27 -39t-17.5 -26.5h251v-21h-568v21h247q-16 15 -40.5 43t-44.5 74q-7 20 -12 30.5t-9 27
t-8.5 46t-9.5 86.5q-7 51 -10.5 104.5t-5 101t-2.5 83.5t-4 52h-101v21h196q27 14 44.5 29.5t22.5 43.5h41zM79 549q0 -12 -0.5 -25.5t-0.5 -27.5q0 -110 7 -184.5t21.5 -124t35.5 -80t49 -53.5q0 24 1 55t2.5 66t2.5 73t1 76q0 49 -1 102t-2.5 98.5t-3.5 79t-5 44.5h-101
q0 -13 -2.5 -38.5t-3.5 -60.5zM229 386v-77t0.5 -89t2 -86.5t4.5 -70.5q38 42 60.5 93.5t37.5 125.5l5 32q5 46 7 93.5t2 90.5q0 51 -3 92t-3 58h-102q0 -11 -1 -36.5t-2.5 -61t-3.5 -78t-4 -86.5zM213 703q-5 -4 -14.5 -10.5t-17.5 -23.5h65q-8 17 -18 23t-15 11z" />
    <glyph glyph-name="wcircumflex" unicode="&#x175;" horiz-adv-x="428" 
d="M234 742q5 -28 22.5 -43.5t44.5 -29.5h197v-21h-102q-3 -14 -5.5 -48t-5.5 -80.5t-6.5 -101t-8.5 -108.5l-5 -33q-2 -26 -8.5 -50.5t-11.5 -44.5q-10 -36 -24.5 -65t-29 -51.5t-27 -39t-17.5 -26.5h251v-21h-568v21h247q-16 15 -40.5 43t-44.5 74q-7 20 -12 30.5t-9 27
t-8.5 46t-9.5 86.5q-7 51 -10.5 104.5t-5 101t-2.5 83.5t-4 52h-101v21h196q27 14 44.5 29.5t22.5 43.5h41zM79 549q0 -12 -0.5 -25.5t-0.5 -27.5q0 -110 7 -184.5t21.5 -124t35.5 -80t49 -53.5q0 24 1 55t2.5 66t2.5 73t1 76q0 49 -1 102t-2.5 98.5t-3.5 79t-5 44.5h-101
q0 -13 -2.5 -38.5t-3.5 -60.5zM229 386v-77t0.5 -89t2 -86.5t4.5 -70.5q38 42 60.5 93.5t37.5 125.5l5 32q5 46 7 93.5t2 90.5q0 51 -3 92t-3 58h-102q0 -11 -1 -36.5t-2.5 -61t-3.5 -78t-4 -86.5zM213 703q-5 -4 -14.5 -10.5t-17.5 -23.5h65q-8 17 -18 23t-15 11z" />
    <glyph glyph-name="Ycircumflex" unicode="&#x176;" horiz-adv-x="286" 
d="M163 742q5 -28 22.5 -43.5t44.5 -29.5h126v-21h-101q0 -17 -4.5 -54t-7.5 -82t-9.5 -84.5t-16.5 -77t-23.5 -73.5t-31.5 -74q1 -34 2.5 -65.5t3 -58.5t3 -47t1.5 -32h184v-21h-426v21h188q2 10 3.5 30.5t2.5 48t2 61t2 69.5q-24 45 -42 83t-29 85q-9 46 -13.5 89.5
t-6.5 79.5t-3.5 62.5t-3.5 39.5h-100v21h125q27 14 44.5 29.5t22.5 43.5h41zM79 552q0 -50 3 -91t10 -77t19 -68t30 -62q29 39 48.5 103.5t19.5 156.5q0 48 -3.5 84.5t-3.5 49.5h-118q0 -13 -2 -38t-3 -58zM142 703q-5 -4 -14.5 -10.5t-17.5 -23.5h65q-8 17 -18 23t-15 11z
" />
    <glyph glyph-name="ycircumflex" unicode="&#x177;" horiz-adv-x="286" 
d="M163 742q5 -28 22.5 -43.5t44.5 -29.5h126v-21h-101q0 -17 -4.5 -54t-7.5 -82t-9.5 -84.5t-16.5 -77t-23.5 -73.5t-31.5 -74q1 -34 2.5 -65.5t3 -58.5t3 -47t1.5 -32h184v-21h-426v21h188q2 10 3.5 30.5t2.5 48t2 61t2 69.5q-24 45 -42 83t-29 85q-9 46 -13.5 89.5
t-6.5 79.5t-3.5 62.5t-3.5 39.5h-100v21h125q27 14 44.5 29.5t22.5 43.5h41zM79 552q0 -50 3 -91t10 -77t19 -68t30 -62q29 39 48.5 103.5t19.5 156.5q0 48 -3.5 84.5t-3.5 49.5h-118q0 -13 -2 -38t-3 -58zM142 703q-5 -4 -14.5 -10.5t-17.5 -23.5h65q-8 17 -18 23t-15 11z
" />
    <glyph glyph-name="Ydieresis" unicode="&#x178;" horiz-adv-x="286" 
d="M221 763q-6 -19 -10 -29.5t-4.5 -19t2 -18.5t8.5 -27h139v-21h-101q0 -17 -4.5 -54t-7.5 -82t-9.5 -84.5t-16.5 -77t-23.5 -73.5t-31.5 -74q1 -34 2.5 -65.5t3 -58.5t3 -47t1.5 -32h184v-21h-426v21h188q2 10 3.5 30.5t2.5 48t2 61t2 69.5q-24 45 -42 83t-29 85
q-9 46 -13.5 89.5t-6.5 79.5t-3.5 62.5t-3.5 39.5h-100v21h140q14 28 10 47.5t-15 46.5h56q-6 -19 -10 -29.5t-4.5 -19t2 -18.5t8.5 -27h53q14 28 10 47.5t-15 46.5h56zM79 552q0 -50 3 -91t10 -77t19 -68t30 -62q29 39 48.5 103.5t19.5 156.5q0 48 -3.5 84.5t-3.5 49.5
h-118q0 -13 -2 -38t-3 -58z" />
    <glyph glyph-name="Zacute" unicode="&#x179;" horiz-adv-x="302" 
d="M207 698l-66 -10l-5 -19h236v-21h-112v-10l19 -21q0 -1 -6 -4.5t-15 -12.5q-47 -45 -79 -101.5t-52 -119.5t-29.5 -130.5t-10.5 -134.5q-2 -23 -1.5 -47t0.5 -39q17 -4 40.5 -5t47.5 0.5t46.5 5t39.5 9.5v-38h112v-21h-442v21h108l-3 10q2 27 7 65t12 83t15.5 94t17.5 96
q5 16 6 21.5t3 9.5q25 83 56.5 145.5t56.5 94.5q-24 3 -60 3q-10 0 -28 -1.5l-36 -3t-32 -4t-15 -3.5v38h-108v21h164q10 14 20 25t23.5 20t31.5 18.5t45 20.5z" />
    <glyph glyph-name="zacute" unicode="&#x17a;" horiz-adv-x="302" 
d="M207 698l-66 -10l-5 -19h236v-21h-112v-10l19 -21q0 -1 -6 -4.5t-15 -12.5q-47 -45 -79 -101.5t-52 -119.5t-29.5 -130.5t-10.5 -134.5q-2 -23 -1.5 -47t0.5 -39q17 -4 40.5 -5t47.5 0.5t46.5 5t39.5 9.5v-38h112v-21h-442v21h108l-3 10q2 27 7 65t12 83t15.5 94t17.5 96
q5 16 6 21.5t3 9.5q25 83 56.5 145.5t56.5 94.5q-24 3 -60 3q-10 0 -28 -1.5l-36 -3t-32 -4t-15 -3.5v38h-108v21h164q10 14 20 25t23.5 20t31.5 18.5t45 20.5z" />
    <glyph glyph-name="Zdotaccent" unicode="&#x17b;" horiz-adv-x="302" 
d="M179 763q-6 -19 -10 -29.5t-4.5 -19t2 -18.5t8.5 -27h197v-21h-112v-10l19 -21q0 -1 -6 -4.5t-15 -12.5q-47 -45 -79 -101.5t-52 -119.5t-29.5 -130.5t-10.5 -134.5q-2 -23 -1.5 -47t0.5 -39q17 -4 40.5 -5t47.5 0.5t46.5 5t39.5 9.5v-38h112v-21h-442v21h108l-3 10
q2 27 7 65t12 83t15.5 94t17.5 96q5 16 6 21.5t3 9.5q25 83 56.5 145.5t56.5 94.5q-24 3 -60 3q-10 0 -28 -1.5l-36 -3t-32 -4t-15 -3.5v38h-108v21h198q14 28 10 47.5t-15 46.5h56z" />
    <glyph glyph-name="zdotaccent" unicode="&#x17c;" horiz-adv-x="302" 
d="M179 763q-6 -19 -10 -29.5t-4.5 -19t2 -18.5t8.5 -27h197v-21h-112v-10l19 -21q0 -1 -6 -4.5t-15 -12.5q-47 -45 -79 -101.5t-52 -119.5t-29.5 -130.5t-10.5 -134.5q-2 -23 -1.5 -47t0.5 -39q17 -4 40.5 -5t47.5 0.5t46.5 5t39.5 9.5v-38h112v-21h-442v21h108l-3 10
q2 27 7 65t12 83t15.5 94t17.5 96q5 16 6 21.5t3 9.5q25 83 56.5 145.5t56.5 94.5q-24 3 -60 3q-10 0 -28 -1.5l-36 -3t-32 -4t-15 -3.5v38h-108v21h198q14 28 10 47.5t-15 46.5h56z" />
    <glyph glyph-name="Zcaron" unicode="&#x17d;" horiz-adv-x="302" 
d="M-70 669h195q-8 20 -23.5 30t-44.5 24l46 29q3 -14 9.5 -24t14 -17.5t14 -12.5t9.5 -7q3 3 10 7.5t14.5 12t14 17.5t9.5 24l46 -29q-29 -14 -45 -24t-24 -30h197v-21h-112v-10l19 -21q0 -1 -6 -4.5t-15 -12.5q-47 -45 -79 -101.5t-52 -119.5t-29.5 -130.5t-10.5 -134.5
q-2 -23 -1.5 -47t0.5 -39q17 -4 40.5 -5t47.5 0.5t46.5 5t39.5 9.5v-38h112v-21h-442v21h108l-3 10q2 27 7 65t12 83t15.5 94t17.5 96q5 16 6 21.5t3 9.5q25 83 56.5 145.5t56.5 94.5q-24 3 -60 3q-10 0 -28 -1.5l-36 -3t-32 -4t-15 -3.5v38h-108v21z" />
    <glyph glyph-name="zcaron" unicode="&#x17e;" horiz-adv-x="302" 
d="M-70 669h195q-8 20 -23.5 30t-44.5 24l46 29q3 -14 9.5 -24t14 -17.5t14 -12.5t9.5 -7q3 3 10 7.5t14.5 12t14 17.5t9.5 24l46 -29q-29 -14 -45 -24t-24 -30h197v-21h-112v-10l19 -21q0 -1 -6 -4.5t-15 -12.5q-47 -45 -79 -101.5t-52 -119.5t-29.5 -130.5t-10.5 -134.5
q-2 -23 -1.5 -47t0.5 -39q17 -4 40.5 -5t47.5 0.5t46.5 5t39.5 9.5v-38h112v-21h-442v21h108l-3 10q2 27 7 65t12 83t15.5 94t17.5 96q5 16 6 21.5t3 9.5q25 83 56.5 145.5t56.5 94.5q-24 3 -60 3q-10 0 -28 -1.5l-36 -3t-32 -4t-15 -3.5v38h-108v21z" />
    <glyph glyph-name="florin" unicode="&#x192;" horiz-adv-x="287" 
d="M-70 669h427v-21h-127l18 -12q-12 -15 -30 -40t-34.5 -59.5t-28.5 -78t-12 -95.5v-23h21q32 0 59 5.5t29 6.5v-56q-14 5 -37.5 6.5t-50.5 5.5h-21v-41q2 -44 4 -86t3.5 -78t2.5 -63t1 -40h203v-21h-427v21h170q1 3 1 8t1 10l5 78l3 109v31t1 31v40h-6q-26 -2 -47 -6
t-21 -5v56l34 -8l40 -3v22q0 49 8 91.5t20 77.5t25 62.5t23 46.5l4 7h-261v21z" />
    <glyph glyph-name="circumflex" unicode="&#x2c6;" horiz-adv-x="219" 
d="M130 742q6 -32 27.5 -48t55.5 -33l-66 -9q-3 14 -8 22.5t-10.5 14t-11 8.5t-8.5 6q-6 -5 -18.5 -14.5t-18.5 -36.5l-66 9q34 17 55.5 33t27.5 48h41z" />
    <glyph glyph-name="caron" unicode="&#x2c7;" horiz-adv-x="219" 
d="M89 652q-3 16 -8.5 26t-14 17t-21 13.5t-29.5 14.5l46 29q3 -14 9.5 -24t14 -17.5t14 -12.5t9.5 -7q3 3 10 7.5t14.5 12t14 17.5t9.5 24l46 -29q-17 -8 -29.5 -14.5t-21 -13.5t-14 -17t-8.5 -26h-41z" />
    <glyph glyph-name="breve" unicode="&#x2d8;" horiz-adv-x="219" 
d="M89 652q-3 16 -12 26.5t-21 20t-25.5 19.5t-24.5 24h66q6 -27 18.5 -36.5t18.5 -14.5q3 3 8.5 6t11 8.5t10.5 14t8 22.5h66q-12 -12 -25.5 -21.5t-25.5 -19.5t-20.5 -21.5t-11.5 -27.5h-41z" />
    <glyph glyph-name="dotaccent" unicode="&#x2d9;" horiz-adv-x="156" 
d="M106 763q-7 -20 -10.5 -30.5t-3.5 -20t3 -21t11 -32.5h-56q19 32 16 53.5t-16 50.5h56z" />
    <glyph glyph-name="ring" unicode="&#x2da;" horiz-adv-x="212" 
d="M50 715q0 23 16.5 39.5t39.5 16.5t39.5 -16.5t16.5 -39.5t-16.5 -39.5t-39.5 -16.5t-39.5 16.5t-16.5 39.5zM78 715q0 -11 8.5 -19.5t19.5 -8.5t19.5 8.5t8.5 19.5t-8.5 19.5t-19.5 8.5t-19.5 -8.5t-8.5 -19.5z" />
    <glyph glyph-name="ogonek" unicode="&#x2db;" horiz-adv-x="156" 
d="M106 -10q-6 -15 -10.5 -31.5t-5.5 -34t2.5 -35t13.5 -33.5l-16 -15q-21 21 -27.5 62t-12.5 87h56z" />
    <glyph glyph-name="tilde" unicode="&#x2dc;" horiz-adv-x="244" 
d="M47 652l-19 33q12 19 27.5 32t32.5 14.5t37 -9.5t41 -39l37 53l19 -33q-12 -20 -27.5 -32.5t-32.5 -14t-37 9.5t-41 39z" />
    <glyph glyph-name="hungarumlaut" unicode="&#x2dd;" horiz-adv-x="302" 
d="M252 698l-66 -10l-8 -30h-46q7 11 13 20t14 17l-47 -7l-8 -30h-46q11 18 21.5 30.5t24 23t33 20t48.5 21.5l-5 -41q14 10 32.5 19.5t46.5 21.5z" />
    <glyph glyph-name="uni1E02" unicode="&#x1e02;" horiz-adv-x="272" 
d="M164 763q-6 -19 -10 -29.5t-4.5 -19t2 -18.5t8.5 -27h182v-21h-220l17 -11q13 -8 27.5 -21t27.5 -30.5t21.5 -38t8.5 -43.5q0 -26 -8.5 -46.5t-21.5 -37t-27.5 -29t-27.5 -21.5l-3 -3l14 -10q32 -23 55.5 -65.5t24.5 -90.5q0 -41 -12.5 -73.5t-30.5 -57t-39 -42
t-38 -28.5h232v-21h-412v21h110q1 3 1 7.5t1 10.5l5 76l3 107q0 30 1 61t1 62q0 32 -0.5 63t-1.5 60l-3 107l-5 76q-1 6 -1 10.5t-1 7.5h-110v21h183q14 28 10 47.5t-15 46.5h56zM177 272q-19 31 -44.5 47t-45.5 21q-2 0 -4 -2v-77l2 -60q1 -29 1 -56.5t2 -50.5l3 -50
q42 17 73 56t35 92q0 44 -22 80zM88 554q-2 -23 -3 -50.5t-1 -56.5v-51l4 -2q12 3 30 11t34.5 22t28.5 33.5t12 43.5q-2 21 -10 36.5t-19.5 27.5t-24 20t-22.5 14l-23 10q-1 0 -1.5 0.5t-1.5 0.5z" />
    <glyph glyph-name="uni1E03" unicode="&#x1e03;" horiz-adv-x="272" 
d="M164 763q-6 -19 -10 -29.5t-4.5 -19t2 -18.5t8.5 -27h182v-21h-220l17 -11q13 -8 27.5 -21t27.5 -30.5t21.5 -38t8.5 -43.5q0 -26 -8.5 -46.5t-21.5 -37t-27.5 -29t-27.5 -21.5l-3 -3l14 -10q32 -23 55.5 -65.5t24.5 -90.5q0 -41 -12.5 -73.5t-30.5 -57t-39 -42
t-38 -28.5h232v-21h-412v21h110q1 3 1 7.5t1 10.5l5 76l3 107q0 30 1 61t1 62q0 32 -0.5 63t-1.5 60l-3 107l-5 76q-1 6 -1 10.5t-1 7.5h-110v21h183q14 28 10 47.5t-15 46.5h56zM177 272q-19 31 -44.5 47t-45.5 21q-2 0 -4 -2v-77l2 -60q1 -29 1 -56.5t2 -50.5l3 -50
q42 17 73 56t35 92q0 44 -22 80zM88 554q-2 -23 -3 -50.5t-1 -56.5v-51l4 -2q12 3 30 11t34.5 22t28.5 33.5t12 43.5q-2 21 -10 36.5t-19.5 27.5t-24 20t-22.5 14l-23 10q-1 0 -1.5 0.5t-1.5 0.5z" />
    <glyph glyph-name="uni1E0A" unicode="&#x1e0a;" horiz-adv-x="277" 
d="M166 763q-6 -19 -10 -29.5t-4.5 -19t2 -18.5t8.5 -27h185v-21h-247l7 -6q21 -20 45.5 -50.5t44.5 -69.5t33.5 -86t13.5 -99q0 -59 -14 -110.5t-35 -93.5t-45 -74t-43 -51l-8 -8h248v-21h-417v21h108q1 3 1 7.5t1 10.5l5 76l3 107q1 23 1.5 48.5t0.5 50.5q0 49 -1 105
t-2.5 106t-3.5 87.5t-5 49.5h-108v21h186q14 27 9.5 47t-15.5 47h56zM81 261l2 -60q0 -61 3 -107l2 -36q22 19 44.5 46.5t40.5 62t29 75t11 84.5q0 52 -12 94.5t-30.5 75.5t-40.5 57t-42 40l-2 -39q-3 -47 -3 -107l-2 -61v-125z" />
    <glyph glyph-name="uni1E0B" unicode="&#x1e0b;" horiz-adv-x="277" 
d="M166 763q-6 -19 -10 -29.5t-4.5 -19t2 -18.5t8.5 -27h185v-21h-247l7 -6q21 -20 45.5 -50.5t44.5 -69.5t33.5 -86t13.5 -99q0 -59 -14 -110.5t-35 -93.5t-45 -74t-43 -51l-8 -8h248v-21h-417v21h108q1 3 1 7.5t1 10.5l5 76l3 107q1 23 1.5 48.5t0.5 50.5q0 49 -1 105
t-2.5 106t-3.5 87.5t-5 49.5h-108v21h186q14 27 9.5 47t-15.5 47h56zM81 261l2 -60q0 -61 3 -107l2 -36q22 19 44.5 46.5t40.5 62t29 75t11 84.5q0 52 -12 94.5t-30.5 75.5t-40.5 57t-42 40l-2 -39q-3 -47 -3 -107l-2 -61v-125z" />
    <glyph glyph-name="uni1E1E" unicode="&#x1e1e;" horiz-adv-x="287" 
d="M171 763q-6 -19 -10 -29.5t-4.5 -19t2 -18.5t8.5 -27h190v-21h-127l18 -12q-12 -15 -30 -40t-34.5 -59.5t-28.5 -78t-12 -95.5v-23h21q32 0 59 5.5t29 6.5v-56q-14 5 -37.5 6.5t-50.5 5.5h-21v-41q2 -44 4 -86t3.5 -78t2.5 -63t1 -40h203v-21h-427v21h170q1 3 1 8t1 10
l5 78l3 109v31t1 31v40h-6q-26 -2 -47 -6t-21 -5v56l34 -8l40 -3v22q0 49 8 91.5t20 77.5t25 62.5t23 46.5l4 7h-261v21h191q14 27 9.5 47t-15.5 47h56z" />
    <glyph glyph-name="uni1E1F" unicode="&#x1e1f;" horiz-adv-x="287" 
d="M171 763q-6 -19 -10 -29.5t-4.5 -19t2 -18.5t8.5 -27h190v-21h-127l18 -12q-12 -15 -30 -40t-34.5 -59.5t-28.5 -78t-12 -95.5v-23h21q32 0 59 5.5t29 6.5v-56q-14 5 -37.5 6.5t-50.5 5.5h-21v-41q2 -44 4 -86t3.5 -78t2.5 -63t1 -40h203v-21h-427v21h170q1 3 1 8t1 10
l5 78l3 109v31t1 31v40h-6q-26 -2 -47 -6t-21 -5v56l34 -8l40 -3v22q0 49 8 91.5t20 77.5t25 62.5t23 46.5l4 7h-261v21h191q14 27 9.5 47t-15.5 47h56z" />
    <glyph glyph-name="uni1E40" unicode="&#x1e40;" horiz-adv-x="395" 
d="M225 763q-6 -19 -10 -29.5t-4.5 -19t2 -18.5t8.5 -27h244v-21h-114q0 -10 -1.5 -35.5t-4 -61t-4 -78t-1.5 -87.5v-125q0 -45 1.5 -87.5t4 -78t4 -60.5t1.5 -35h114v-21h-535v21h110q1 3 1 7.5t1 10.5l5 76l3 107q0 30 1 61t1 62q0 32 -0.5 63t-1.5 60l-3 107l-5 76
q-1 6 -1 10.5t-1 7.5h-110v21h244q14 28 10 47.5t-15 46.5h56zM126 564q-8 13 -17.5 22.5t-17.5 16.5l-3 -49q-2 -35 -2.5 -79t-2.5 -89l2 -185q0 -36 1.5 -68.5t3 -59t3 -45.5t1.5 -28h83l2 19q2 24 3 64.5t2 91.5q0 49 -1 98t-6 99l-8 63q-3 34 -15.5 70.5t-27.5 58.5z
M298 575q-3 -5 -6.5 -9.5t-6.5 -9.5l-24 -40q-20 -32 -33 -65.5t-21 -52.5l2 -23q5 -53 9 -112t7 -112.5t4.5 -94t1.5 -56.5h66q0 11 1.5 36.5t4 60.5t4 77t1.5 87v125q0 54 -3 106t-3 89zM113 648q26 -25 49 -67.5t34 -101.5q16 11 30.5 32.5t27.5 46t23 48.5t17 42h-181z
" />
    <glyph glyph-name="uni1E41" unicode="&#x1e41;" horiz-adv-x="428" 
d="M225 763q-6 -19 -10 -29.5t-4.5 -19t2 -18.5t8.5 -27h277v-21h-247q16 -15 40.5 -43t44.5 -74q7 -20 12 -30.5t9 -27t8.5 -46t9.5 -86.5q7 -51 10.5 -104.5t5 -101t2.5 -83.5t4 -52h101v-21h-568v21h102q3 13 5.5 47.5t5.5 81t6.5 101t8.5 108.5l5 33q2 26 8.5 50.5
t11.5 44.5q10 36 24.5 65t29 51.5t27 38.5t17.5 27h-251v21h244q14 28 10 47.5t-15 46.5h56zM349 99q0 12 0.5 25.5t0.5 27.5q0 110 -7.5 184.5t-21.5 124t-35 80t-49 53.5q0 -24 -1 -55t-2.5 -66t-2.5 -73.5t-1 -75.5q0 -49 1 -102t2.5 -98.5t3.5 -79.5t5 -44h101
q0 13 2.5 38.5t3.5 60.5zM199 262v77t-0.5 89t-2 86.5t-4.5 70.5q-38 -42 -60.5 -93.5t-37.5 -125.5l-5 -32q-5 -46 -7 -93.5t-2 -90.5q0 -51 3 -92t3 -58h102q0 11 1 36.5t2.5 61t3.5 78t4 86.5z" />
    <glyph glyph-name="uni1E56" unicode="&#x1e56;" horiz-adv-x="274" 
d="M165 763q-6 -19 -10 -29.5t-4.5 -19t2 -18.5t8.5 -27h183v-21h-233q27 -14 50.5 -40t41.5 -60.5t28.5 -76t10.5 -84.5q0 -21 -1.5 -40t-3.5 -35q-9 -59 -30.5 -99t-45.5 -66.5t-45.5 -40t-29.5 -17.5q1 -32 3.5 -55t2.5 -34h252v-21h-414v21h108q2 8 4 33t3.5 61t2.5 79
t1 88q0 58 -1.5 120.5t-4 117t-4 95t-1.5 54.5h-108v21h184q14 28 10 47.5t-15 46.5h56zM81 386v-122t3 -119q21 7 43.5 27t41 50t30.5 69t12 85q0 57 -13.5 98t-33 68t-40.5 42t-35 20q-2 -38 -5 -96.5t-3 -121.5z" />
    <glyph glyph-name="uni1E57" unicode="&#x1e57;" horiz-adv-x="274" 
d="M165 763q-6 -19 -10 -29.5t-4.5 -19t2 -18.5t8.5 -27h183v-21h-233q27 -14 50.5 -40t41.5 -60.5t28.5 -76t10.5 -84.5q0 -21 -1.5 -40t-3.5 -35q-9 -59 -30.5 -99t-45.5 -66.5t-45.5 -40t-29.5 -17.5q1 -32 3.5 -55t2.5 -34h252v-21h-414v21h108q2 8 4 33t3.5 61t2.5 79
t1 88q0 58 -1.5 120.5t-4 117t-4 95t-1.5 54.5h-108v21h184q14 28 10 47.5t-15 46.5h56zM81 386v-122t3 -119q21 7 43.5 27t41 50t30.5 69t12 85q0 57 -13.5 98t-33 68t-40.5 42t-35 20q-2 -38 -5 -96.5t-3 -121.5z" />
    <glyph glyph-name="uni1E60" unicode="&#x1e60;" horiz-adv-x="205" 
d="M130 763q-6 -19 -10 -29.5t-4.5 -19t2 -18.5t8.5 -27h149v-21h-134l18 -13q1 -1 -11 -13t-28 -37q-5 -7 -13 -20t-15.5 -30t-12.5 -36.5t-5 -38.5q0 -38 13 -70.5t28.5 -63t29 -62t15.5 -67.5q0 -34 -7 -64t-17 -55t-20.5 -45t-17.5 -33h177v-21h-345v21h115l-8 5
q-3 -1 10 12.5t30 39t32.5 61t16.5 79.5q0 35 -13.5 67t-30 63.5t-30 64.5t-13.5 70q0 26 7 52.5t17 51t20.5 46t18.5 36.5h-172v21h149q14 28 10 47.5t-15 46.5h56z" />
    <glyph glyph-name="uni1E61" unicode="&#x1e61;" horiz-adv-x="205" 
d="M130 763q-6 -19 -10 -29.5t-4.5 -19t2 -18.5t8.5 -27h149v-21h-134l18 -13q1 -1 -11 -13t-28 -37q-5 -7 -13 -20t-15.5 -30t-12.5 -36.5t-5 -38.5q0 -38 13 -70.5t28.5 -63t29 -62t15.5 -67.5q0 -34 -7 -64t-17 -55t-20.5 -45t-17.5 -33h177v-21h-345v21h115l-8 5
q-3 -1 10 12.5t30 39t32.5 61t16.5 79.5q0 35 -13.5 67t-30 63.5t-30 64.5t-13.5 70q0 26 7 52.5t17 51t20.5 46t18.5 36.5h-172v21h149q14 28 10 47.5t-15 46.5h56z" />
    <glyph glyph-name="uni1E6A" unicode="&#x1e6a;" horiz-adv-x="322" 
d="M189 763q-6 -19 -10 -29.5t-4.5 -19t2 -18.5t8.5 -27h207v-21h-90l-36 -48q-12 12 -30 20.5t-49 13.5q0 -15 -1.5 -40.5t-3.5 -58.5t-3.5 -72t-1.5 -81q0 -50 1.5 -110t4 -115t4 -98t1.5 -59h204v-21h-462v21h204q3 11 5 36.5t3.5 61t2 77t0.5 84.5q0 57 -1.5 115.5
t-3.5 110t-3.5 91t-1.5 59.5q-19 -3 -42.5 -9.5t-33.5 -25.5l-41 48h-88v21h208q14 28 10 47.5t-15 46.5h56z" />
    <glyph glyph-name="uni1E6B" unicode="&#x1e6b;" horiz-adv-x="322" 
d="M189 763q-6 -19 -10 -29.5t-4.5 -19t2 -18.5t8.5 -27h207v-21h-90l-36 -48q-12 12 -30 20.5t-49 13.5q0 -15 -1.5 -40.5t-3.5 -58.5t-3.5 -72t-1.5 -81q0 -50 1.5 -110t4 -115t4 -98t1.5 -59h204v-21h-462v21h204q3 11 5 36.5t3.5 61t2 77t0.5 84.5q0 57 -1.5 115.5
t-3.5 110t-3.5 91t-1.5 59.5q-19 -3 -42.5 -9.5t-33.5 -25.5l-41 48h-88v21h208q14 28 10 47.5t-15 46.5h56z" />
    <glyph glyph-name="Wgrave" unicode="&#x1e80;" horiz-adv-x="428" 
d="M150 753q26 -11 44.5 -20.5t32 -18.5t23.5 -20t20 -25h228v-21h-102q-3 -14 -5.5 -48t-5.5 -80.5t-6.5 -101t-8.5 -108.5l-5 -33q-2 -26 -8.5 -50.5t-11.5 -44.5q-10 -36 -24.5 -65t-29 -51.5t-27 -39t-17.5 -26.5h251v-21h-568v21h247q-16 15 -40.5 43t-44.5 74
q-7 20 -12 30.5t-9 27t-8.5 46t-9.5 86.5q-7 51 -10.5 104.5t-5 101t-2.5 83.5t-4 52h-101v21h298l-5 19l-66 10zM79 549q0 -12 -0.5 -25.5t-0.5 -27.5q0 -110 7 -184.5t21.5 -124t35.5 -80t49 -53.5q0 24 1 55t2.5 66t2.5 73t1 76q0 49 -1 102t-2.5 98.5t-3.5 79t-5 44.5
h-101q0 -13 -2.5 -38.5t-3.5 -60.5zM229 386v-77t0.5 -89t2 -86.5t4.5 -70.5q38 42 60.5 93.5t37.5 125.5l5 32q5 46 7 93.5t2 90.5q0 51 -3 92t-3 58h-102q0 -11 -1 -36.5t-2.5 -61t-3.5 -78t-4 -86.5z" />
    <glyph glyph-name="wgrave" unicode="&#x1e81;" horiz-adv-x="428" 
d="M150 753q26 -11 44.5 -20.5t32 -18.5t23.5 -20t20 -25h228v-21h-102q-3 -14 -5.5 -48t-5.5 -80.5t-6.5 -101t-8.5 -108.5l-5 -33q-2 -26 -8.5 -50.5t-11.5 -44.5q-10 -36 -24.5 -65t-29 -51.5t-27 -39t-17.5 -26.5h251v-21h-568v21h247q-16 15 -40.5 43t-44.5 74
q-7 20 -12 30.5t-9 27t-8.5 46t-9.5 86.5q-7 51 -10.5 104.5t-5 101t-2.5 83.5t-4 52h-101v21h298l-5 19l-66 10zM79 549q0 -12 -0.5 -25.5t-0.5 -27.5q0 -110 7 -184.5t21.5 -124t35.5 -80t49 -53.5q0 24 1 55t2.5 66t2.5 73t1 76q0 49 -1 102t-2.5 98.5t-3.5 79t-5 44.5
h-101q0 -13 -2.5 -38.5t-3.5 -60.5zM229 386v-77t0.5 -89t2 -86.5t4.5 -70.5q38 42 60.5 93.5t37.5 125.5l5 32q5 46 7 93.5t2 90.5q0 51 -3 92t-3 58h-102q0 -11 -1 -36.5t-2.5 -61t-3.5 -78t-4 -86.5z" />
    <glyph glyph-name="Wacute" unicode="&#x1e82;" horiz-adv-x="428" 
d="M270 698l-66 -10l-5 -19h299v-21h-102q-3 -14 -5.5 -48t-5.5 -80.5t-6.5 -101t-8.5 -108.5l-5 -33q-2 -26 -8.5 -50.5t-11.5 -44.5q-10 -36 -24.5 -65t-29 -51.5t-27 -39t-17.5 -26.5h251v-21h-568v21h247q-16 15 -40.5 43t-44.5 74q-7 20 -12 30.5t-9 27t-8.5 46
t-9.5 86.5q-7 51 -10.5 104.5t-5 101t-2.5 83.5t-4 52h-101v21h227q10 14 20 25t23.5 20t31.5 18.5t45 20.5zM79 549q0 -12 -0.5 -25.5t-0.5 -27.5q0 -110 7 -184.5t21.5 -124t35.5 -80t49 -53.5q0 24 1 55t2.5 66t2.5 73t1 76q0 49 -1 102t-2.5 98.5t-3.5 79t-5 44.5h-101
q0 -13 -2.5 -38.5t-3.5 -60.5zM229 386v-77t0.5 -89t2 -86.5t4.5 -70.5q38 42 60.5 93.5t37.5 125.5l5 32q5 46 7 93.5t2 90.5q0 51 -3 92t-3 58h-102q0 -11 -1 -36.5t-2.5 -61t-3.5 -78t-4 -86.5z" />
    <glyph glyph-name="wacute" unicode="&#x1e83;" horiz-adv-x="428" 
d="M270 698l-66 -10l-5 -19h299v-21h-102q-3 -14 -5.5 -48t-5.5 -80.5t-6.5 -101t-8.5 -108.5l-5 -33q-2 -26 -8.5 -50.5t-11.5 -44.5q-10 -36 -24.5 -65t-29 -51.5t-27 -39t-17.5 -26.5h251v-21h-568v21h247q-16 15 -40.5 43t-44.5 74q-7 20 -12 30.5t-9 27t-8.5 46
t-9.5 86.5q-7 51 -10.5 104.5t-5 101t-2.5 83.5t-4 52h-101v21h227q10 14 20 25t23.5 20t31.5 18.5t45 20.5zM79 549q0 -12 -0.5 -25.5t-0.5 -27.5q0 -110 7 -184.5t21.5 -124t35.5 -80t49 -53.5q0 24 1 55t2.5 66t2.5 73t1 76q0 49 -1 102t-2.5 98.5t-3.5 79t-5 44.5h-101
q0 -13 -2.5 -38.5t-3.5 -60.5zM229 386v-77t0.5 -89t2 -86.5t4.5 -70.5q38 42 60.5 93.5t37.5 125.5l5 32q5 46 7 93.5t2 90.5q0 51 -3 92t-3 58h-102q0 -11 -1 -36.5t-2.5 -61t-3.5 -78t-4 -86.5z" />
    <glyph glyph-name="Wdieresis" unicode="&#x1e84;" horiz-adv-x="428" 
d="M292 763q-6 -19 -10 -29.5t-4.5 -19t2 -18.5t8.5 -27h210v-21h-102q-3 -14 -5.5 -48t-5.5 -80.5t-6.5 -101t-8.5 -108.5l-5 -33q-2 -26 -8.5 -50.5t-11.5 -44.5q-10 -36 -24.5 -65t-29 -51.5t-27 -39t-17.5 -26.5h251v-21h-568v21h247q-16 15 -40.5 43t-44.5 74
q-7 20 -12 30.5t-9 27t-8.5 46t-9.5 86.5q-7 51 -10.5 104.5t-5 101t-2.5 83.5t-4 52h-101v21h211q14 28 10 47.5t-15 46.5h56q-6 -19 -10 -29.5t-4.5 -19t2 -18.5t8.5 -27h53q14 28 10 47.5t-15 46.5h56zM79 549q0 -12 -0.5 -25.5t-0.5 -27.5q0 -110 7 -184.5t21.5 -124
t35.5 -80t49 -53.5q0 24 1 55t2.5 66t2.5 73t1 76q0 49 -1 102t-2.5 98.5t-3.5 79t-5 44.5h-101q0 -13 -2.5 -38.5t-3.5 -60.5zM229 386v-77t0.5 -89t2 -86.5t4.5 -70.5q38 42 60.5 93.5t37.5 125.5l5 32q5 46 7 93.5t2 90.5q0 51 -3 92t-3 58h-102q0 -11 -1 -36.5t-2.5 -61
t-3.5 -78t-4 -86.5z" />
    <glyph glyph-name="wdieresis" unicode="&#x1e85;" horiz-adv-x="428" 
d="M292 763q-6 -19 -10 -29.5t-4.5 -19t2 -18.5t8.5 -27h210v-21h-102q-3 -14 -5.5 -48t-5.5 -80.5t-6.5 -101t-8.5 -108.5l-5 -33q-2 -26 -8.5 -50.5t-11.5 -44.5q-10 -36 -24.5 -65t-29 -51.5t-27 -39t-17.5 -26.5h251v-21h-568v21h247q-16 15 -40.5 43t-44.5 74
q-7 20 -12 30.5t-9 27t-8.5 46t-9.5 86.5q-7 51 -10.5 104.5t-5 101t-2.5 83.5t-4 52h-101v21h211q14 28 10 47.5t-15 46.5h56q-6 -19 -10 -29.5t-4.5 -19t2 -18.5t8.5 -27h53q14 28 10 47.5t-15 46.5h56zM79 549q0 -12 -0.5 -25.5t-0.5 -27.5q0 -110 7 -184.5t21.5 -124
t35.5 -80t49 -53.5q0 24 1 55t2.5 66t2.5 73t1 76q0 49 -1 102t-2.5 98.5t-3.5 79t-5 44.5h-101q0 -13 -2.5 -38.5t-3.5 -60.5zM229 386v-77t0.5 -89t2 -86.5t4.5 -70.5q38 42 60.5 93.5t37.5 125.5l5 32q5 46 7 93.5t2 90.5q0 51 -3 92t-3 58h-102q0 -11 -1 -36.5t-2.5 -61
t-3.5 -78t-4 -86.5z" />
    <glyph glyph-name="Ygrave" unicode="&#x1ef2;" horiz-adv-x="286" 
d="M79 753q26 -11 44.5 -20.5t32 -18.5t23.5 -20t20 -25h157v-21h-101q0 -17 -4.5 -54t-7.5 -82t-9.5 -84.5t-16.5 -77t-23.5 -73.5t-31.5 -74q1 -34 2.5 -65.5t3 -58.5t3 -47t1.5 -32h184v-21h-426v21h188q2 10 3.5 30.5t2.5 48t2 61t2 69.5q-24 45 -42 83t-29 85
q-9 46 -13.5 89.5t-6.5 79.5t-3.5 62.5t-3.5 39.5h-100v21h227l-5 19l-66 10zM79 552q0 -50 3 -91t10 -77t19 -68t30 -62q29 39 48.5 103.5t19.5 156.5q0 48 -3.5 84.5t-3.5 49.5h-118q0 -13 -2 -38t-3 -58z" />
    <glyph glyph-name="ygrave" unicode="&#x1ef3;" horiz-adv-x="286" 
d="M79 753q26 -11 44.5 -20.5t32 -18.5t23.5 -20t20 -25h157v-21h-101q0 -17 -4.5 -54t-7.5 -82t-9.5 -84.5t-16.5 -77t-23.5 -73.5t-31.5 -74q1 -34 2.5 -65.5t3 -58.5t3 -47t1.5 -32h184v-21h-426v21h188q2 10 3.5 30.5t2.5 48t2 61t2 69.5q-24 45 -42 83t-29 85
q-9 46 -13.5 89.5t-6.5 79.5t-3.5 62.5t-3.5 39.5h-100v21h227l-5 19l-66 10zM79 552q0 -50 3 -91t10 -77t19 -68t30 -62q29 39 48.5 103.5t19.5 156.5q0 48 -3.5 84.5t-3.5 49.5h-118q0 -13 -2 -38t-3 -58z" />
    <glyph glyph-name="endash" unicode="&#x2013;" horiz-adv-x="367" 
d="M437 0v-21h-507v21h507zM-70 648v21h507v-21h-507zM33 336q20 -7 62 -10.5t88.5 -3.5t89.5 3t64 11v-56q-11 6 -35 10t-54.5 5.5t-64 1t-64 -3t-53.5 -6t-33 -7.5v56z" />
    <glyph glyph-name="emdash" unicode="&#x2014;" horiz-adv-x="467" 
d="M537 0v-21h-607v21h607zM-70 648v21h607v-21h-607zM33 336q13 -5 44 -8t71.5 -4.5t85 -1.5t85 1.5t72.5 4.5t46 8v-56q-11 6 -42.5 10t-73 5.5t-88 1t-88 -3t-72 -6t-40.5 -7.5v56z" />
    <glyph glyph-name="quoteleft" unicode="&#x2018;" horiz-adv-x="67" 
d="M69 648q-5 -16 -9.5 -29.5t-7 -28.5t-2.5 -33t3 -42h-36q5 39 1 74t-15 59h-73v21h207v-21h-68zM137 0v-21h-207v21h207z" />
    <glyph glyph-name="quoteright" unicode="&#x2019;" horiz-adv-x="67" 
d="M69 648q-5 -16 -9.5 -29.5t-7 -28.5t-2.5 -33t3 -42h-36q5 39 1 74t-15 59h-73v21h207v-21h-68zM137 0v-21h-207v21h207z" />
    <glyph glyph-name="quotesinglbase" unicode="&#x201a;" horiz-adv-x="67" 
d="M18 0q3 40 -2 73.5t-19 55.5h76q-6 -17 -10.5 -31t-8 -28.5t-4.5 -31t1 -38.5h86v-21h-207v21h88zM-70 648v21h207v-21h-207z" />
    <glyph glyph-name="quotedblleft" unicode="&#x201c;" horiz-adv-x="147" 
d="M97 515q5 39 1 74t-15 59h-14q-5 -16 -9.5 -29.5t-7 -28.5t-2.5 -33t3 -42h-36q5 39 1 74t-15 59h-73v21h287v-21h-68q-5 -16 -9.5 -29.5t-7 -28.5t-2.5 -33t3 -42h-36zM217 0v-21h-287v21h287z" />
    <glyph glyph-name="quotedblright" unicode="&#x201d;" horiz-adv-x="147" 
d="M97 515q5 39 1 74t-15 59h-14q-5 -16 -9.5 -29.5t-7 -28.5t-2.5 -33t3 -42h-36q5 39 1 74t-15 59h-73v21h287v-21h-68q-5 -16 -9.5 -29.5t-7 -28.5t-2.5 -33t3 -42h-36zM217 0v-21h-287v21h287z" />
    <glyph glyph-name="quotedblbase" unicode="&#x201e;" horiz-adv-x="147" 
d="M18 0q3 40 -2 73.5t-19 55.5h76q-6 -17 -10.5 -31t-8 -28.5t-4.5 -31t1 -38.5h47q3 40 -2 73.5t-19 55.5h76q-6 -17 -10.5 -31t-8 -28.5t-4.5 -31t1 -38.5h86v-21h-287v21h88zM-70 648v21h287v-21h-287z" />
    <glyph glyph-name="dagger" unicode="&#x2020;" 
d="M33 496q36 -12 86 -14q-1 59 -2.5 105.5t-4.5 60.5h-182v21h407v-21h-171q0 -3 -0.5 -8t-0.5 -10l-10 -148q46 2 82 14v-56q-14 8 -36 12t-48 4v-9l-4 -123q-1 -16 -1 -31.5v-31.5v-60q0 -9 -0.5 -17.5t-0.5 -16.5q0 -20 0.5 -38.5t1.5 -35.5l3 -75q1 -6 1 -10.5t1 -7.5
h183v-21h-407v21h170q0 12 1.5 32t4 46.5t4.5 57.5t3 65l3 61q0 62 3 125v68q-27 -2 -50 -6t-36 -9v56z" />
    <glyph glyph-name="daggerdbl" unicode="&#x2021;" 
d="M33 496q36 -12 86 -14q-1 59 -2.5 105.5t-4.5 60.5h-182v21h407v-21h-171q0 -3 -0.5 -8t-0.5 -10l-10 -148q46 2 82 14v-56q-14 8 -36 12t-48 4v-9l-4 -123q-1 -16 -1 -31.5v-31.5v-60q0 -9 -0.5 -17.5t-0.5 -16.5v-6q24 1 47.5 4.5t42.5 10.5v-56q-14 8 -38.5 12
t-51.5 4q0 -11 0.5 -21.5t1.5 -21.5l3 -75q1 -6 1 -10.5t1 -7.5h183v-21h-407v21h170q0 17 3.5 52.5t6.5 82.5q-24 -2 -44.5 -6t-32.5 -9v56q33 -11 78 -14l2 39l3 61q0 62 3 125v68q-27 -2 -50 -6t-36 -9v56z" />
    <glyph glyph-name="bullet" unicode="&#x2022;" horiz-adv-x="307" 
d="M377 0v-21h-447v21h447zM-70 648v21h447v-21h-447zM58 295l89 113l97 -95l-94 -113z" />
    <glyph glyph-name="ellipsis" unicode="&#x2026;" horiz-adv-x="451" 
d="M46 298l62 78l65 -65l52 65l65 -65l52 65l67 -66l-65 -78l-63 65l-54 -65l-63 65l-54 -65zM-70 648v21h591v-21h-591zM521 0v-21h-591v21h591z" />
    <glyph glyph-name="perthousand" unicode="&#x2030;" horiz-adv-x="320" 
d="M-70 669h460v-21h-147l-4 -22q-5 -30 -20.5 -79t-34.5 -107l-20 -60l-40 -123q-12 -35 -22.5 -71t-18.5 -68.5t-12.5 -59t-5.5 -43.5v-15h325v-21h-460v21h81q0 2 0.5 4.5t0.5 4.5l3 14q7 31 23 79t35 106l20 59l40 123q26 78 40 143.5t16 98.5v16h-259v21zM130 165
q0 23 16.5 39.5t39.5 16.5q16 0 29 -9t21 -23q7 14 20 23t30 9q23 0 39.5 -16.5t16.5 -39.5t-16.5 -39.5t-39.5 -16.5q-17 0 -30 8.5t-20 22.5q-8 -14 -21 -22.5t-29 -8.5q-23 0 -39.5 16.5t-16.5 39.5zM20 505q0 23 16.5 39.5t39.5 16.5t39.5 -16.5t16.5 -39.5t-16.5 -39.5
t-39.5 -16.5t-39.5 16.5t-16.5 39.5z" />
    <glyph glyph-name="guilsinglleft" unicode="&#x2039;" horiz-adv-x="249" 
d="M319 669v-21h-119l18 -11l-157 -317l156 -308l-16 -12h118v-21h-389v21l239 1l-141 315l143 332h-241v21h389z" />
    <glyph glyph-name="guilsinglright" unicode="&#x203a;" horiz-adv-x="249" 
d="M319 669v-21h-241l143 -332l-141 -315l239 -1v-21h-389v21h118l-16 12l156 308l-157 317l18 11h-119v21h389z" />
    <glyph glyph-name="fraction" unicode="&#x2044;" horiz-adv-x="250" 
d="M-70 669h390v-21h-77l-4 -22q-5 -30 -20.5 -79t-34.5 -107l-20 -60l-40 -123q-12 -35 -22.5 -71t-18.5 -68.5t-12.5 -59t-5.5 -43.5v-15h255v-21h-390v21h81q0 2 0.5 4.5t0.5 4.5l3 14q7 31 23 79t35 106l20 59l40 123q26 78 40 143.5t16 98.5v16h-259v21z" />
    <glyph glyph-name="Euro" unicode="&#x20ac;" horiz-adv-x="249" 
d="M-27 396q14 -5 31.5 -8t37.5 -5q7 48 22 89t33 74t37.5 58t34.5 42l2 2h-241v21h389v-21h-109l18 -21q-21 -15 -45 -38.5t-45 -54.5t-38 -69.5t-24 -83.5q27 0 53.5 3.5t47.5 11.5v-56q-17 10 -45 13.5t-59 2.5q-1 -9 -1.5 -18t-0.5 -18v-19.5t2 -19.5q28 0 55 3.5
t49 11.5v-56q-16 9 -43.5 13t-56.5 3q6 -37 19 -73t32 -67t44 -55.5t55 -38.5l-16 -22h108v-21h-389v21l239 1q-18 17 -38 43t-37.5 58.5t-31.5 71t-20 80.5q-22 -2 -40 -5.5t-29 -8.5v56q14 -5 30.5 -8t35.5 -5q-1 8 -1 16.5v16.5v19t1 19q-44 -5 -66 -14v56z" />
    <glyph glyph-name="trademark" unicode="&#x2122;" horiz-adv-x="717" 
d="M-70 669h857v-21h-114q0 -10 -1.5 -35.5t-4 -61t-4 -78t-1.5 -87.5v-125q0 -45 1.5 -87.5t4 -78t4 -60.5t1.5 -35h114v-21h-857v21h204q3 11 5 36.5t3.5 61t2 77t0.5 84.5q0 57 -1.5 115.5t-3.5 110t-3.5 91t-1.5 59.5q-19 -3 -42.5 -9.5t-33.5 -25.5l-41 48h-88v21z
M177 382q0 -50 1.5 -110t4 -115t4 -98t1.5 -59h174q1 3 1 7.5t1 10.5l5 76l3 107q0 30 1 61t1 62q0 32 -0.5 63t-1.5 60l-3 107l-5 76q-1 6 -1 10.5t-1 7.5h-60l-36 -48q-12 12 -30 20.5t-49 13.5q0 -15 -1.5 -40.5t-3.5 -58.5t-3.5 -72t-1.5 -81zM448 564q-8 13 -17.5 22.5
t-17.5 16.5l-3 -49q-2 -35 -2.5 -79t-2.5 -89l2 -185q0 -36 1.5 -68.5t3 -59t3 -45.5t1.5 -28h83l2 19q2 24 3 64.5t2 91.5q0 49 -1 98t-6 99l-8 63q-3 34 -15.5 70.5t-27.5 58.5zM620 575q-3 -5 -6.5 -9.5t-6.5 -9.5l-24 -40q-20 -32 -33 -65.5t-21 -52.5l2 -23
q5 -53 9 -112t7 -112.5t4.5 -94t1.5 -56.5h66q0 11 1.5 36.5t4 60.5t4 77t1.5 87v125q0 54 -3 106t-3 89zM435 648q26 -25 49 -67.5t34 -101.5q16 11 30.5 32.5t27.5 46t23 48.5t17 42h-181z" />
    <glyph glyph-name="minus" unicode="&#x2212;" 
d="M337 0v-21h-407v21h407zM-70 648v21h407v-21h-407zM33 336q20 -7 46.5 -10.5t54 -3.5t55 3t48.5 11v-56q-16 10 -44.5 13.5t-59 2.5t-58 -5.5t-42.5 -10.5v56z" />
    <glyph glyph-name="fi" unicode="&#xfb01;" horiz-adv-x="594" 
d="M-70 669h714v-21h-93v-38q-1 0 -24.5 5.5t-57.5 5.5q0 -10 -1.5 -28.5t-3 -42.5t-3 -53.5t-1.5 -60.5l-2 -55v-114l2 -56q0 -33 1.5 -62.5t3 -54t3 -42t1.5 -25.5h14q26 2 47 6t21 5v-38h93v-21h-714v21h170q1 3 1 8t1 10l5 78l3 109v31t1 31v40h-6q-26 -2 -47 -6t-21 -5
v56l34 -8l40 -3v22q0 49 8 91.5t20 77.5t25 62.5t23 46.5l4 7h-261v21zM248 636q-12 -15 -30 -40t-34.5 -59.5t-28.5 -78t-12 -95.5v-23h21q32 0 59 5.5t29 6.5v-56q-14 5 -37.5 6.5t-50.5 5.5h-21v-41q2 -44 4 -86t3.5 -78t2.5 -63t1 -40h182v38q5 -2 25 -5.5t43 -5.5h11
q1 3 1 7.5t1 9.5l5 69l3 98q1 27 2 55.5t0 57.5q0 55 -1.5 110.5t-3.5 100.5l-5 69q-1 5 -1 9.5t-1 7.5q-12 0 -25.5 -1.5t-25 -3.5t-19.5 -4t-9 -2v38h-106z" />
    <glyph glyph-name="fl" unicode="&#xfb02;" horiz-adv-x="583" 
d="M-70 669h723v-21h-267q0 -9 -1.5 -28t-3 -45.5t-3 -59t-1.5 -68.5v-246q0 -53 2.5 -97t4.5 -73q10 7 24 15l67 51q11 8 20.5 17t16.5 17q8 9 15 18l34 -45q2 1 -18 -7t-47 -28q-25 -18 -40 -28.5t-28 -21.5l-21 -19h246v-21h-723v21h170q1 3 1 8t1 10l5 78l3 109v31t1 31
v40h-6q-26 -2 -47 -6t-21 -5v56l34 -8l40 -3v22q0 49 8 91.5t20 77.5t25 62.5t23 46.5l4 7h-261v21zM143 267q2 -44 4 -86t3.5 -78t2.5 -63t1 -40h178q1 3 1 7.5t1 10.5l5 76l3 107q1 29 2 60.5t0 62.5q0 61 -1.5 121.5t-3.5 108.5l-5 76q-1 6 -1 10.5t-1 7.5h-102l18 -12
q-12 -15 -30 -40t-34.5 -59.5t-28.5 -78t-12 -95.5v-23h21q32 0 59 5.5t29 6.5v-56q-14 5 -37.5 6.5t-50.5 5.5h-21v-41z" />
  </font>
</defs>
</svg>
